<mxfile host="app.diagrams.net" modified="2021-04-28T08:54:38.530Z" agent="5.0 (Windows NT 10.0; Win64; x64) AppleWebKit/537.36 (KHTML, like Gecko) Chrome/90.0.4430.93 Safari/537.36" etag="oEXaNk6v-10hxyDeI6gk" version="14.6.6" type="github">
  <diagram id="G7V06tR5PWGyxWbxmbMn" name="第 1 页">
    <mxGraphModel dx="1502" dy="675" grid="1" gridSize="10" guides="1" tooltips="1" connect="1" arrows="1" fold="1" page="1" pageScale="1" pageWidth="827" pageHeight="1169" backgroundImage="{&quot;src&quot;:&quot;data:image/jpeg;base64,/9j/4AAQSkZJRgABAQEBkAGQAAD/4QCORXhpZgAATU0AKgAAAAgAAgESAAMAAAABAAEAAIdpAAQAAAABAAAAJgAAAAAABJADAAIAAAAUAAAAXJAEAAIAAAAUAAAAcJKRAAIAAAADMDAAAJKSAAIAAAADMDAAAAAAAAAyMDIwOjA2OjA0IDAwOjIxOjM1ADIwMjA6MDY6MDQgMDA6MjE6MzUAAAD/4QGcaHR0cDovL25zLmFkb2JlLmNvbS94YXAvMS4wLwA8P3hwYWNrZXQgYmVnaW49J++7vycgaWQ9J1c1TTBNcENlaGlIenJlU3pOVGN6a2M5ZCc/Pg0KPHg6eG1wbWV0YSB4bWxuczp4PSJhZG9iZTpuczptZXRhLyI+PHJkZjpSREYgeG1sbnM6cmRmPSJodHRwOi8vd3d3LnczLm9yZy8xOTk5LzAyLzIyLXJkZi1zeW50YXgtbnMjIj48cmRmOkRlc2NyaXB0aW9uIHJkZjphYm91dD0idXVpZDpmYWY1YmRkNS1iYTNkLTExZGEtYWQzMS1kMzNkNzUxODJmMWIiIHhtbG5zOnhtcD0iaHR0cDovL25zLmFkb2JlLmNvbS94YXAvMS4wLyI+PHhtcDpDcmVhdGVEYXRlPjIwMjAtMDYtMDRUMDA6MjE6MzU8L3htcDpDcmVhdGVEYXRlPjwvcmRmOkRlc2NyaXB0aW9uPjwvcmRmOlJERj48L3g6eG1wbWV0YT4NCjw/eHBhY2tldCBlbmQ9J3cnPz7/2wBDABALDA4MChAODQ4SERATGCgaGBYWGDEjJR0oOjM9PDkzODdASFxOQERXRTc4UG1RV19iZ2hnPk1xeXBkeFxlZ2P/2wBDARESEhgVGC8aGi9jQjhCY2NjY2NjY2NjY2NjY2NjY2NjY2NjY2NjY2NjY2NjY2NjY2NjY2NjY2NjY2NjY2NjY2P/wAARCAQ4B4ADASIAAhEBAxEB/8QAHwAAAQUBAQEBAQEAAAAAAAAAAAECAwQFBgcICQoL/8QAtRAAAgEDAwIEAwUFBAQAAAF9AQIDAAQRBRIhMUEGE1FhByJxFDKBkaEII0KxwRVS0fAkM2JyggkKFhcYGRolJicoKSo0NTY3ODk6Q0RFRkdISUpTVFVWV1hZWmNkZWZnaGlqc3R1dnd4eXqDhIWGh4iJipKTlJWWl5iZmqKjpKWmp6ipqrKztLW2t7i5usLDxMXGx8jJytLT1NXW19jZ2uHi4+Tl5ufo6erx8vP09fb3+Pn6/8QAHwEAAwEBAQEBAQEBAQAAAAAAAAECAwQFBgcICQoL/8QAtREAAgECBAQDBAcFBAQAAQJ3AAECAxEEBSExBhJBUQdhcRMiMoEIFEKRobHBCSMzUvAVYnLRChYkNOEl8RcYGRomJygpKjU2Nzg5OkNERUZHSElKU1RVVldYWVpjZGVmZ2hpanN0dXZ3eHl6goOEhYaHiImKkpOUlZaXmJmaoqOkpaanqKmqsrO0tba3uLm6wsPExcbHyMnK0tPU1dbX2Nna4uPk5ebn6Onq8vP09fb3+Pn6/9oADAMBAAIRAxEAPwD0CiiigAooooAKKKKACiiigAooooAKKKKACiiigAooooAKKKKACiiigAooooAKKKKACiiigAooooAKKKKACiiigAooooAKKKKACiiigAooooAKKKKACiiigAooooAKKKKACiiigAooooAKKKKACiiigAooooAKKKKACiiigAooooAKKKKACiiigAooooAKKKKACiiigAooooAKKKKACiiigAooooAKKKKACiiigAooooAKKKKACiiigAooooAKKKKACiiigAooooAKKKKACiiigAooooAKKKKACiiigAooooAKKKKACiiigAooooAKKKKACiiigAooooAKKKKACiiigAooooAKKKKACiiigAooooAKKKKACiiigAooooAKKKKACiiigAooooAKKKKACiiigAooooAKKKKACiiigAooooAKKKKACiiigAooooAKKKKACiiigAooooAKKKKACiiigAooooAKKKKACiiigAooooAKKKKACiiigAooooAKKKKACiiigAooooAKKKKACiiigAooooAKKKKACiiigAooooAKKKKACiiigAooooAKKKKACiiigAooooAKKKKACiiigAooooAKKKKACiiigAooooAKKKKACiiigAooooAKKKKACiiigAooooAKKKKACiiigAooooAKKKKACiiigAooooAKKKKACiiigAooooAKKKKACiiigAooooAKKKKACiiigAooooAKKKKACiiigAooooAKKKKACiiigAooooAKKKKACiiigAooooAKKKKACiiigAooooAKKKKACiiigAooooAKKKKACiiigAooooAKKKKACiiigAooooAKKKKACiiigAooooAKKKKACiiigAooooAKKKKACiiigAooooAKKKKACiiigAooooAKKKKACiiigAooooAKKKKACiiigAooooAKKKKACiiigAooooAKKKKACiiigAooooAKKKKACiiigAooooAKKKKACiiigAooooAKKKKACiiigAooooAKKKKACiiigAooooAKKKKACiiigAooooAKKKKACiiigAooooAKKKKACiiigAoorO1TW7HSiq3UuJH5VFGWx6+woA0aKxdP8Uabf3C26O8UrnCiRcBj6A+tbVABRRRQAUUUUAFFFFABRRRQAUUUUAFFFFABRRRQAUUUUAFFFFABRRRQAUUUUAFFFFABRRRQAUUUUAFFFFABRRRQAUUUUAFFFFABRRRQAUUUUAFFFFABRRRQAUUUUAFFFFABRRRQAUUUUAFFFFABRRRQAUUUUAFFFFABRRRQAUUUUAFFFFABRRRQAUUUUAFFFFABRRRQAUUUUAFFFFABRRRQAUUUUAFFFFABRRRQAUUUUAFFFFABRRRQAUUUUAFFFFABRRRQAUUUUAFFFFABRRRQAUUUUAFFFFABRRRQAUUUUAFFFFABRRRQAUUUUAFFFFABRRRQAUUUUAFFFFABRRRQAUUUUAFFFFABRRRQAUUUUAFFFFABRRRQAUUUUAFFFFABRRRQAUUUUAFFFFABRRRQAUUUUAFFFFABRRRQAUUUUAFFFFABRRRQAUUUUAFFFFABRRRQAUUUUAFFFFABRRRQAUUUUAFFFFABRRRQAUUUUAFFFFABRRRQAUUUUAFFFFABRRRQAUUUUAFFFFABRRRQAUUUUAFFFFABRRRQAUUUUAFFFFABRRRQAUUUUAFFFFABRRRQAUUUUAFFFFABRRRQAUUUUAFFFFABRRRQAUUUUAFFFFABRRRQBDd3MVnay3MzbY4lLMa8pvbuW/vZruY/vJWzj0HYfgK7Dx5e7LS3slPMzb3H+yOn6/yriqAE57Eg9iO1el+GtWXVdNQs2biIBJR3z6/jXmlWtOv7jTLxbm2bDrwVPRx6GgZ6xRWbo2tWusQboW2yqP3kTfeX/Ee9aVAgooooAKKKKACiiigAooooAKKKKACiiigAooooAKKKKACiiigAooooAKKKKACiiigAooooAKKKKACiiigAooooAKKKKACiiigAooooAKKKKACiiigAooooAKKKKACiiigAooooAKKKKACiiigAooooAKKKKACiiigAooooAKKKKACiiigAooooAKKKKACiiigAooooAKKKKACiiigAooooAKKKKACiiigAooooAKKKKACiiigAooooAKKKKACiiigAooooAKKKKACiiigAooooAKKKKACiiigAooooAKKKKACiiigAooooAKKKKACiiigAooooAKKKKACiiigAooooAKKKKACiiigAooooAKKKKACiiigAooooAKKKKACiiigAooooAKKKKACiiigAooooAKKKKACiiigAooooAKKKKACiiigAooooAKKKKACiiigAooooAKKKKACiiigAooooAKKKKACiiigAooooAKKKKACiiigAooooAKKKKACiiigAooooAKKKKACiiigAooooAKKKKACiiigAooooAKKKKACiiigAooooAKKKKACiiigAooooAKKKKACiiigAooooAKKKKACiiigAooooAKKKKACiiigDzfxdcG48Qzrn5YVWMflk/qaxqva6xbXb4twfOaqFDGFFFFICS3uJrW4Se3kMcqHKsP8APSvR/D+txaxaZOEuYxiWP+o9jXmoGTVuymmsblLm3fZKnT0I9D7UwPVqKw9F8S22pFYJgLe6/uE8P/un+lblAgooooAKKKKACiiigAooooAKKKKACiiigAooooAKKKKACiiigAooooAKKKKACiiigAooooAKKKKACiiigAooooAKKKKACiiigAooooAKKKKACiiigAooooAKKKKACiiigAooooAKKKKACiiigAooooAKKKKACiiigAooooAKKKKACiiigAooooAKKKKACiiigAooooAKKKKACiiigAooooAKKKKACiiigAooooAKKKKACiiigAooooAKKKKACiiigAooooAKKKKACiiigAooooAKKKKACiiigAooooAKKKKACiiigAooooAKKKKACiiigAooooAKKKKACiiigAooooAKKKKACiiigAooooAKKKKACiiigAooooAKKKKACiiigAooooAKKKKACiiigAooooAKKKKACiiigAooooAKKKKACiiigAooooAKKKKACiiigAooooAKKKKACiiigAooooAKKKKACiiigAooooAKKKKACiiigAooooAKKKKACiiigAooooAKKKKACiiigAooooAKKKKACiiigAooooAKKKKACiiigAooooAKKKKACiiigAooooAKKKKACiiigAooooAKKKKACiiigAooooAKKKKAPMfEq7PEN4MYy+fzFZlbPjDH/CSXH+4n8qxaGMKWkpQMmgCSJe5qakUYGKWgBroGHv2NdHoHiqS3ZbTVHLx9EnPVf971HvXPUjKGGDQB6upDKGUgg8gjvS1xnhDWTC66Xct8h/1DE9P9n/CuzoEFFFFABRRRQAUUUUAFFFFABRRRQAUUUUAFFFFABRRRQAUUUUAFFFFABRRRQAUUUUAFFFFABRRRQAUUU0so6sB9TQA6ikDBvukH6UtABRRRQAUUUUAFFFFABRRRQAUUUUAFFFFABRRRQAUUUUAFFFFABRRRQAUUUUAFFFFABRRRQAUUUUAFFFFABRRRQAUUUUAFFFFABRRRQAUUUUAFFFFABRRRQAUUUUAFFFFABRRRQAUUUUAFFFFABRRRQAUUUUAFFFFABRRRQAUUUUAFFFFABRRRQAUUUUAFFFFABRRRQAUUUUAFFFFABRRRQAUUUUAFFFFABRRRQAUUUUAFFFFABRRRQAUUUUAFFFFABRRRQAUUUUAFFFFABRRRQAUUUUAFFFFABRRRQAUUUUAFFFFABRRRQAUUUUAFFFFABRRRQAUUUUAFFFFABRRRQAUUUUAFFFFABRRRQAUUUUAFFFFABRRRQAUUUUAFFFFABRRRQAUUUUAFFFFABRRRQAUUUUAFFFFABRRRQAUUUUAFFFFABRRRQAUUUUAFFFFABRRRQAUUUUAFFFFABRRRQAUUUUAFFFFABRRRQAUUUUAFFFFABRRRQAUUUUAFFFFABRRRQAUUUUAFFFJQB5j4lnW48QXjryFYJ/3yMVm0+dzJczOerSMf1NR0DCpIly1MqeMYXNADqWkooAWiiigBCM9yCOQR1BrvfDOr/wBp2XlzMDdQ8P8A7Q7NXB1LaXc2n3kd3bH94h5HZh3BoQHqVFVrC9h1CzjuoGykgz7g9wfcVZoEFFFFABRRRQAUUUUAFFFFABRRRQAUUUUAFFFFABRRRQAUUUUAFFFFABRRWXquv2GlgrNLvm7RR8t+Pp+NAGpWfqGtafpoxdXKq/8AcXlj+Ari9U8V39/lID9khPZD8x+rf4Vg9yTyT1J6mgDrb7xxI2VsLUKOzzHJ/If41jXHiHV7hstfSJ7RgKP0rMooGSyXNxMcy3Mzn/akJ/rUZJPVmP1Y0lFAEtvdXFpKJLaeSJxzlWP6jvXoXhnWm1izcyoEnhIV9vRs9CK83rvPBGnyW1hLdS8faSCi/wCyO/40COmooooAKKKKACiiigAooooAKKKKACiiigAooooAKKKKACiiigAooooAKKKKACiiigAooooAKKKKACiiigAooooAKKKKACiiigAooooAKKKKACiiigAooooAKKKKACiiigAooooAKKKKACiiigAooooAKKKKACiiigAooooAKKKKACiiigAooooAKKKKACiiigAooooAKKKKACiiigAooooAKKKKACiiigAooooAKKKKACiiigAooooAKKKKACiiigAooooAKKKKACiiigAooooAKKKKACiiigAooooAKKKKACiiigAooooAKKKKACiiigAooooAKKKKACiiigAooooAKKKKACiiigAooooAKKKKACiiigAooooAKKKKACiiigAooooAKKKKACiiigAooooAKKKKACiiigAooooAKKKKACiiigAooooAKKKKACiiigAooooAKKKKACiiigAooooAKKKKACiiigAooooAKKKKACiiigAooooAKKKKACiiigAooooAKKKKACmv9xselOooA8eOdzZ65OfzpKmvE8u+uU6bZXH6moaBiqMmrIGBUEQy1WKAEooooAWiiigAooooA0NF1mbRpyQDJayHMkfcf7Q9/wCdegWl3Be26z20gkjboR/KvL6sabqVzpNz51s2UJ+eIn5XH+PvQB6fRVLS9TttUtRPbt7Mh+8h9DV2gQUUUUAFFFFABRRRQAUUUUAFFFFABRRRQAUUUUAFFFFABUF5eW9jbtPdSrFGvUn+Xuah1TU7bSrQz3LeyoPvOfQV53qup3WsXPm3B2ov+riH3UH9T70AauseMLm63RaeptoTx5h++30/u/zrmsck8kk5JPU1KIgOtPCgdqBkARj2p4hPepqKAIvJHrS+UPWpKKAIjF6VGykGrNNZQwoArhGkYIgyzkKPqeK9btYRb2sMA6RoE/IYrz7wpYm812JiMx2481vr2/X+Vej0CCiiigAooooAKKKKACiiigAooooAKKKKACiiigAooooAKKKKACiiigAooooAKKKKACiiigAooooAKKKKACiiigAooooAKKKKACiiigAooooAKKKKACiiigAooooAKKKKACiiigAooooAKKKKACiiigAooooAKKKKACiiigAooooAKKKKACiiigAooooAKKKKACiiigAooooAKKKKACiiigAooooAKKKKACiiigAooooAKKKKACiiigAooooAKKKKACiiigAooooAKKKKACiiigAooooAKKKKACiiigAooooAKKKKACiiigAooooAKKKKACiiigAooooAKKKKACiiigAooooAKKKKACiiigAooooAKKKKACiiigAooooAKKKKACiiigAooooAKKKKACiiigAooooAKKKKACiiigAooooAKKKKACiiigAooooAKKKKACiiigAooooAKKKKACiiigAooooAKKKKACiiigAooooAKKKKACiiigAooooAKKKKACiiigAooooAKKKKAPJ9UYPqt4w6Gd/51Vq1qalNUu1IwRM3H41VoYyWEVLTIvu0+gApaa52gfWnUAFFFFABRRRQAUlLRQBJZXlxpt0Li1faw6jsw9DXoGiazBq9vuT5Jk/1kZ6j39xXnVPt7ieyuUubVykifr7H2oA9VorI0PX7bV49o/dXKj54j/MeorXoEFFFFABRRRQAUUUUAFFFFABRRRQAUUUUAFMmljgheWVgkaAszHoAKfXI+NdTB2aZE3XDzY9Oy/1oAwdY1J9YvzcsCsSjbCh7L6n3NU6KKBi012CDJpaimHzLQBKpyoJpaQDiloAKKKKACmucKTTqsaXYNqmqQ2gB8sndKfRB1/Pp+NAHWeCbIwaQblxh7lt3/ARwP6n8a6OmqqooVQAqjAA7CnUCCiiigAooooAKKKKACiiigAooooAKKKKACiiigAooooAKKKKACiiigAooooAKKKKACiiigAooooAKKKKACiiigAooooAKKKKACiiigAooooAKKKKACiiigAooooAKKKKACiiigAooooAKKKKACiiigAooooAKKKKACiiigAooooAKKKKACiiigAooooAKKKKACiiigAooooAKKKKACiiigAooooAKKKKACiiigAooooAKKKKACiiigAooooAKKKKACiiigAooooAKKKKACiiigAooooAKKKKACiiigAooooAKKKKACiiigAooooAKKKKACiiigAooooAKKKKACiiigAooooAKKKKACiiigAooooAKKKKACiiigAooooAKKKKACiiigAooooAKKKKACiiigAooooAKKKKACiiigAooooAKKKKACiiigAooooAKKKKACiiigAooooAKKKKACiiigAooooAKKKKACiiigAooooAKKKKACiiigAooooAKKKKACiiigAooooAKKKKAPN/F9v8AZ/EEpxhZVEg/kf1FY1dd4/hAayuB1O5D/OuR70ATx/dp1In3RS0DGyDKcdqIn3DHcU+ojGQ25aAJaKAciigAooooAKKKKACkpaSgBY2eGZJ4WKSocqw7V3nh/X49Uj8mbCXSjkdn9xXBUqPJDKs0DlJUOVYUAer0VkeH9ci1e22thLqMfvI//Zh7Vr0CCiiigAooooAKKKKACiiigAooooAhvLlLO0luJDhI1LGvMJp3urqW5kOXkYsa6fxxqPEOmxty37yXHp2H9fwrlQMDFAwooooAKCAetLRQAUUUUAFFFFACMcAk12/g/TPsenm6lXE9z83PZOw/rXK6NYf2pqsNsRmIfPL/ALo7ficCvSgABgDAFAhaKKKACiiigAooooAKKKKACiiigAooooAKKKKACiiigAooooAKKKKACiiigAooooAKKKKACiiigAooooAKKKKACiiigAooooAKKKKACiiigAooooAKKKKACiiigAooooAKKKKACiiigAooooAKKKKACiiigAooooAKKKKACiiigAooooAKKKKACiiigAooooAKKKKACiiigAooooAKKKKACiiigAooooAKKKKACiiigAooooAKKKKACiiigAooooAKKKKACiiigAooooAKKKKACiiigAooooAKKKKACiiigAooooAKKKKACiiigAooooAKKKKACiiigAooooAKKKKACiiigAooooAKKKKACiiigAooooAKKKKACiiigAooooAKKKKACiiigAooooAKKKKACiiigAooooAKKKKACiiigAooooAKKKKACiiigAooooAKKKKACiiigAooooAKKKKACiiigAooooAKKKKACiiigAooooAKKKKACiiigAooooAKKKKACiiigAooooAKKKKAOS8ft/olkvrKx/SuL712HxAPy2C/7Tn9BXHjrQBYX7tLQv3RRQMWikpaACiiigAooooAKKKKAEooooAKKKKAHRSzW1wlzbSGOaM5Vh/npXoGga3FrFtnAjuY/wDWx+nuPavPqdb3E9lcpc2r7JU/Ij0PtQB6rRWbomsQ6xaeYmEmXiSPPKn/AArSoEFFFFABRRRQAUUUUAFRXM8drbSTyttjjUsx9hUtch421YbBpcJyThpj6Dsv9fyoQHMXF1Jf30t3N9+Vt2PQdh+AptRojZznFSY/GhjCilpKAFopKWgAooooAKQnApadb27Xt5DaJ96Zwv0Hc/lQB2Pgux8jTmvHH7y5OV9kHT+prpKZFGkMSRRjCIoVR6AU+gQUUUUAFFFFABRRRQAUUUUAFFFFABRRRQAUUUUAFFFFABRRRQAUUUUAFFFFABRRRQAUUUUAFFFFABRRRQAUUUUAFFFFABRRRQAUUUUAFFFFABRRRQAUUUUAFFFFABRRRQAUUUUAFFFFABRRRQAUUUUAFFFFABRRRQAUUUUAFFFFABRRRQAUUUUAFFFFABRRRQAUUUUAFFFFABRRRQAUUUUAFFFFABRRRQAUUUUAFFFFABRRRQAUUUUAFFFFABRRRQAUUUUAFFFFABRRRQAUUUUAFFFFABRRRQAUUUUAFFFFABRRRQAUUUUAFFFFABRRRQAUUUUAFFFFABRRRQAUUUUAFFFFABRRRQAUUUUAFFFFABRRRQAUUUUAFFFFABRRRQAUUUUAFFFFABRRRQAUUUUAFFFFABRRRQAUUUUAFFFFABRRRQAUUUUAFFFFABRRRQAUUUUAFFFFABRRRQAUUUUAFFFFABRRRQAUUUUAFFFFABRRRQAUUUUAFFFFABRRRQAUUUUAFFFFABRRRQAUUUUAcp4+hLWFrOBwku0n0yP/AK1cSOterarYpqWnT2j8eYuAfQ9j+deVvG8MzxSrtkRirD0IpgTL90UtC9KKQwpaSloAKKKKACiiigAooooASiiigAopaKAEooooAls7ufTrxLu0bEi8FT0cdwa9G0rU4NVs1uIDjs6HqjehrzSpbW7ubC4FxZymOQdR2YehHegD1OisTRPElrqirFIRBdd42PDf7p7/AM62iQBknAFAhaKy73xDpdkSJLpXcfwR/Mf0rEuvGpORZWZ/3pmx+goA6+s2/wBe06wyJrlS4/5Zx/M35CuGvdX1LUMi4umCH/lnH8q/p1qiqKvQUAdNe+MbmUFbK2WEH+OU7m/LpXNPukmaWRy7sdzM3Un1paSi4xaSiigAooooAKWkpaACiiigBK6LwRZebeTXzj5YhsT6nr+lc3I21Ca9I8PWP9n6NbwsMSFd7/7x5NAGlRRRQIKKKKACiiigAooooAKKKKACiiigAooooAKKKKACiiigAooooAKKKKACiiigAooooAKKKKACiiigAooooAKKKKACiiigAooooAKKKKACiiigAooooAKKKKACiiigAooooAKKKKACiiigAooooAKKKKACiiigAooooAKKKKACiiigAooooAKKKKACiiigAooooAKKKKACiiigAooooAKKKKACiiigAooooAKKKKACiiigAooooAKKKKACiiigAooooAKKKKACiiigAooooAKKKKACiiigAooooAKKKKACiiigAooooAKKKKACiiigAooooAKKKKACiiigAooooAKKKKACiiigAooooAKKKKACiiigAooooAKKKKACiiigAooooAKKKKACiiigAooooAKKKKACiiigAooooAKKKKACiiigAooooAKKKKACiiigAooooAKKKKACiiigAooooAKKKKACiiigAooooAKKKKACiiigAooooAKKKKACiiigAooooAKKKKACiiigAooooAKKKKACuM8b6WkRTU4hgswSUevo39K7OqGt2f2/SLm2AyzJlf8AeHI/UU0B5sv3RRTYjlRng+lPpDEpaSloAKKKKACiiigAooooAKKKKACiiigApKXp1phk7KMmgB1IXUd800IzcsaeFA6CgCNgX6LViW5vbiNY7i7mkRRgKzkjFNoouAxY1XoKdRRQAUUUUAFJRRQAUUUUAFFFFAC0UUUAFFFNY4GaAL+g2X9o63BERmKM+bJ9B0H4nFelVzXgmw8jTnvHXElycjP9wdP6muloEFFFFABRRRQAUUUUAFFFFABRRRQAUUUUAFFFFABRRRQAUUUUAFFFFABRRRQAUUUUAFFFFABRRRQAUUUUAFFFFABRRRQAUUUUAFFFFABRRRQAUUUUAFFFFABRRRQAUUUUAFFFFABRRRQAUUUUAFFFFABRRRQAUUUUAFFFFABRRRQAUUUUAFFFFABRRRQAUUUUAFFFFABRRRQAUUUUAFFFFABRRRQAUUUUAFFFFABRRRQAUUUUAFFFFABRRRQAUUUUAFFFFABRRRQAUUUUAFFFFABRRRQAUUUUAFFFFABRRRQAUUUUAFFFFABRRRQAUUUUAFFFFABRRRQAUUUUAFFFFABRRRQAUUUUAFFFFABRRRQAUUUUAFFFFABRRRQAUUUUAFFFFABRRRQAUUUUAFFFFABRRRQAUUUUAFFFFABRRRQAUUUUAFFFFABRRRQAUUUUAFFFFABRRRQAUUUUAFFFFABRRRQAUUUUAFFFFABRRRQAUUUUAFFFFABRRRQAUUUUAFFFFABRRRQAUUUUAFFFFABRRRQAUUUUAebeILL+ztbnjAxFKfNj+h6j881RrtfGen/atL+1RrmW1+bgcle/+P4Vw6PuFDGOpaSloAKKKKACiiloASiiigAooooAKazhfrSO+Dgdf5Uip3NAAFZ+WNPChelLRQAUUUUALRSUUAFFFFABRRSUAFFFFABRRRQAUtJS0AFFFFABUllaNqOoQWaZ/eNhiOy9z+VRE4FdN4Gsd0lxqDjgfuo/5sf5ChAdfFGkMSRxjaiAKo9AKfRRQIKKKKACiiigAooooAKKKKACiiigAooooAKKKKACiiigAooooAKKKKACiiigAooooAKKKKACiiigAooooAKKKKACiiigAooooAKKKKACiiigAooooAKKKKACiiigAooooAKKKKACiiigAooooAKKKKACiiigAooooAKKKKACiiigAooooAKKKKACiiigAooooAKKKKACiiigAooooAKKKKACiiigAooooAKKKKACiiigAooooAKKKKACiiigAooooAKKKKACiiigAooooAKKKKACiiigAooooAKKKKACiiigAooooAKKKKACiiigAooooAKKKKACiiigAooooAKKKKACiiigAooooAKKKKACiiigAooooAKKKKACiiigAooooAKKKKACiiigAooooAKKKKACiiigAooooAKKKKACiiigAooooAKKKKACiiigAooooAKKKKACiiigAooooAKKKKACiiigAooooAKKKKACiiigAooooAKKKKACiiigAooooAKKKKACiiigAooooAKKKKACiiigAooooARlDKVYAgjBB715x4h0Z9GvMxgm0lP7s/3T/dP9PavSKgvbOC/tXtrlA8bjBH9R70AeWK2RTqt61otzos3z5kt2PyTAcfQ+hqkj5oGPooooAKWkpaACkpaKAEprttGadUR/eS47LQAIpJyalpOlFAC0UlFAC0UlLQAUUUUAFFFFABSUtJQAUUUUAFFFFAC0UUUAFFFFADWDMQijLMcAV6ZpFkun6ZBbAcovze5PJrifC9p9s1xMjMcI8xv6frXodAgooooAKKKKACiiigAooooAKKKKACiiigAooooAKKKKACiiigAooooAKKKKACiiigAooooAKKKKACiiigAooooAKKKKACiiigAooooAKKKKACiiigAooooAKKKKACiiigAooooAKKKKACiiigAooooAKKKKACiiigAooooAKKKKACiiigAooooAKKKKACiiigAooooAKKKKACiiigAooooAKKKKACiiigAooooAKKKKACiiigAooooAKKKKACiiigAooooAKKKKACiiigAoprMqjLMB9TUTXlqv3rmEfVxQBPRVQ6nYr1u4f++xTf7W0/8A5+4vzpXQ7Mu0VS/tbT/+fuL86UapYHpeQ/8AfYougsy5RVcX1o3S6hP0kFSrLG/3ZFb6HNMVh9FFFABRRRQAUUUUAFFFFABRRRQAUUUUAFFFFABRRRQAUUUUAFFFFABRRRQAUUUUAFFFFABRRRQAUUUUAFFFFABRRRQAUUUUAFFFFABRRRQAUUUUAFFFFABRRRQAUUUUAFFFFABRRRQAUUUUAFFFFABRRRQAUUUUAFFFFABRRRQAUUUUAFFFFABRRRQAUUUUAFFFFABRRRQAUUUUAFFFFABRRRQAUUUUAFFFFABRRRQAUUUUAFFFFABRRRQAUUUUAFFFFADJI0mjaOVFdGGCrDINchrPg4run0k+5t2P/oJ/oa7KigDyX545GjlRkdThlYYIp1eh61oVrq8eXHl3Cj5JlHI9j6iuCv7G60u5+z3abSfuuPuuPUGgZF2pRyKaDmlXuKAFooooAa7bUJpkK4TPc0k5yyr+NSAYGKACiiloASiiigAooooAWikooAWkopGcKRmgBaKKKACiiigAooooAWiiigAoPSimSkhDt6ngfWgDtvBFmItMe7YfNcOcH/ZHA/rXSVV022Fnp1vbAY8uNVP1xzVqgQUUUUAFFFFABRRRQAUUUUAFFFFABRRRQAUUUUAFFFFABRRRQAUUUUAFFFFABRRRQAUUUUAFFFFABRRRQAUUUUAFFFFABRRRQAUUUUAFFFFABRRRQAUUUUAFFFFABRRRQAUUUUAFFFFABRRRQAUUUUAFFFFABRRRQAUUUUAFFFFABRRRQAUUUUAFFFFABRRRQAUUUUAFFFFABRRRQAUUUUAFFFFABRRRQAUUUUAFFFFABRRRQAUUUUAFFFIxCgliAB1JoAWis+TV7YMUtw9y47QjIH1PSomuNRn6eVar7fvH/wAKXMilFmp0GTVWXU7KJtrXCM391PmP5CqJso5ObiSW4P8A01c4/IcVNGqRLtiRUHogxS5iuVDzqbv/AKiynf3fCD9ef0phudQfottCPclz/QU7mlpXY7IhK3b/AOsv5PpGir/jTTZo/wDrJbiT/fmb+lTk/jSYc9BSGQCws15+zxn/AHuf50ojto/uwRD6RipvJJ6tij7Mvck0WC5F5ij7saj8AKaZW9QPpVkQIP4RThGB0UUWC6KW5z6n8KTyy3VAfqKvbfalxSsFzPNqrdYYz9UFMOnQn/l2j/BcVp0UWDmZmDT1XlI5E/3JGH9aeIrhPu3N0v1fd/MVoUtOwXKSz3yHi4D+0kQ/pipU1C6X/WQRP7o5X+dTkZ7U0op6qKNRadgGqwA4mSWL3ZCR+YzViG8trg4hnjc+gYZ/KqpiXtkfSoJbOKUfvIkk+oGfzp3YuVGxRWGlvJbn/RryeH/Yf94n5H/GrMd9dR8XECzL/ftzz/3yefyzT5hODNOioILy3uSRFKpYdVPDD6g81PVEBRRRQAUUUUAFFFFABRRRQAUUUUAFFFFABRRRQAUUUUAFFFFABRRRQAUUUUAFFFFABRRRQAUUUUAFFFFABRRRQAUUUUAFFFFABRRRQAUUUUAFFFFABRRRQAUUUUAFFFFABRRRQAUUUUAFFFFABRRRQAUUUUAFFFFABRRRQAUUUUAFFFFABRRRQAUUUUAFFFFABRRRQAUUUUAFFFFABRRRQAUUUUAFFFFABRRRQAUUUUAFFFFABVa+sbfULZre6iEkZ9eoPqD2NWaKAPOda0K40aTeCZrRj8suOV9m/wAaygw8zIr1iSNJY2jkUOjDDKRkEV574j0F9Im86AFrNz8p6+WfQ+3oaa1AzqKRTlQaWkMgJ3TE++KmqBf9Z+NT0AJS0lLQAUlLSUAFFFFABRRRQAU2RcinUUARxEg7fyqSo8YkFS0AJRRRQAUUUUAFLSUtABVnSoPtWtWUBGQZQWHsOT/Kq1bngu383W5ZyOIIuPqxx/IGhAd3RRRQIKKKKACiiigAooooAKKKKACiiigAooooAKKKKACiiigAooooAKKKKACiiigAooooAKKKKACiiigAooooAKKKKACiiigAooooAKKKKACiiigAooooAKKKKACiiigAooooAKKKKACiiigAooooAKKKKACiiigAooooAKKKKACiiigAooooAKKKKACiiigAooooAKKKKACiiigAooooAKKKKACiiigAooooAKKKKACiiigAooqKeeK3iMk0iog7saAJaiuLmG1j3zyrGvqx61mTancT/LaJ5KH/AJayj5j9F/xqKGyBk82UtJJ/fc5b/wCt+FS5djRQ7k8mqTznbZQbR/z0mGPyXr+eKh+xGchr2Z7g/wB1jhR/wEcVYLJGMCmeZJIcIMVPqUlbYk/dwqFACgdAKZ5xY4jUn609LXnMhyanVABgCiwXRAsbnl2/AVKEqQLTttOxNyLZSiPPWpcUmQKYrjQgHQUu2kLntSEk96Vx2Y7gd6TIptFK4WHZFJn2pOaOaLjsFFFFFwsGKMUU4UANxRT8UEUxDKKcRTcUAIRSEU6mmgY000qp7U+kIpAQTW8c2PMUMR0J6j6HrSJJeW3+rkE6D+CU8/g3+NT0lAx8Gq28jiObdbyn+GXjP0PQ1erLkjSVCkiK6nqCM1Sa0vLX5tMvGjA/5Yy/Oh+meRT5ieRPY6KisG18QyLJ5Go2ckMo/ijG5T7gdcfnWxb3UF1Hvt5VkX/ZPSqTTJcWtyaiiimSFFFFABRRRQAUUUUAFFFFABRRRQAUUUUAFFFFABRRRQAUUUUAFFFFABRRRQAUUUUAFFFFABRRRQAUUUUAFFFFABRRRQAUUUUAFFFFABRRRQAUUUUAFFFFABRRRQAUUUUAFFFFABRRRQAUUUUAFFFFABRRRQAUUUUAFFFFABRRRQAUUUUAFFFFABRRRQAUUUUAFFFFABRRRQAUUUUAFFFFABRRRQAUUUUAFFFFABUc0MdxC8MyB43G1lPQipKKAPMtUsf7M1SezUlkXDIT12np/h+FVT0rpvG9uFu7S5H8atGfw5H8zXNGhjKvRzU6ncM1FKvNEbYNAE1FFFABRRRQAUUUUAFFFFABS0UUAJt+YH0paKKAEooooAKKKKAClpKWgArsPAsG2xupz/y0l2j6KP8A69ceeBXe+EYwmgQ4/iZm/WgDaooooEFFFFABRRRQAUUUUAFFFFABRRRQAUUUUAFFFFABRRRQAUUUUAFFFFABRRRQAUUUUAFFFFABRRRQAUUUUAFFFFABRRRQAUUUUAFFFFABRRRQAUUUUAFFFFABRRRQAUUUUAFFFFABRRRQAUUUUAFFFFABRRRQAUUUUAFFFFABRRRQAUUUUAFFFFABRRRQAUUUUAFFFFABRRRQAUUUUAFFFFABRRRQAUUUUAFFFFABTWZUUszBVHJJ6CoLu9itAobLyvwkSDLOfYf1qg9vLdHzdRYbBytsh+Uf7x/iP6Umykriz6q82VsUynQzPwv4etVUgMkoeRmml7M38P0HarJDTPhRgdPYCrEcYQYA/Go3NFaJHHCE5PLetDvjhetTFSeBTkiVeSOadhXK8dsW+Z+lWlQKMAYp1LTsS3cTFLiijmmIKQn0pcetLikAzBNLsPrT6PpRYdxnlj1pMKO9PwT1NGwUrBcj47CjBNSYA7UtFguR7DS7Pen0UWC4zYKXYKdn2pOewFFguJsFGwUhDnowFNKSH/lrQA8CjGKiMLH/AJaU027f3hQBNxRioPs7/wB4fnSGB/X9aBkxWmkGovLlXoT+dHmSqfmGfqKAHHNJmnrIrdRg0pUGgZFmkp5SmkUAJSUHPak3gdRikMZNBHOu2RQccg+hqrJAUkDsGYjpKh2yD8R1q8CD0NBGRgigdyGC/uoQN2LmP8FkH9D+laNteQXWRE/zr95GGGX6is2SEjlaiZFlK7xhl+6wOGX6GhNoTimb9FZMN9PbfLcAzxf89FHzr9R3+o/KtOKWOaNZInDo3IYHINWncyaaH0UUUxBRRRQAUUUUAFFFFABRRRQAUUUUAFFFFABRRRQAUUUUAFFFFABRRRQAUUUUAFFFFABRRRQAUUUUAFFFFABRRRQAUUUUAFFFFABRRRQAUUUUAFFFFABRRRQAUUUUAFFFFABRRRQAUUUUAFFFFABRRRQAUUUUAFFFFABRRRQAUUUUAFFFFABRRRQAUUUUAFFFFABRRRQAUUUUAFFFFABRRRQAUUUUAFFFFAGD4yg83RfNA5gkV/w6H+dcPXpeqwC60u6hP8cbD8cV5mpyBQNDJFyKg5Bq1UUiY5FACRvj6VLVYcGpUfHBoAkooooAKKKKACiiigBaKKKACiiigBKKKKACiiigApaSloAQ/dNeg+FSD4ds8f3SD+Zrz/tXZeBrjzNKlgJ5hlP5Hkf1oA6WiiigQUUUUAFFFFABRRRQAUUUUAFFFFABRRRQAUUUUAFFFFABRRRQAUUUUAFFFFABRRRQAUUUUAFFFFABRRRQAUUUUAFFFFABRRRQAUUUUAFFFFABRRRQAUUUUAFFFFABRRRQAUUUUAFFFFABRRRQAUUUUAFFFFABRRRQAUUUUAFFFFABRRRQAUUUUAFFFFABRRRQAUUUUAFFFFABRRRQAUUUUAFFFFABRRRQAVTurtxJ9mtFDz9WJ+7GPVv6DvSzztJI0Fu2GH35P7vsPemxoltH5UQ5zkk8kn1J7mkykiOKBLYs+4y3En35W+83+A9hSPl2wTk96kJ2gnvRGvGe5qSwRAowKkC0oXFDMF6mmTcUClqLzsnCgmnAM3J4oAdkClGT2xQFApaBBS0dKY0qL3yaAH0EgdaqveIjbWZVP93qfyoVppDlYWA9X+X9OtFwsWsiimKjY+YjPtTto780ALS0nTpS0xBSUtFACUfhS0lAxMGk2mnUhPvSAbtPrTSpHcfnTyAe9N2ClYpMYKeDSbPejaRSHox2felFMFOBpktC4pKXNFMQwqD2oxjpTsUmKBiUhUGnYooAhZCKYRngirGKay5pWGmVWi7ofwNN3spwR+dWCpFNZQwwwyKRVxiyKfY02WPPzKPrUMsE0Z3RHzV/unhh9PWmRXQOQDgj7ykYI+opXKt2HpMhkePDqUGfmHb1BHalVZIX860YKzcsp+5J9ff3FMlAkIZSY3U5V16qfUf4d6ntDHdlkJFveKMsFHyyD+8B3H6imhPQv2d5HdKQAUlX78bdV/xHvVmsS4heJ1eT9xKn3Jl5X6Z9PY/nWhZXn2jMUqiO4QZZexH94eoqk+5k11RboooqiQooooAKKKKACiiigAooooAKKKKACiiigAooooAKKKKACiiigAooooAKKKKACiiigAooooAKKKKACiiigAooooAKKKKACiiigAooooAKKKKACiiigAooooAKKKKACiiigAooooAKKKKACiiigAooooAKKKKACiiigAooooAKKKKACiiigAooooAKKKKACiiigAooooAKKKKACiiigAooooAKKKKAEIyMGvLLiI297cQHrHKy/rXqlee+K7f7N4glYDCzqJB9eh/lQBlUhGRS0UDK7rtNIDVhlDDFV2UqcGgCVG9afVdTipEfsaAJKKKKAClpKWgAooooAKKKKACkpaSgAooooAKWkpaACtnwbeC21p7djhblMD/eHI/TNY1NLPFIksTFJEYMrDsR3oQHrNFZegaumr6eJSAs6fLKg7H1+hrUoEFFFFABRRRQAUUUUAFFFFABRRRQAUUUUAFFFFABRRRQAUUUUAFFFFABRRRQAUUUUAFFFFABRRRQAUUUUAFFFFABRRRQAUUUUAFFFFABRRRQAUUUUAFFFFABRRRQAUUUUAFFFFABRRRQAUUUUAFFFFABRRRQAUUUUAFFFFABRRRQAUUUUAFFFFABRRRQAUUUUAFFFFABRRRQAUUUUAFFFFABRRRQAVRu7l2l+y2x/eH77/8APMf40+9uWi2wwANcSfdB6KO7H2FRwxLbR7FJZzyznqx9TSKS6jo40t4hHGPqf60meTQTSquakoAu6pQMCgDFQXMjAbI8b24Ge3vT2FuJNdBXEcY3yEZCjr9fYU1YJJG3Tv8A8AXp+J706CBIFIXJZuWdvvMfU1ZUYFLcd7CIioMKABTqDgDJqGW5VTheSegpk7kxIHU1DLdJGpORgdycCoSk0x+Y+WPfk/l/jUkdtEjBtu9x/E/JH+FIZD5s9x/qoyVP8TfKv+J/KnLZluZ52b/Yj+Ufn1NW9pPU04ACnYLjIYYoVxFGqfQcn8akoopkhRRSUAFJnHalyPUUm5fWkMN1G6gstNJQ+tIdhd9G+mHHakpXHYkLA0mRTKKLhYcfY0nzetJS0XCw0lh70nmMOq0+lxQBCbgg/cyPrim/bIh99XT3K8fmKnMYPUA1G0C9gR9KNQ0HRzRyf6uRW+hp+6qclmrclVY+4wfzpnlzRD5JHUeh+YfrRcdkX8n1ppfHWqYuZk+/Gr+6HB/I1It3C3DMUPpINtFw5SfzV704Mp6GomUMM/qKjMbLyOfpTuKxaoqms7KcGpkuFPXii4WZKQKYydxTwwYetBX0OKYrkOKhuLaK4wXBDj7rqcMPxqaQlPvLx6ikDq3Q1JZmSrNacy/PF/z1UdP94dvr0oYCXYyuUkX5o5F6qfb1HtWpWfcWWwl7XC55MR4Vj7f3T+lKxSfcu2GqJcP9kuwsdzjp/DIPVf8ACnXWnHbvs2EcqZaMH7oPt6A9x0rDmUXKFSNssZ4DjBU+h9q09M1RvL23DFkBwWb70Z9G9frTUr6Mlwtqi9p18L6AkoYpkO2WNuqN/hVysu7VoL1Lm3G5nXO0f8tMdV/Ecj3HvWjFKk0SyxtuRhkGrRk11H0UUUxBRRRQAUUUUAFFFFABRRRQAUUUUAFFFFABRRRQAUUUUAFFFFABRRRQAUUUUAFFFFABRRRQAUUUUAFFFFABRRRQAUUUUAFFFFABRRRQAUUUUAFFFFABRRRQAUUUUAFFFFABRRRQAUUUUAFFFFABRRRQAUUUUAFFFFABRRRQAUUUUAFFFFABRRRQAUUUUAFFFFABRRRQAUUUUAFFFFABRRRQAVy3jm032kF2o+aJtrfQ/wD6q6mquo2ovbCa3P8AGuB9e1AHmKnIpaaUaGZ4nGGQkEelOoGFNZQwxTqKAKrDBxQDUsq5GahpgTRv2NSVW57GpkfsaQD6KKKAFopKWgAooooAKSiigAooooAWiiigApGGVNLRQBNoupvpOopcDJjPyyr6r/iK9OilSeJJYmDI4ypHcV5Lgbyp710/hDWvs0g026b92x/dMf4T6fSmI7aiiikAUUUUAFFFFABRRRQAUUUUAFFFFABRRRQAUUUUAFFFFABRRRQAUUUUAFFFFABRRRQAUUUUAFFFFABRRRQAUUUUAFFFFABRRRQAUUUUAFFFFABRRRQAUUUUAFFFFABRRRQAUUUUAFFFFABRRRQAUUUUAFFFFABRRRQAUUUUAFFFFABRRRQAUUUUAFFFFABRRRQAUUUUAFFFFABRRRQAVDdXC20W8gsxO1EHVm7AVJI6xozuwVVGST2FUYy0j/a5lIJGIUPVF9T7n9BxSY0riIjQbnkYPcy8uw6D0A9hTwMD3pBln3HrSSnbGx9qk0HJ83epgMVWtyPKJPHvU6yBzhQSO5oQmP6DNVY/nuJHPRPlH16n+lWiPlNRQxbVx6ksT9abEh8a96SadIVJYjilldYYixOAB1qvFCS/nSjLn7in+Af4+poATE05zITGvYfxH/Cp4oVQfIuM9T3P41IqgcnrTqQXECgUtIT6UY9TTEBYCmmQ9hTtopNgPelqNWGb29aNxPeneWPWjy/elqO6G0U/Z70bKLBcZSU/YfSjafSiw7jKKdtNJikFwzSUuKMUAJS4oxS4oC4mKUCjBFAOO2aYC4pQKAyn2pwAPSnYm4lJTsUU7CG4FIVp+KQqDRYLkLRK33gDULWoIwp49DyKstFnvUZgbt/OlYpMpNA0J43R+6Hg/h0oElwn3WWQen3T/hVzZIB1NRNFz0x9KmxVyH7TGx2zKUb/AGhj9elKYwRlGz9aUocYIyPQ1F5AX7mY/wDd6flQMUO6HqRUyXJ6NUX7wdVEg/2eD+RpB5bnapw3908H8qA0LiyBh1pjxKeRwar7GXkU9ZmHDDNMVhS7R/e6U5ZFfg8expQyuMfoaikt+8Zx7HpQMZd2qzANkq6j5ZB1HsfUe1Zrb4Z95G2QD5wvR1H8Q+npWkk7Rna4/A0k0UcycZxnPHBU+opDTsRl3W38yEhlXEmzPAI5yv4Z4rQtpFhuQqn/AEe5+ZP9l+pH4jn65rHiY2s6wykeW5+RgOM+n/1q0LVDcaaId+14yUDj+FlPyn+VNMmSNiis2w1QTlYrpPJuMlcfwsR1wfX2rSq07mTVgooopiCiiigAooooAKKKKACiiigAooooAKKKKACiiigAooooAKKKKACiiigAooooAKKKKACiiigAooooAKKKKACiiigAooooAKKKKACiiigAooooAKKKKACiiigAooooAKKKKACiiigAooooAKKKKACiiigAooooAKKKKACiiigAooooAKKKKACiiigAooooAKKKKACiiigAooooAKKKKACiiigDiPGmm/Z7pNQiX93MdsmOzdj+Nc8pyK9QvrSK/s5bWcZjkXB9vevMbq2l069ltLgfPGcZ7MOxH1pjEooopAIwyCKrEYNWarv940ANpwNNoFMCwjZFPqurYOanByKQC0lLRQAUUUUAFJS0lABRRRQAtFFFABRRRQBFKMENTmXeuR1pzDKkUyI9VNAHc+E9bOoW5tLp83cI6n/lovr9fWuiryiKaazuY7q2bbLGcg/0Psa9J0jU4dVsEuYeCeHQ9UbuKYi9RRRSAKKKKACiiigAooooAKKKKACiiigAooooAKKKKACiiigAooooAKKKKACiiigAooooAKKKKACiiigAooooAKKKKACiiigAooooAKKKKACiiigAooooAKKKKACiiigAooooAKKKKACiiigAooooAKKKKACiiigAooooAKKKKACiiigAooooAKKKKACiiigAooooAKKKKACiiqd7M7MtrA22RxlnH/LNO5+vYf8A1qBpXI5XF5MQebaFvm/6aOO30H8/pSsS7ZNJhERY412xoMKKcgzUF7CgYqO4I2Ed6lYHHy8H3qvKIxnPzOaGNDEy4SPtWgoAUADArPhcI2T6Yq3E7uOMD60IJE1LTSwRcu34mojcE/cAA9Wp3IsNnTzbiNDyi/Ow9cdB+f8AKp1HOTUCuWYlVLMepPAqTaxH7x8ewpDJC6jqRSb89AT+FMAUfdUmly59B+tAWHg+2KM0zB7ufwpQMdz+dMLDs00rnocUtFADCJgflYH2NYl/4pgs7hoViaZ0OHKMAoPce5rR1lpk0qc280UEhXAklbaAO/PrXm4Zfur29ORQB3UHi3TJAPNd4CePnXj8xWvb3ltdLm3njlH+wwNeXEBuD0pseYnHk7ldjxszuP0xzQB6yOaWuO0u51qMA3VwBH2jkXc/4ntWvHq8q8SR591P+NFw5TaorOj1eBvvEp/vKRVmK9glHySK30YUXQrMnwD2pNopPMXucfUUoZT0YH8aA1DaPWjb70pGelNLMvUZFAC7aaVppuVB+ZG+o5pUuYXOBKob0PB/WloPUMU1kJ5U4NTEe1JiiwXIN8idc0C59QKnxTGiRuq/lRqPQBcIevFOEiH+IVC1uOzEUwwOOjKaLsLIt5B6HNFVPJk9vzp6pKv8X60XFYsUYB6io1MnenjPqKYhNintTTCpqTNFAFVofQVBLCGGHUMPQir7AGmH0PNKxSZn7HT/AFch/wB1+R+fUUGUL/rlMf8AtdV/P/GrUiLjIH4VATjpUlDcdx+BFOWUjg1AVCnMRMZ9vun8KaZSv+tXb/tLyv8AiKCrFs7JRhhUDxPEcqcikBPUHIPcVKk3ZhmgWxVmRLiIpIuVbr/iPenaOzxzXNtM+5siRW/vqRgn68c1LNb/AC+Zb4Pqh6H6ehqtzJteFtssRyu7se6n2P8A9ejZj3RauolFyQygx3AyQf74/wAR/KrMUs9oMOWntx/F1dPr/eH61BLIbvT2kiQ+bGd4TuGXqP5/nUtndxzxJJG4ZG+6w/l9atEPVGhHIksYeNgytyCDwafVExMjmW2YI5OWU/df6+h9xU8FysrFGBjlA5Ruv1HqPeqM2ieiiigQUUUUAFFFFABRRRQAUUUUAFFFFABRRRQAUUUUAFFFFABRRRQAUUUUAFFFFABRRRQAUUUUAFFFFABRRRQAUUUUAFFFFABRRRQAUUUUAFFFFABRRRQAUUUUAFFFFABRRRQAUUUUAFFFFABRRRQAUUUUAFFFFABRRRQAUUUUAFFFFABRRRQAUUUUAFFFFABRRRQAUUUUAFFFFABRRRQAVjeItCTWLYMhCXUY/due/wDsn2/lWzRQB5KwkgleGdDHIhwyt1Bp2Qa9E1bQbHViHnQrKBgSIcH/AOvXH6j4V1Kxcm3X7XD2ZOGH1X/CgZlM20VXJyc0shZHKSgow6qwwfyNMLD1FAC0VJbwTXL7LeGSVvRFJrbsfCGpXQDTbLVD/f5b8hTAwVBY4UEk9gM1LG3Y16Po+gWekoDGvmT45lfr+HpXHeKdNOnas0iLiC4+dMdAe4/r+NAGdRSKcilpAFFFFABRRRQAlLRRQAUUtJQAUUUUAFQt8smampkgytADuoq9oOpvpGpq2SbeUhZV9uzfUVnxnK49KV13DFGwHrCsGUMpBBGQR3pa5Lwfre8DTLpvnX/Usf4h/d+tdbQIKKKKACiiigAooooAKKKKACiiigAooooAKKKKACiiigAooooAKKKKACiiigAooooAKKKKACiiigAooooAKKKKACiiigAooooAKKKKACiiigAooooAKKKKACiiigAooooAKKKKACiiigAooooAKKKKACiiigAooooAKKKKACiiigAooooAKKKKACiiigAooooAKKKKAIriYQRF8bmJwqjqxPQVR/491YO2+eQ7pCO57AewpGuPPladeVUlIffszf0H/wBeiOPByclj3qGzSKsKisxy35VYAwKjV40PzyIv1YU7zY2OFkQn0zQgYSEiMkde1Q+SkabpOTVkpvXB7HNNaLedzdB0FAJlELzVz7QiRAIOfSoZcLIc1EBk1OxW48s8z92NWY7YAZkOT6VFG7IMRqPriplebHzIMetNCZL0GBwPajAopKZIUUUUDDNVr/ULbToBLcuQCcKqjLMfQCrNcLr10bvWJ2zlIj5UY7ADr+ZpiLd34pvZHItUjt4+24bm/wABWcutanDP9oW5eWQAjbIcrz7dKqMQoJJwB3qPmTnlU9O5pgMurm71GXfeTyTMOm48D6DoKQIqD+ZqeOKSaVYYI2kkb7qIOf8A6w966LTvD0cO2a+2zSjkRjlE+v8AeP6UBYxLDSbm/AkA8mA/8tXHLf7o7/XpW/aadb2K/uE+c9ZG5Y/j2+grTZc1FKUijaWV1jjX7zMcAUiiuUqC6mgtE33Eixg9M9T9B1NZ1/rxbKaeuB/z2ccn/dX+prFfc8hkkZnkbq7HJNAXNG51x2ytpEEH9+Tk/l/jWXLLLNJ5ksru/qT0+lLtywUAlm6KBkn6CtW08P3M2Guj9nT+6OXP9BQIzodSvrYjyryZc9Buzn8K27LUtffBYRbP71wmD+Q5q/a6dbWY/cRBW7ueWP41MY6Qx8ep3Cgb442PfaStTrqy/wAccq/TDVSlCQxmSV1jQfxMcCsu41q2j4t0advX7q/metFg0Oj/ALUtT96bb/vqRT/tVrKMGaFh6Fh/WuGn1S9myBKIV/uxDH69aosuTuckn1Y5NFguj0lEjX/UytH/ANc5OPy6VKHvF+7Ikn++mP1FeYgkfdLfgcVIJ7lPuTyJ9HNFhXPTPtky/wCstCfeNwf0OKX+0bcf6wSRf78ZFebprGq2wAW/nAIyN3OR+NTr4p1lBj7Sh9zEKNQ0PRUuraT7k6H/AIFUmVPRhXnMXiPVbmZIglrK7nAzAM10ypKeY2x/urx/Ok3YajfY6Dj1H50mcViBL3/nsPxFPC3uP9bF/wB8f/XpXHyeZsbxSGQCsjZe/wDPxGP+2Ypdl5/z8L/37FFw5TUMgPcfnTC6j+Os7y7vvc/koFIYLg9blx9CB/Si4cpoGZfU0hmFZptbgdLub/vof4Unk3Y6XLfiFP8ASi4+VGgZfQVExJOaptHfAcXC594xUDyakhx51qfZojk/kaVylHsX2BNNwQarwDW5Dxa223+8+5KvJZ6g/wDrp7aH/rlGXP6mnuJuxAIsHKfKfYcH8KeQw++u337fnVpNPQD95cTyn3baPyFO+x2UfWCM/wC98386dieYoi4RDjzUB/3hUcksMrb0lCTAcNtJDD0OO1aP+jxjEcaL/uqBTjOzDAQmiw7mbDOY5FuEjlG4hZY9h/Bh64/UVXht1tRI8LSwOJG4eNjHKucjIxweeorXJn7A05ROw5Zh+NKwXKlrq1uxCPMiP0Mbtgj6Z6itBliuYwThgOVYHlT6g9qry2S3HE8ccn++AagGjRxNvtS1s/rC+B+IPFUmyXZl9ZprfiUGaL/noo+ZfqO/1H5VZjkSVA8bBlPQg1mb7625dUuFHXaNj/h2P6VNF5c48+2kKMTyyjqfRl9f1qkyXE0KKpG8kt/+PuL5B/y1jyy/iOoq1HIkqB43V0PRlOQaZNh9FFFAgooooAKKKKACiiigAooooAKKKKACiiigAooooAKKKKACiiigAooooAKKKKACiiigAooooAKKKKACiiigAooooAKKKKACiiigAooooAKKKKACiiigAooooAKKKKACiiigAooooAKKKKACiiigAooooAKKKKACiiigAooooAKKKKACiiigAooooAKKKKACiiigAooooAKKKKACiiigCKa2guBieGOUf7ag/wA6gTStPjOUsbdT6iIVcooAaiKi7UUKPQDFOoooAKzde0xdV0ySDA8wfNGfRh/nFaVFAHka7kYo4IZTgg9jUtbXjPTRaait5GuI7n73s4/xrEQ5FDGLRRRQAUUlLQAUUUUAFLSUtABSUtFACUnWlooAhHyPipaZKOM05DlaAEYMrLIjFXU5BHUGvQfDesjVrICQgXMQxIB3964CpLK8m0y9juoDyp+ZezDuKEB6pRVexvIb+zjuYGzHIMj29jVigQUUUUAFFFFABRRRQAUUUUAFFFFABRRRQAUUUUAFFFFABRRRQAUUUUAFFFFABRRRQAUUUUAFFFFABRRRQAUUUUAFFFFABRRRQAUUUUAFFFFABRRRQAUUUUAFFFFABRRRQAUUUUAFFFFABRRRQAUUUUAFFFFABRRRQAUUUUAFFFFABRRRQAUUUUAFFFFABWZr179ksdiFvNnby12DLD1IHsKuzzeUoCjMjcKP89qplT5pkc75cY3eg9B6CkyorW5Vt/PeNdkAto1UKgkO5gB7Dj8zU32VX/1zyS/7zYH5CpqUVBpcRI44hiOJF+iingAkZUH6io5JEjGZHVB6scUxLyBj8hkk/wByMn+lAi8OlJIwVCWPFNR1ZAyZ59RiqtxJvbA6Cm2Slcidi8hNWbaJCCWGSKIoAEyw+ZqW3JDMp64pJFNk/ToMUUUw5WmSkPpMj1pu/wBRTTg9DSuVYkorOvtVttO2id23sMqiDJI/pWBqXiK4vI/Kt1a2jP3mDfO3tkdB9Ka1E9DsGYRqXdgiqMlmOAB6mvONXurSa/Y6ZEYoBwMZ/eHPLAHoKbd3l5JbratcSvAzZ8stnJ9z1x7dKiiiEfJ5c9T6VQgCFiGk5PZew/8Ar1f03S7jU3Plfu4FOHnYZA9lHc/pVrRdFbUcXFxuSz7Y4M309F9+/autREjjWONFRFGFVRgAe1ICrY6fbafCY7ZMZ++7cs59z/SpytLNJHDE0szrHGgyzscAVy+qeIZbnMVhugh6GU8O/wBP7o/X6UDNPU9YttPJiA8+5/55KeF/3j2+nWuWvbu4v5RJdSbsfdQcIn0H9etRBQowBiprW0uL2UxWsJlcfe7Kv1PagCscAEscD1NaWn6HdXoEkgNtAedzD5m+i/1Nb2m6Bb2ZWW4IuLgcgkfIh/2R/U1qkZOTQBn2em21iuLaLax+9I3LN9TVjy6fczQ2kJmuZVijH8THr7D1rnb/AMRSy5SwQwp/z1cZc/QdB+PNAGxd3FvZJvupVjB6A8s30HU1hXniB3ytlD5Y/wCekoy34L2/GsiRvmMsrlnbq7nLGovMeQ7Yxt9z1osFySeR55PMuZWkf+85zj6elRFwfugn3p32cEZLEt60+3nFtcRNJEJQjZZfUf496YhiQXE/+pjZv91Sf1piKpYqQd68HNdlA63McbQOGRxlSOBUdx4Z+3TmeOYQuRhztyGPr9ahSuW42OU21paPpLXriaVf3Cn5Qf8Alof8P51tW/hBQ+bm68xR/Aq7c/U1vQ2ccQC4G1RgKBgU35CVupz2saI97aDaB5qDMbYwPp9K5+Dw3qcz4NuY17s3T/69ek9qAfQ0LQG76nO6ZoEdgmQhaQj5nI5P+ArS2MoxtIH0rQoyaVh8xnHI7Uma0qTaPQflRYOYz8+9KDV47FGW2ge4qJrlRxGoPuRRYLkABPY/lSUk10ePMfr0Ud/oKVLe5m7CBPVxlvy/xpDt3Gu6ou52AHqTTYxNcH9xCxU/xt8q/wCJ/KrsNjbxMHKmSQfxyHJH07D8KtbwPenbuLmtsinHpxPM8pP+ynA/PrVmOGC3/wBXGqn1A5P40M5Pf8qZtZunFVotiW292PklVRycVCZmb/VoT7mpVtlByRk+pp5QAUai0K2yV/vPtHoKUW6DrlvqamxSUh3GhFXooFOpajeaNPvMPwpiH0VTbUFJIhRpT/sjP/1qja4vn+7HHH/vNn+VK5SizRorJdr7HNyik9NqZ/maQQa0wyl1GB/txY/rSuPkNiqtxatvNxaEJPjkH7sg9G/oaqD+2YVy7RSfReDV60uluVYFTHIhw6N1H/1qdyWmtRtteJMOQY3B2srdVPpS/ZURzJATA5OSU6N9V6Gm3lqznz4APOAwVPAkHoff0NQ2t2rqfKbcFOGRuGQ+hHanfuFr7FsXZiO26UR+kg5Q/j2/GrQORkdKrLKjjHr2NRiF4Dm1YIO8TfcP0/u/hx7UyWi9RVeG7SR/KcGKb+43f3B7irFMkKKKKACiiigAooooAKKKKACiiigAooooAKKKKACiiigAooooAKKKKACiiigAooooAKKKKACiiigAooooAKKKKACiiigAooooAKKKKACiiigAooooAKKKKACiiigAooooAKKKKACiiigAooooAKKKKACiiigAooooAKKKKACiiigAooooAKKKKACiiigAooooAKKKKACiiigAooooAKKKKACiiigChrenrqmlzWx++RujPow6V5km5WKuMMDgg9jXrlcD4x077HqYu41xFc8n2cdfz60AY1FIpyKWgYlFFFAC0UUUAFLSUtABRRS0ANpKcaSgBOoqNfkfb2NSU2QZGfShAPpCMjFIp3LmloA1PDOtHSLzyZ2/0OY/N/0zb+99PWvQwQRkHINeTuoYV1ng3Wi4Gl3TZdB+4Y91/u/h29vpT3EdbRRRSAKKKKACiiigAooooAKKKKACiiigAooooAKKKKACiiigAooooAKKKKACiiigAooooAKKKKACiiigAooooAKKKKACiiigAooooAKKKKACiiigAooooAKKKKACiiigAooooAKKKKACiiigAooooAKKKKACiiigAooooAKKKKACiiigAooooAKQnAyaWq12/Cwg4MhwfpQNakUeZZGnb+LhfZaaxySalchI8DjPAqDOBUs0Q4darbprx9tq4it1OGnxksfRP8abJvunMKErEP8AWuOp/wBkf1ParigBVRAFVRgAdAKkY2O1t4jlY9z/AN9/mY/iasruI5PFRqOalFNEsjnfZHgdTxUEUW6XB6L1qVhulz2XgfWnxrgufU0BshznGMCmFcsHXqOvvT26UzOOlAIfRTScjI6ihW9aLjsBQHpxTMEHBFS4oZlRC7kKijcWJwAPWlYLnAapcm71K4mz8u7anso4H+feqbtt7ZJ6D1ps08f2qRbfdJCXPls3BIz1NKAEBZzknqf6CrJAAIC7sM9z6Vv6N4fM4W51FCsXVIDwW929vb86saHoXllby/T971ihb+D3b/a9u1b5PNIBegAAAA4AHaqmo6hb6db+bcE88Ii/ec+g/wAe1RarqsOmRDcPMncfu4geT7n0HvXG3NxNd3DXFy++VuM9Ao9AOwoAm1DULjUpg9wQEU5SFT8qf4n3qqTgZJxQAWZVVWZmOFVRksfQCul0nw8sRWfUVV5BysHVU/3v7x/QUwM3StEn1ALLKWgtT0bHzyf7o7D3P4V1ltbw2lusFvGI4l6KP5n1PvUpOetVr6/ttOiElzJtz91Byz/QUhlnGaw9S8RwwForFVuJRwZD/q1P/sx+nFY2p6xc6llG/c23/PFT97/ePf6dKzXkWMY6nsooETXE811MZ7mVpZP7zdFHoB0AqDeXOIhn/aPSm7Hl5c4X+6Kd/qTnOVPb3pgKsIB3MdzeppwhkZJJoVLBBlz/AAgVqaHDZX+UYbrheXWToB/sjvXQNYRGExqoC4xjsRUuRaiji4yWRWI5IpUg+0zCOOIyynsvb6ntW/B4aUNie5YoOipwce5rbtLWC0jEdtEEUeg60XFy9yjoOiTWUZMzjDtu2Dov0rfyqjGQAKg2SN1z+JpwgH8TZ+lIGOadB3J+lIJJH+6mB6mnKir0UU6mIZsJ++xPtT8ADA4oo7ZoAKUVC9wi9PmPtUD3DvwOB6Ci41FstPKifePPoKhe64+Vce5qoZAG2DLP/cQZP/1vxqRLaWTmRvKX+6py359vwpXK5Utxksw3AMSznovUn6CnJbTy8ufJT06sf6D9atQwRwgiJAuep7n6mpgMUrBzW2Ire2it8lF+Y9WPLH8alzRR1qiAoCs3TpTlA7Dcf0qQZ7/pTsJuw1YwKeBigkCmGT0pk6seeKjZx2qCS4VTycn0FVXvyX8uFC8n91Bkj69h+NS5FqBdZ1UZYgCqs9/HFxkA+/X8utVLnz0UNcSbWc4WKI5Zvqx6D6CpLeFIlyqKpPp3/E8n8am9y1FDWmupz8sbBfWQ7R+Q5py269ZW8w+hGFH4f41NVOW88vUo4CRtaMn/AIFnigpeRcHTA4HpSojSNtT8Se1MV1boat2rqIsEgNk5z3poJNpD4oEi5Ay3dj1qSk3r/eX86rzXscZVQcsxwPeq2MrNsskZGKoXUbW8y3UYJKcMB/EvcfXuKv0jKGXBoEnYRXV0DoQysMgjuKytU0/M32+BSZVGJVThnUdx/tD9RxU9tmzujatxFKS0R7K3dfx6j8av0tx/CzGSZyispWZGGQehI/lU8V6AQpbB/uvwabewC1YzIMQMfnA/5Zk/xfQ9/wA6hccYIyvoeaNh3NB/Iuk8uVc9wDwQfUGhHubXg5uYfX/lov8A8V/OsxUx/q3ZPYcj8jU0dzcxdVWVfY4P5GncLI2IZ4p13ROGx1HcfUdqkrIF3ayyAy7oJuzH5T+ferqzSoMsPOT+8nX8v8KdyHEtUVHHLHKMxsGx19RUlMkKKKKACiiigAooooAKKKKACiiigAooooAKKKKACiiigAooooAKKKKACiiigAooooAKKKKACiiigAooooAKKKKACiiigAooooAKKKKACiiigAooooAKKKKACiiigAooooAKKKKACiiigAooooAKKKKACiiigAooooAKKKKACiiigAooooAKKKKACiiigAooooAKKKKACiiigAooooAKzfEGn/2lpM0Kj94Bvj/3h/nFaVFAHkkZ9Rj2qStDxNY/YNakCjEc37xPx6j86zhyKGMKWiigAooooAKWkpaACnU2nUgENNNPIppFADaOtLSUwGL8r7fWn02QZGR2pynIzQAUmXjdZYmKSIdysOoNLRQB6H4f1dNWsQ5wtwnEqeh9foa1a8tsL6bS71LqDtw69mX0r0mwvYdQtI7m3bKOPxB9DQIs0UUUAFFFFABRRRQAUUUUAFFFFABRRRQAUUUUAFFFFABRRRQAUUUUAFFFFABRRRQAUUUUAFFFFABRRRQAUUUUAFFFFABRRRQAUUUUAFFFFABRRRQAUUUUAFFFFABRRRQAUUUUAFFFFABRRRQAUUUUAFFFFABRRRQAUUUUAFFFFABRRRQAhOBk1lxO1xqsjfwRRjH1b/6w/Wr1ySVWIdZDj8O9UdOIeOe4HSWZiv8Auj5R/Kl1LjsTytl8dhVOZ2dxFEcM3Of7o9f8KfPMI4y3J7YHUn0ot4jGhL4MrnLkevoPYVD1NFoSxRrGgRBhR0qUcDHc0wcGnUCY9eKeThS1MXrinkZpksaq42j0GTT6apyzH3xS0AFRng4p4OSRSOMjPpSY0MzRmkoZlRS7fdUEn6CpKOc8T6lJ5v8AZ0TlUUAzEH7xPRfp3Nc9c310bNbDzmNrncI/U+mfTPanzTNPLJO5+aRi5P1qEcne3GOmew9a0RmJGgiQs5Ge59K6nQNFMJS9vU/e9Yoj/wAs/wDaP+1/KovD2j7tl/dpx1gjYf8Aj5H8h+NdITQAE1lazrMenL5UQWS7YZCHog9W/wAO9R63rYsc21qQ12RyTyIh6n1PoK5MklmZmLMxyzMclj6mgB0kkk0ryzSNJK5yzt1P/wBb2p1tbzXdwsFtH5kp5x0Cj1J7Cn2FjPqNx5NuAMcvIfuxj39/QV2dhYwadb+Tbr15dz95z6mmBBpOkQaau/Pm3LDDTEfoo7CtAc8UySRIYmlldUjQZZmOABXLatr0l4Ggsy0NseC/R5B/7KP1NIZpar4gjti0FltmnHDOeUjP/sx9q5iWWSaVp55Gkkb7zuef/rD2qJmWJQOnooqIhpXAkOFxnHtTEP8AMaQ4i4Hdj/SnJEqc9T6mr1rp0kgVpP3ER6cfMfw7fjWpDoEUy/KJf94vU8yKUXuYNNZFcYYdK3z4YmLfLcKB7rzVyz8M26MGuXabH8PRTTugsyHwpYeWGvWQBWXZGMdR3NdIAh7CmqiqoVQAoGAB2oxUXHYfhQeg/KnCosU3b7kU7isWMUhquUb++aQxE9XJouHKWC6r1YD8aja4iH8WfpUJhI6KT+NIsLH+DH1IouOyHtdf3E/E1DI7sMyOAPyFTC3/ALzgeyj+ppywxKchMt/ebk0BfsVVVn/1cbP/ALR4X8zUi2pb/XSEj+4nyj8+pq3gnrRikFxkcaRrtjUIvoBUgWlC0tNIlsTpRRSgAdaYCAFugp6xgfeOaPMx0ppc9zimLVkpYKKjaQ9qhedF6fMfaq7zM3sKTY1EsSTKvuap3N5tA3tjdwqqMlvoO9Q+ZJcNtt+R3kPQfT1/lVuC2itnyoMk7dXY5P8A9YVDZdkitHaXF1gzE28X9xT85+p7fhVlmgsIGSJVjRRlj6f4mrDSLGGLMAqDc7HtWNDOmquZ1JFvG3ygjG4/3j/SnbS4J3eo+FXuJzPKCCeFU/wr/ie9XaqvcpGQWZUQepxmmfbJrg7bOEsP+ej/ACqP8fwoNGie4uEt0yeWPCqOpPpVePT0lDSXUavLJ1z/AAD0H+NTwWqQt5srmWY/xkdPYDtUjS+lBN+xWNjLGB5N22B2lG79etM8u+BxvtmH0YVZwzHuaRPMlJFunmEcE5wo/H/CkHNYgEV4eksCf8BJqskE0erxG5mMxKEq2MAfQVqm2uo0DMqS+oj4I+metVb0KYVuIzl7dtzLjDbe4x+v4U7ApXNqNg8asO4p1ULW5ATOcoecj+dXwQRkHINUmZSVmRXVutzCY2yPRh1B9RUVpOz7oZ8CeP73bcOzD/PWrVVruBpNs0JCzxcqT0PqD7GmLyJyAQQQCDwQe9ZEkJtJRDyYm/1RP/oP4dvatO3nW5i8xQQc4ZT1U9waS5gS4haJyQD0I6qexHuKAWm5l7QeRThUYEkat5uN0Z2yEdj2OPQ9c1IrZoQ2OwCMEAj0NMECocws8J/2GwPy6VIKWmTcYZLgEFwkxHR1PluPx6VNHqvlkLMG/wCBja3+BplBAIwRkHsaLDv3NSG4inXMbg+3cVLWAbZAcxM0LdQYzj9Knivr234mRbqP+8nyuPw6Gi/cVuxsUVWtr63uiVikG8dUYYYfgas0yQooooAKKKKACiiigAooooAKKKKACiiigAooooAKKKKACiiigAooooAKKKKACiiigAooooAKKKKACiiigAooooAKKKKACiiigAooooAKKKKACiikJCgliAB3NAC0Vm3Gswo3l2ytcS9gg4qt5GqXxzPP9mjP8CdaB2NSe7t7YZnmSP8A3mqm2u2WcRmSY/8ATOMmkg0a0hO4qZH/ALz8mrqRpGMIir9BSuOyKX9qXMn+p06Y+7kLS+bq0g+WK2i/3iWq9migdkURFqrfevYV/wB2LNH2W+b72pN/wGJRV6igCiLO7B/5CUv/AHwtSeRd/wDP+3/fpat0UCKRgvu2ofnCKTydR/5/kP8A2xFXdyjqRSb0/vD86B2Kfl6l2vYvxio26mP+Xm3b6xH/ABq5uX+8KOD0NAWKe/VV/wCfR/wYUn2vUkPz2Mbj/Yl/xFXcUlAWRVXVkX/j6t57f3ZMr+Yq5BcwXC7oJUkH+y2aTPvVaawtp23tEFf++nyt+YouKxforOCXtv8A6qYXKf3JeG/76H9ali1GJnEc6tbyn+GTjP0PQ0xWLlFFFAgooooAKKKKACiiigAooooAKKKKACiiigDnvGdh9p0oXKDMls27/gJ61w6HivVpY1mieJxlXUqR7GvLbmA2l7NbN1icrQA2iiigYUUUUAFLSUtABThTaUUgHUhFOFBFAERpKcRSUwEpi/K2Oxp9NccZoAdRQpyM0UAB5rS8P6w2j3uJCTaSnEg/un+8KzaGAYYNAHqyOsiK6MGVhkEdCKdXE+E9d+zSLp14/wC6Y4hc/wAJ/un2rtqBBRRRQAUUUUAFFFFABRRRQAUUUUAFFFFABRRRQAUUUUAFFFFABRRRQAUUUUAFFFFABRRRQAUUUUAFFFFABRRRQAUUUUAFFFFABRRRQAUUUUAFFFFABRRRQAUUUUAFFFFABRRRQAUUUUAFFFFABRRRQAUUUUAFFFFABRRRQAUUVHM/lxM3oOKAKd3N5cN3cg/6mNgv1xTIkFvp0MKjG2NV/Sm6uvleH7he5UZx3JIpt40myKJflkk44/h9T+A/WoNURRDzpvM/gjJVPdu7fh0H41aFMjRUVUQYVRgCpO1SULQWxwKQnA5pYVydxpiJoxgc9afTaP4SaZIkf3M+vNOpqf6tfpSnoaAGp1p9MX71Ih+bHrSKaIrmaG1XfPKkSE4DO2Bms/X7tbfR5AHG64xGmD1z1I/CsLxJdm71Z0z+7tv3aj3/AIj+fH4VjTGV5YkMjFUGIwTwg74p8pPMPPztj+Efqa2NA0r7fL9puFzaxngH/lqw/wDZR+pqlpmnvqN2tshKxqN0rj+Ff8T0FdxHGkMSRRIEjQBVUdAKYh5Oax9d1j7An2e2IN24znqIh6n39B+NTazqi6bbjYA1zJxEh6e7H2H61xjMzuzyOXdzuZm6sfWgYnOSSSSTkknJJ9TVrTtPm1K48qH5EX/WSkZCD+p9BSafYzajdeRCdoHMkhHCD/H0Fdpa2sNnbJb26bY1/MnuT6mgAtLSGxtlt7dNqLzzyWPqT3NF5eQWNuZ7l9qDgAclj6AdzUeo6hBptv5sxLM3Eca/ec+3t6muNvLue/ufPuWBboqj7qD0H+PegCXUtSn1OUNL8kKnKQg8L7n1NUJZdnAGWNBcs22PnHU9qQptKt1x1yaYhY4sHc/LGopyfMIPQ4/GrCsrjKnNW7LTru/GbeIGPOPMc4XP9fwoATSdXa2cJdo09uBjOMlB/Ue1dckv2RkkRt9tKAVb69Af6Gsu18MbZFa7nEijkxquAfqeuK32RWQoygqRggjgis3boaRv1JflkUMvem5wapQu9jMInJaFzhGP8j7/AM60CA4yD9DRuGwDmgikUkHBp5Bxkc00S9BlFG9CcMMGnbM8qwNKw7jaKNjelG0+hoAWik59KKACnAU2lBoAeBS4puaXNUSLRSUE4oEFB4GTTSXP3Vx7mopCAeSWP6UDHPMqj5eagZ2fqeKeI2c8j8KjndYvlHJ6YHUn0pFIZI6xruY4pogabBmyFPSId/8Ae/wp0UJLeZJy/Ydl+lWGYRLnq56CpKEZhAoVQN56Adqco8iPcxzI/Wkgjy5d+SOSaXIaQyN26CmkJiSgCHy2Gd/3h6+1VHsbZkijZD5cX3YlOF/Ed6sklmLHqf0phbHCjJp3CxFHZ20R3LBGp+mTUjSE8LSiMscsakVAo4GKQ7kIjZupxRI0UIG7LM3CooyzH2FPncRQvIedoyFHc9hUliiQgtKQZ2HzP6+w9qEhN6DI7KSfm7+RP+eCHj/gR7/QcVeVVVQqqFUdABgConuok/iz9BVebUkj/hxnpuPJ/Cq0RPLJl6op7aKfBdfmHRxwR+NUhqFwfmW0uGXuQn9Kntr+OYcsCDxuH8iOxouHKzNWxu9MLeUDc23UBfvoPTHcfSrlpdqyb4W3x917r/hWiD3FQTWcMzb8FJP+eiHDf/X/ABosPnvoyWORJF3IQRTqpWtlNBcNJJc+avYbAD+NXaZDt0KdxE8E/wBqgGc8SoP4h6/Uf/WqyjrIiujBlYZBFP8ArVOHMF9Jb/wSDzE9j3/xoDcLuN0dbqFd0kYwyD/loncfUdR/9eopbNXiFxYENG43eXng/wC76fT+VX6rRYsrnYOLeduB2Rz2+h/n9aAuUY5AcjnIOCCMEH0IqUc1eu7JLn5wfLmHRwP0PqKzvnil8qddkh6Y+6/0P9OtGwtx9FFFUISiikpANlijmA8xA2Oh6EfQ9RUsF1c25AZjcRf7X3x+PemUUWGasFxFcLmNs46joR9RUtYZUFgwJDDoynBH41Yh1CSL5ZxvX++o5H1H+FF+4W7GpRUccqSoGRgynoQetSUyQooooAKKKKACiiigAooooAKKKKACiiigAooooAKKKKACiiigAooooAKKKKACiiigAooooAKKKKACiiigAooooAKKKKACkqpdajDbP5S5lnPSKPk/j6VUa3ur7m9k8uL/AJ4RH/0I96BpXJbjV41cw2iG5m6YT7o+pqE2VxeHdfzkr/zxj4UfjVyGCOBAkSKi+gFSgVNy7WI4IIoF2wxqg9h1qWjFIWAOOp9BQA6koAY+gpwWgQlJkfX6U/YO/NOwB2p2Fch+c9Fx9TRskPVwPoKmxRRYOYh8nPVmP404Qp3XNS0UWFdjPKT+6Pyo8tP7o/Kn00kg0wuxPKT+6PypPKj/ALop+c0UBdkfkp2yPoaPKI6O3481JRSC7IcOOwb9KXPtUuKaVzRYdxlNkRZEKSKHU9QwyKU5XryPWlByMjmkUVPImtubOT5R/wAsZDlfwPUfyqe2vY5n8p1MM46xv1/D1FSVFPbxXCbZU3Acg9Cp9Qe1O4rFuis4TXNl/rd1zbj+NR+8T6juPcVdhljnjWSJ1dG6EHNMgkooooAKKKKACiiigAooooAKKKKACuC8Z2ht9ZW4A+S5QH/gS8H9MV3tYPjGy+1aI0qjMls3mD6dD+n8qAOFHSlpiHIp9AwooooAWiiigApRSUtADhS0gp1IBjCmGpSKjIoAbQeRS0lMBq8Nj1p1Ncd6cpyM0AFFFFADXUMK7PwnrxukGn3j/wCkIP3bn/loo7fUVx1IdyOskbFJEO5WXqD60ID1misbw5ra6va7ZMLdRD94o7/7Q9q2aBBRRRQAUUUUAFFFFABRRRQAUUUUAFFFFABRRRQAUUUUAFFFFABRRRQAUUUUAFFFFABRRRQAUUUUAFFFFABRRRQAUUUUAFFFFABRRRQAUUUUAFFFFABRRRQAUUUUAFFFFABRRRQAUUUUAFFFFABRRRQAUUUUAFFFFABVef55o4u2dx/CrFV4Pnlkl7Z2j6CkxobehZBHC3RmDHPovP8AhVJSZpDcH/loMID2Tt+fX8qLp/tGrvaqThYRvPopOT+eAPxqb7zFsYHQCpZpFWEAxxSnAoHWo5XIHy8sThR71JQufMk2j7q9fc1ZUYFRQxhFA6+p9amJwKaExSe1DfcP0pB1pW+6R7UxAv3R9KRuhoU5FDngikCGr94VWvrtbG0luX/5ZjIHqew/Opx1FYfjBZRZROP9QkmZOe5GF/XNJajehy5ZiS0jZYksx9zyaagZ2GxC0khCog6knoKbuEhCqcr1P+FdJ4X0/cTqUo45WAfozf0H41oQa+laemm2SwghpWO6Vx/E3+A6CpL+9isLR7iblV4Cjq7dlFTsyojO7BUUEsx6ADvXEarqTand+aMrAmRCh9P7x9z/ACpAV7m4lu7l7m4YGV+uOijso9hRa2015cpb24BkfnJ6KO7H2qMBmZURS7sQqqOrE9BXZ6Ppi6ba7WIa4k5lcev90ewpjJrCyh0+1WCAHHVmPV29TTdS1CHTbbzZfmduI4weXP8Ah6mnX99Dp9q082T2VB1duwFcVd3U17ctc3LAyNxgdEH90e1IAurma8uGuLlw0jccdFHoPaqju0nyxg7fX1oJMzbV4QdfeplAUADpTEJCpZUWNCWbgKOpNbkehFtNnLKHnaM4c9FPXC/l1qj4eZhqscTRKRISoYnlRyTj613ZVdu3HFSykcLoGkPqYV3DJbDl26Fz/dH9TXcRRRwxrHEgRVGAAMACnKqooVFCqOwFLSbuCGkU2pKaRUlJkckayxsjjKt1FRWkjxSfZpjk9Uf+8P8AH1qziop4RMmN21lOUb+6aBlkjNCkqeaitpjKrK67Jo+HX+o9jUxGRVmYjorjp+NReQynKNSh9j7ScA9PY1KDn60BsMBlXqu6lEo7qw+op9FACBweho4PakIHpSEUADYHamZpWApvSpZaHinAUwHHSjNMViTIHeml8ewpjNt69fSmrG0hyxwPSi4rCmRnO1B+NOSEDk09VCjAGKJHEa5NMRHczpbxMSQuBkn0FUbdXbMsowz/AHV/uj0+vrVKa8We8R5f+PUZZW7Ow7n2HathQqL5jdP4R61DdzS3KgysSbm69h61GMkl25Y/pSZMjGRvwFSxrlgD+NCEOP7uHB6t1pmPlBNSHEshJ+4tNb5iSaoSI8FvYU9VAqK4uobaMvIwA6fU+gqodTjfos+PaFqQzQLKveo9+7oM1WS6tTy0wUntICv86tjBAKkEHoR0NAWK18xWBSenmoD+dKbppJDHAjSOOoXnH1PQUPCLy8S2kP7lV8xwO/OAK1I40iQJGgRR0CjAppA5W0KCWE8vNxN5Y/uRdfxb/CrdvaW9tzDEFY9W6sfxPNTUVRDbe4VUurBJnMsR8qcjlgOG9mHerdFAk7bGXFdy20ohuUKMegJyG/3T3+nWtKORZBlT+FEsUc0ZjlQOh6gjiqMtpdQD/Q3WQdllJyv0bv8AjS2KupbmhR2qO3WVYgJmDP3x0FSUySFGdJfLc7sjINR3BC39qx77l/Mf/Wq1VLUcqYXHZqWw1qy5TJokmiaKQZVhg4/z1pIJRLGDnmpKe5OxFYzO6tDMf38J2uf7w7N+P+NTTwR3ERjlUMp/T3qreI8bLdwqWkiGGUdXTuPqOo/+vRPrFhAgZ7lDuGQq/MT+ApoT7lSeKSzP70l4e0vp7N/jS1VufE8ZVlgtiwPGZDgH8KxjqV0CRHIIkzkIq8L7DPajlYzo6aa5z7fen/l7k/T/AApy6lej/l4J/wB5QaqwjfJIoDCsaPV7kH96sbj6bTV+2u47ngfK3oalpopalugjNMyQaUMDRcLCAyQuXhfYx68ZVvqKv2eorK3lTDypfQnIb3BqlUckeRjOPQ+lLYe+50FFZNleyKhDAuE4ZM5ZfceorTjkSVA8bBlPcU07kNWH0UUUxBRRRQAUUUUAFFFFABRRRQAUUUUAFFFFABRRRQAUUUUAFFFFABRRRQAUUUUAFFFFABRRRQAUUVTvL8QP5EKedckcIO3ux7CgCee4itojJM4RB3NZrXF3qPEO61tj/Gfvv9PSnRWbPKJ7x/Om7cfKnsBV0ClctRsQW1pDaptiTGerHkn6mpwKWkJAOOp9BSKHAUm4A4A3H0FKEZvvHA9BT1UAYAxTJbGBGb7x/AU8KAMAYp2KWgm4mKKWimIKKKKACiiigApKWigBKQilooAaDTqaetKDQMWiiigQtFFFACEVE0fOVODU1JQNOxBvKnDjHv2NOp7KCMYzURjZOU5H901JV7jqqSWskMjXFiQkh5eM8JJ/gferKuG46EdQadQA20vI7pTgFJE4eNuGU/571Yqjc2gmZZY38q4T7sg/kfUU60vvNkNvcL5V0o5Tsw9VPcVRLRcooooEFFFFABRRRQAUUUUAFMljWWJ43GVdSpHsafRQB5RPbtZ3cts/3onK/lRW340tPI1ZLhRhZ15+orDU8UMYtFFFABS0lLQAUUUUAOFPFMFOFIBTTGFSU0imBEaKcRTaAEIyKjQ7WKmpajkH8QoAfRSK25c0tABRRRQA63uJrG6jurZtssZyPQjuD7GvSdJ1OHVbFLmHjs6Hqjdwa80q3pOpzaNfC4iBaJuJY/7w/wARQB6bRUNrcxXltHcQOHjkGVIqagQUUUUAFFFFABRRRQAUUUUAFFFFABRRRQAUUUUAFFFFABRRRQAUUUUAFFFFABRRRQAUUUUAFFFFABRRRQAUUUUAFFFFABRRRQAUUUUAFFFFABRRRQAUUUUAFFFFABRRRQAUUUUAFFFFABRRRQAUUUUAFFFFAEc7+XCzdwOKSFRFAoJxgZJplx88kUXqdx+gqO+kBK246MN0nso/x6fnSKt0KsCjdNcYxJdNu56hBwv6c/jUvQUDLEse9ITzWbNAzTIh5khf+EcL/U0yZmwEQ/M5wPb3qzGgVVRRwOKEPYkUYFITk05jgUwU2JD161Cjs11cKT8qbQB6ZGTUydagh5luT6y4/ICgROvSmt941IOlRP8AeNDGtyjquox6ZaiZ1LszbUQHG4/X0rnvE+rxajptiIMqXdmkiJ5UrwAfxPFHiq7E+opbocrbLhv949fyGKwwimff3A5+tNIlu5a06xe8uYrSM4LnLsP4VH3j/Su9REijWONQsaAKqjsB0rG8L2XkWTXbriS5+7ntGOn59fyrR1K9XT7GS5YAsvCL/eY9BTEYnijUdzf2dEeBhpyPzCf1P4Vz+e5NKWZmZ5GLyOSzMe5PU1f0XTf7Ruz5g/0aHBk/2j2X+p9vrTGanhrTfLQahOv7xx+5U/wqf4vqf5fWtueeK2geed9kUYyx/wA96f1Nchrmqf2jceXC3+ixH5f+mjf3vp6fnSAq6hfS6jdGeUbVHEceeI1/xPc1QYmYkLwg7+tK5MrbFPyj7xqVQFGB0piGIRGgV+Cak6DJ7U+7091sIr1MtlcyL/dGeCParej2Jv7zlcwxYaQ9s9h/WlcdnexpeGbAi4+2TfKwX90h689Sa6cGq8tqqoDEcFe9Phk3jDDDjqKhl6dCaikBooELmikPFGaAFxSUtAoAjmiZis0P+uj6ejjupqWKRZoxImcHseoPcH3pwqGX/R5fOH+qfiX2PZv6GqJFuI96E1AszKN552ffHt/e/wAaun0NVZkMbh1HTt6ikxrsWFYMoIp1UYnFvN5fWJxlPp6VeBBGRTQmrARmk20tNZio6UCAp70nlj1qNpiOmKiaRm43E+1LQpXLDGNOrVGZix2xLTUgJ5c49qnUKowowKBjI49vLctUtJmo5J0j6nJ9BTFuSFgoJNZU8rX7lE/49wcMw/jPoPb1NOZ5dRO1crb9yON/sPb3/KrQ8u3UKoBYDAA6CobuXFWI1tYolV5VDMOVU9j2qhfSXi3KSK4ZHONvZTjp9D6+tXmYscscmkpWNPNkEGowSzJAW2yEZ2Hgj2+tX0yxwvfvVFrKCWUO8QZugOOatXt5DpluHlySxxwP1ql5mct7ImkZY12joP1qpNcBUZ3baijJPoKA3mkFGDZ5yKr3oV5re06iQ+ZJ7qvQfn/KjcEh9rEXIuZlxKw+RT/yzX/E96hudatoJfLHmTPnBEYz/wDrpdRldmW1iYqZBukcdVXpge5qFdIt3QfJs9GUkN+dBdi5Dd216NivuJH+rcYb8jUbp9h/fQjEQOZIx0x3P1HWoWspkXbK32hF5V+jr/n1FW7ZjJCUlbfjgk9SPegdh1u5XUrmVcMAETHqMZ/rWgbqMLk5+mKw9Mt75ZLiOMKVD7RJJ044+p4xWkdOmkP7y9cD0jQD+eaauZPl6lg3sQ7P+VIb1e0bmoY9It0JPmXDZ65lPNTDT7XvFu/3mJp6k+4RS6iIkLuEjQdWY0+2vDIivKNgYZHt9acdOsicm2jOPUZqCSwMHz2X3e8DHg/7pPQ/pRqO8WaFFZ9rdjBC5Kg4ZCMMh9MVoKQwyDkUJkuNgpokUuUDfMO1OqOSIOQfusD1FMSt1JKqal/qFP8AtVbrM8RM0ejzSL95MMPwINJ7DjuJbTGKTrwa0wQwyKxEkWWNZF+64DD8av2c+RsY9KUWVJdS7XJa/pws7rz4lxBOc8DhX7j8ev511tQ3lrHeWslvL91x19D2NWZnBZo3UtxBJbTyQSjDxnB/xpbS3a6u44F/jPJ9B3q7hYltLSe8fEQCr3du1bMPh+HAMryOfdsfoK1be3S3jWOJQoFWFXFRdl2SM2PRLNBgRD8zTm0W23B4t0TjkEGtIkL1IFN8xOxz9BSAz3srpB8jRyj0Pymqzu0RxPDJF7kZH5itreOyv/3zSGQYwUfH+7QBkpIGGVYMvsc1ICCKsS2lnK24r5T/AN5MqaryWdzEN0ZFwn5N/gaBNEMhMDidRnaMMP7y9/y61bG9H8+1YbzyR/DIPf396rrKrnYcq46owwfypbI7N9sf+WfKf7p/wPFJlLU2YJlniDpkdiD1U9walrMUvG3nwgs6j50H/LRf/ih2/KtCKRJo1kjYMjDIIqkzJqw+iiimIKKKKACiiigAooooAKKKKACiiigAooooAKKKKACiiigAooooAKKKKACiiigAopCcDJrMluZL9jFasUtxw8w6t7L/AI0DSuPurySWQ29kRuHDy9QnsPU/yp1tbR26FUBJJyzE5Zj6k0+GFIYwkahVHYVJUlpWDpS9Bk0hOPr6UoQk5b8uwoAQZbpwPWpEQKOKcBS07EthiloopkhRRRQAUUUUAFFFFABRRRQAUUUUAJRS0lACHrTc4NOamnrQMdmlpoPFOFAC0UUUCCiiigApCM0tFAETxhuvB7EVHuZOH6f3hVimlcilYpMZmoLq1ju0AYlXXlJF+8h9qkKNHynI7r/hSqwYZH5elIohtLt/M+y3YC3AGQR92Qeo/wAKvVTubdLmPY+QQco69UPqKLO6cuba6wLhRkEdJB/eH9R2pkNFyiiimIKKKKACiiigAooooA57xra+fo3nKMtbuG/A8GuGQ16neW63VnNbsOJEK/mK8qUMhKMMMpKke44oGS0UDpSUALRRRQAtFFFACinCmCnCkA+iiimA0imGpDTCKQDaQjIxS0UwIkOx8Hoakpki5GR2pyNuX3oAWiiigAooooA1fD2tNpFz5UxJs5T8w/55n+8P616CrB1DKQVIyCO9eUkZFdJ4T1z7Oy6bdv8AuycQuf4T/dPt6U9xHaUUUUgCiiigAooooAKKKKACiiigAooooAKKKKACiiigAooooAKKKKACiiigAooooAKKKKACiiigAooooAKKKKACiiigAooooAKKKKACiiigAooooAKKKKACiiigAooooAKKKKACiiigAooooAKKKKACiims21Sx7DNAECsPPmlY4WMYz6etU1LSKZnGHnO7Hoo6D+v409wZIo7f/np+8k/3fT8acx3SE9hwKh7GiQhOBUZpzHmopmKRnH3jwPrUMtC243zNKei/Kv8AWrqDAzUEEYRFQdhirB+UVSJYxzk49KSkoqS7EiVWgI3ze8zVZTpVG1P3veVv51RJoDpVHVbo2Nhc3I5aNCV+vQfrV8dKzdbuba00+Z7tVkjddoib/loT0FNko8/3HlnYsxyWJ6k9zVnTrRr67htenmtmQjsvVv04/GqQz8qk57muo8K2+2Oa8YcufLT6Dqfz/lVAdIMABVGFAwAOw7VyXiO++13/ANnRsw22Rx0Z+5/Dp+db+p332DT5bgf6wDbGPVjwP8fwriF4GM5Pc+p9aQEkcck0qQwrulkbag9T/hXcWFnHYWcdtGcheWb+8x6msfwvY7UbUJB8zgrDnsvdvx6fQVq6nfpp1k07AM5+WNP7zdh9O5oAzPEupeWh0+BsO4zMw/hU/wAP1P8AL61y00mBsTj1x2FPmlcszuxkmkYkk/xMeppEjCoQeSeppiHIoVAF6UrcIx9qYx8pRzkZxzUhIHX6fWgDsNDNndabGYHEu1Qj8cg46EVftbWCyhENrCsUYOdqjqao+HbB7KwJlXZJMd7L/d9B+X861KzZotRkUvly+U/Csfkb19qWaMowkj6iiSNZEKOPlPp1HuPem2s77za3JBlUZVu0q+v19RQhPuSqwdN69O49KDTSpgk3DlT1FPYY5HKmgBUOflNIylee1N6HNTjlc+tNag9CIUtOK46dKaRSsFxwNLgMpBAIPBB70zpT1NUiWivA3lSG1dslRuiJ/iT/ABHT8qnZd6kd6jvrVriAGFtk8Z3xP/db39j0NJaXHnwJLtKMeHQ9VYcEfgaA8yCeEyW7Iv8ArEO5P8KLS53xhhzkcircqbWDr0NZxj8m+aPpHODJGf7rD7w/r+dS9C07o0VlU98fWguv94fnWXM97G7YMLR9sqcj64qMT3J6rAf++qOYap3NY7D/AHaAVHTArK3XTdFhH4NSiO5brLGv0jz/ADNFx8hpNKi9XFMa5VRkAkep4FU1tnJw1xKfZQF/lUyWEQO51B93O4/rRcOVIje8eT5YQZG9E4H4mlSxZ/nvXBXr5a/d/HuatghRiJfxpREzHLmlZsL2I2kONsY2r60zymIyBmrQjUU6nYXNbYolSOoxQAScVZdt52INx/lT44hH7t6+lOwOY2OMRKXfqB+VU7hVuQwkAIbsanuZdx2L90dfc1DSY4q2pShb7FL5fSFzx/sn0+hqU4OsZ7C3GP8Avo0+5hWeFkYcMMVS0+R3uIWkbcxiaM/7ytzS2LavqPkWaTU5vL2YCovzZ9M/1q0JpY/9dEcD+JORSSLsuPNHVgAfwqwpyARQD2EjkSRdyMCPahgEV5FHzBSfypphQvvX5X7kd/rUnGQD34piLVkoWygA/wCeYOfUkZNT1V0xt2nQH0Xb+RIqyxwpPpVnO9xaKhjuY3HJAqTzExncPzoCzHGkqBrlC5RTkjr7VIDkAmkOxDc2aTsJFPlzgYEg7+xHcVHaRXStm42Ag/wE4Iq4KWgLtaBRUNzOYNp2kqTgtjgfWpgcgHGM0xWFrO18Z0e5/wBw1oVS1squk3BY4AQ8/hQNbmHosu+yCZ5jO38O1aKsVYMOorntEm8u7EZ6SLj8RXQd8VMlZlxd0alvKJEFTVlW8vlvgnCn9K00bcPfvTiyJKxheJ7APCL6MfNGNsnuvr+H8qoeG4s30kp/gXaPqf8A9VdayhlKsAVIwQe4rnbJI9H1eSym+WO4O+3lPQjptPuKd7BHU3UXvS4LvsU4A5Y/0oJ2in2w/dbj1Y5oBscsKDnaCfU808DFLRVGdxrusaFnYKo6k1CJ3lGYYiR/ef5R/jUxUEgkZI6U6gCDypn+/MAPRV/xpgskBz5sufZ8VaooC5SnsI5k2yF3HbLZIrNm0u7tpRPZz+aVBHlyDkg9s1vU0rmlYpMw7bUl3gToYJAcHPT8+341fVhZ3AYf8e07c+iOe/0P8/rUlzaRXHLr83Td7eh9RVUxCyRopMyWEg2kNyYs/wDsv8qRTdzWoqpYyt81tM26WLHzH+NT0b/H3FW6ozegUUUUAFFFFABRRRQAUUUUAFFFFABRRRQAUUUUAFFFFABRRRQAUUUUAFISFBLEADkk9qCQBknAFZjSHU34yLNT/wB/j/8AE/zoGlcJHfUmwCUsx+Bl/wDsf51bRFRQqgBR0A7UoAAwKWpLCk9h1pacq4oC4irjnv61IBQBS0yGwooopiClpKKACiiigBaKSigBaKKKACiiigAooooAKSlpKAA9Kj71JUTHDD3NIaHA804Uw09aBsdRRRTJCiiigAooooAKKKKAGkVFJHk7lOG9fWp6QikNOxXV8nawww7VHc263CBWJVlO5HXqh9RU8kYYc8EdD6UwMc7H4bsfWkXuMs7tpGa3uAFuYxkgdHH94e38quVQurbz1VlYxzRnMcg6qf6j1FPsb37QWhmUR3Mf3489fceopkNFyiiimIKKKKACiiigArzXxJbfZNfulAwshEq/j1/XNelVxvjy32y2d0B1Bjb+Y/rQBzC9KdTFNOoGLRRRQAtFJRQAtOFNpRSAeKWmilpgLSEUtFAERFJUjCmGkAhqIfI/salprrkUwFopsbZGD1FOoAKKKKACkZcilooA7Pwtr32xBY3bf6Sg+Rj/AMtB/iK6WvJssjrJGxR0OVYdQfWu/wDDmuLq1tslwt1GPnX+9/tCmI2qKKKQBRRRQAUUUUAFFFFABRRRQAUUUUAFFFFABRRRQAUUUUAFFFFABRRRQAUUUUAFFFFABRRRQAUUUUAFFFFABRRRQAUUUUAFFFFABRRRQAUUUUAFFFFABRRRQAUUUUAFFFFABRRRQAUUUUAFV71wludxwDwT7d6sVUugJJo4zyo+YikxrcjjysbSsMO/OPQdh+VM+6tSStlgPTk1E3pUyNUNpgG+5A7RjP49qk6Ak9BTbUEx7z1c7vw7VCGWoh3pZD2pyjC1GxyapkrcSiiipLJF71QtOn1kb/0I1fXk4rPtf/ajf+hGmSjRkkSGJ5ZG2oilmPoBXmuqanLq161zLkJ0ij7Iv+J716RcW8d1bSW8y7o5VKsM4yDXmWsQxWOs3NpbljDEwUbjk5wM81ZBEu5jhBlmIVR7/wD667u0iW1tYrdOkShfx7/rXJaDB52pxkjKwgyH69B+p/SuourpbS0luG58tcgep7D86GUjE8R3pnvRbKf3dv193PX8hx+JqjYWjX97HbAkK3LsP4UHU/0/GquWOWdssSWY+pPJNdV4bs/s9kbh1xLcYPPUJ2H49fxoEbaBVVVQBUUYA7KBXGazqP8AaF40oP8Ao8WViHqO7fU/yxWz4kv/ACLUWcTYlnHzkfwx9/z6fnXKH94+3+Bf1NACRsGkLMfm7D0FSkgDJOAKYVHYAHtWr4ehtbi8DzuC0Z+WI9v9o+tDdgSFj0G5udOeYrtmOGhjY4yM859zXQaRoUVjiaYiW5P8XZPZfT69a1ygXHGR2NLU3Y7B2pCKWk68UhiYqK4g8+MbW2SId0b/AN1v8OxqYU8AUWC5Fazi6hJddkiHZIn9xh/nI9qeo2HYfunpVW9zZyC/RSUUbbhV6lP731X+WaufLIgZWDKwyrA5BHrVEjCuDinx9MUuNwweopBxStYd7ocTt69KQinYyKiDFHKN9QfamShcUq8GjvQSRQMlQ84NVZE+zXJcf6qYjd/sv0B/Hp+VTKdy5FSMqzRMjjKsMEU9xbDRhkKmqV9Ez2pMY/ewt5ifUdvxGRU1u7fNG5zJEdrH1HY1K2FJYkAYySeg96W41oyrE8dxCj/3xlT6+31pvkAEkYB75qtp8g82RNuYN3mQbhg7TnkfjnFanDDNTa5bdiqIc/xCpFt1HXJqVolbqv4imeUR9yQj60WDmY4JgYUAUvljqcn603bMOjqaMT+q07CuSAAdKKj2znq6ik8kt9+QmmIV5UXvk+gpu2SX73yL6VIsaJ91fxp3WgLiKoUYQY96CewoJ9KSgCGWLPIFVyMVeqCaP+IUmaRkQVn7Ps96xxhdwlH0Pyt/Q1oVWv1HlLKekZ+fH9w8N/j+FSyye4iaWFkU4f8AhPvUNncCQDHfjH909wamt3MkKlvvDKt9Rx/9eq11GqX1tLGAskjFZMcblAzk+4NML9C1MxQBweh5HrUF1Jua3RD9+Vf8T/Kp5/8AVmqtuvmXue0K5/4E3/1v50uodDT0o/6M6D+CV1/XP9atkZBHrWbpT4uLuPP/AC1yPxFafarRzy0Zh3ds4YzW8nlyD7wPKv8AX396o/2tcJI0TWx3qcHa2RWjdXBVmRYpGz6Csl/Ngu3mddvmj5BnOCB398VB0dDU0tme2WSQYeRyxH4//WrXz2rM05NlvbqeoQE/jzWjmqRnMeKUU0dKcOlMzYModSrDKngilHAxRRQIKqasgk0y4Q9Cjfyq3UF6N1rIvqpH6UDW55/E7IUkX7y4YV1SstzbhlOFkXII7Zrk4/8AVrnsMVu6HPvt3gJ5jOR9DTmrq446OxPp14bgNDNgXMXDD++B/EP61rW05BCk8jp71yuqI1vqXmxsUZsOrDsehrW0++W8j7JMv3k/qPapatqit9DowQwyKpatYi+tNoVWljO+PPQnuD7EcUtrcfwtV2q3RnrFmTBOYrdd7M0DD5Hflo/9lj3HbP51sINqKPQVQuIvKlJA/dyH8m7/AJ0yCdrTjlrf06mP6eo9u1JOw3qtDSZguB3PQU6oLc+b/pBOQ4+T2X/69T1ZmFFFFABRSUZoAWkpaKAGkUxlBBBAIPUHvUlIRSGmZNyrWDRzICY4/u+oU9UPt3HuMVrI6yIroQVYZBHcVHIiyRtG4+Vhg1m6bKbFhayk+UzEIT/A2fu/Q9vyoG1dGxRRRTJCiiigAooooAKKKKACiiigAooooAKKKKACiiigAooooAKKKy7uZ72VrWBiIV4lkHf/AGR/X8qBpXEmkOpymKMkWaHDsP8AlqfQe386uKoVQAAAOABSRRrFGqIAFUYAFPqS9gpQKAKcMUA2AXmnAUmcUbqZA6jIpmTRQFh+RRmm0UBYdmjNMLYpN9AWJKKj3Uu6gLD6KbupQaYhaWkpaACiiigAooooAKSlpKACoJTh0+tTmq8/34/rSKRJninLUYPFPQ0AySikpaZIUUUUAFFFFABRRSUALRSUtACVHJGGGDUtJQNOxWBIOx+vY+tU9SsTdKkkTmK6i5ikHb2PtWk6BlwahGQdj9ex9akvcqaVq4unNrdqIbxOCh6P7j/CtWsHWtL+2IJofluY+VI4LY7fWm6Jr3m7ba+O2XO1ZDxuPofQ/wA6ZLR0FFFFMkKKKKACsPxhbfaNBmYD5oiJB+HX+dblQ3cIubSaFhkSIV/MUAeUocipB0qEKY3ZG6qSDUq0DFpaSloAKKKKAClFJS0AOFOFMFOFIB1FFLTAQio2FS00igCKilIwaSgCJvkfI6VJ1FDDIxTIz/CaAH0UUUAFFFFABTre4lsrpLm3bbIh49/am0UAei6HrMOsWm9fkmTiSPPKn1+hrTryq0u59OvEurVtsi9j0YdwfavR9J1SDVrJbiA4PR0PVG9DTEXqKKKQBRRRQAUUUUAFFFFABRRRQAUUUUAFFFFABRRRQAUUUUAFFFFABRRRQAUUUUAFFFFABRRRQAUUUUAFFFFABRRRQAUUUUAFFFFABRRRQAUUUUAFFFFABRRRQAUUUUAFFFFABRRRQA13WNGdzhVGSfaqFuzN5k0owzc49B2FS3beZKlv/D/rJPoOg/E/yNQbsoB/eJY1LZcULknk9TzSUp6Ug61BoRXP+rCDrIdv4d6sxKOAOlVXO+7x2jX9T/8AWq7CMDNNCY9jxUVPc1HSY4i0lFApDJY/6VnwHDN7SsP1q+nX8KoLxLMP+mzf0pkrcg8XyvD4flaOZomLooKtgtzyPyrzxgXl3sxYnkljkmuj8c3DSanbQ7jsjgDBe2WJyf0rm8kDI69q0IOm8NxbLSSY9ZXwPoOP55o8R3HEFqp6nzX/AA4H65P4VesIfItoYB/AoH49/wBa53UJ/tOozyg/Lu2r/urx/jSKHabafbr6OAj939+T/dH+PSu0eWOCF5pTtjjUs3sBWR4dtPIsfPYYkuPm+ij7o/r+NQ+Jb37lih4GJJf/AGUf1/KgDEvruS5mkuZOJJjnH90dh+AqOMbYwKYo80s7dOi1J5Uot3ljVmjiwGbHC5pkhWr4ct2uNVXqFjRixHbPAqhYW0l/cxQRcM/JJ5CgdTXc6dp0GnW5jgU/Mcszcsx96lspFiKUxt5cnTsanK45HSoXQOuD/wDqoglKN5Uv/AT61KKa6okpDT3XuPyphoYkPGGGe9KOKjQ4OPWpaaE9Baz7FfsFy2nniFsyWp9B/En4dR7H2rQqG7thdQbA2yRSHjf+4w6H+h9jTETEc5oIqO1m+0QByux/uun91h1FSgdqYgU4pJ4i6ZX7w5FHQ1KDlaBFWJw6A/zqUruWoJV8qbcPuuf/AB7/AOvU6EH6GkUyKNtr4Pfg1Opw2KjmjyN2PrSoxZOeo4NMW5BeEQSpdfwj5JP909D+B/nVaV/7RumtkObWE/v2/wCejdk+nr+VO1i6aOBbaEbri6PloPQHqaZo6i1t2smADQMVY/3s8hvxFLqUtrkl6NksM/odjfQ9PyOKtj1HBqK7iEsDRn+IEUtrIZrWOQ/eK/N9Rwf1pdR9CUH8KWkpRTELRRSEgd6BC0lV/tkb3EkCHLxAF/bPQU4yGgdmJNdCI4WGec9/KTOPzqvBqi3ErotvcBU4ZjHwD6cGsjVfECsTa2Tgk/K0ucAfQ/1qFdet9OtFtbEfaZFGWlPyoD6+9BVkkdHd3UVnAZpW6j5Vzy30qaNi8SORgsoOPTNcA95PfXQeWQuzsBuPYZ6D0FehEY49OKBMbQRkUtJQIqyx7W9qZgEYIBB4I9auOoZcVUYbTg1JrF3M+xzbXs1k7EggSRE/xDp+Y4/KpJmzqIJ5ESD8yf8A61PvoPOiVlIEsTbkJ/UH2NQRJJceZNCfNYNtkjYgSRkDoex+vekVp1JridWHH3RyTUtpGYrfc4w7/O/t7fgMVUEcxmUSW04jByx2Z3e1WZxc3ELxxQNHvGDJMQoA7nHWhA2tivas6It0gJdiXK/3lJ6fXuK21uI5YBIjAhhkViQ7mk3LLuhUbU2jCsfUdyB2NSrJ9mck/wCpc8/7Dev0NNMzauWyA2QwzmszUMJZyk444GfrWmSAM54qgUFzdCNhmNBvcHuTwB/M0GiNCDG7IHGBirIqvAME+lTimjORItOHSminCmZsKKKKYhaiuOYse9SUyb/V/jSGtzgpIdnHqN4/HI/mKdYXH2W8SQ/dztb6Grl1HiG1kHrLCfqGJH8zWfKlWtUD0Zsa7Dut0lHVGwfoax43aN1kjYo6nKsO1bVm/wBv0poWOXC7D9exrEXI4IwRwaUdrMHvc6DT9QW6G0gJOo5Xs3uP88VtWtwGARj9DXD5K4ZSVZeQw6g10FhcyvbW73ChXmQMrD7r+3sfaoa5SviOhdQ6lWGQarJGBKUfv0NOtbgSDax+YfrUs0e9cj7w6U9yNtCAQzWrl7bDqTloumfceh/nVqCdJ03IeRwykYKn0Ipsb+YgPfvTJYN7iSNvLmHAcDqPQjuKaE9S1RVeG5y4imXy5ew7N7g/5NWKokaelRGTDYpZWO9FB9zUZ5YikWkWFYEU6qiSGM4Y8dj/AI1aByKES1YWkpaKYhjCqk9ss6yIwBz/AFq6RmoXjJbIODjg0mUmQ2FwxJtpyTKg4J/jX1+vrV2s25haXEkXyXERyP8APpVu0uVuoQ4G1hw6nqp9KEEkT0UUUyQooooAKKKKACiiigAooooAKKKKACiiigAoorP1bUPscSxxANcy8Rr6e59qAG6hds8v2K2Yhz/rHH8A9B7mpbaFIIljQAAelUrKJLaEtJIC55d2PU9zU6Xauf3CSTe6rhfzNSa2si5QKjEbv/rWGP7q9P8A69TACgQlLS4p2KYrjKOakwKMCgVyPBo5qTAoxQFyOlpxFNxQA0ikxT6MUDI6MmnEU00AG6nB6jNGaAsTg5pwNQBsGpA2aBWJKKQGlpkhRRRQAUUUUAJVa4+8h/2qsmq119wH0IpFR3FB5p8ZqP8AipyH5qRRPS0g6UtUZhRRRQAUUUUAFFFFACUUtFABRRRQAlRyIHGD+fpUtIRQNOxV5J2t94frWFrempva7VCyH/XKvUf7QropE3DI4YdDUAO4HIwRwRUmm5lafqcunxpHfP51o2PLul52jsG/xroFZXUMrBlIyCDkGufeFNOkZXGbGY9+fKY9v900LBeaU+/TyJbc8tbMePqp7fSnclx7HRUVn2Or2t43lbjDOOsMo2t+Hr+FaFMgKKKKAPL9ehFtr15GBgeZuH0PP9aqrW745tvK1iKcDiaLk+6n/AisFDxQMfRRRQAtFFFABRRRQA4UopopwpAOFOpopwpgFJS0UARsKZUxFRsKAGUxxg7hT6KABTuGaKYPkbHY1JQAlFFFABRRRQAEZFWNJ1ObRr8Tx5aNuJY/7y/4jtVekZQw5oA9TtLqG9tkuLdw8bjIIqavN/D+tyaLclJAz2kh+dRyVP8AeFeiQzR3EKTQuHjcZVh0IoESUUUUAFFFFABRRRQAUUUUAFFFFABRRRQAUUUUAFFFFABRRRQAUUUUAFFFFABRRRQAUUUUAFFFFABRRRQAUUUUAFFFFABRRRQAUUUUAFFFFABRRRQAUUUUAFFFFABRRRQAU1mCKWY4UDJPpTqp3rb2jth/H8z+yjr+ZwKBrUhDEQvMwxJMd2PQdh+X86agwM0TPvel6Cs2aoDSrSdTTLhitu5HUjA+p4pDGW3z7pD/ABsW/DtV9BhRVW3QABR2GKtHgU0JjGPNNpx60lSMSloxzS0DHLxzWcM/aJ8/89M/mBV9mwAKybS4N1LPNjEchzF7qvy5/E02JGX41tIP7Oj1DBFwrrFnPDKc8Y9q5jT4xPfQIRwWDH6Dmr/iu8lutUktmLLDb4VUzxuxy345qHQkzeO/9yPH5n/61X0I6nQ3Fx9nsp5+6oSPr0H61zljam7uobXs5+c+ijlj/n1rT1yXbZxQjrI+T9B/9fFS+GbbCzXbD7x8tPoOp/P+VA2bkk0drbvM4xHEucew6D+lcRczSTyu8hzLMxZ/bPb+lb3iS6wsVmp6/vZPp/CP6/hXOKzbzIFzQhMnACqAO1dT4asln0ve4yrSMCPUdK5ZQ0jKsY3O5wo9Sa9D062Wy0+C3XnYgyfU9z+dKQ0VdJ0ODS5Z3jYt5h+Xd/AvZa0zS0VIxtNkjEi4PHofSnmkpDEtpmLGGXiVRkH+8PWpHXuKgmiMigqdsiHKN6H/AAqWCYTxbsbWB2uv909xVLXQT01Q2pRllyDg0x1weOhp0Z7UIHqhUcNkYww+8vpT+9RyoxxJHxIvTPcehp0MqypuHHYg9QfSqIIZf9GuhN/yymwsns38Lf0/KrNEkSzRPFIMo4xVOyuGIaCc/v4Ttf39G+hFAblxhxmlQ0oOVI70wcGgQkyCRCvTPf0NQwOWXBGD3Hoe9TE81WdhHdAZwZRuX3I6j8uaTKRc3ZHNQghHOThcdaUHIyOhrN12dltEtov9fctsUD070XBIj0rN9fT6nJ93PlwA9h3P+fWrN8BBcxXY+62IpP8A2U/nx+NWLeFLa3jgjHyIuB7+tPmiSeB4pBlHGDSHfUax3R/SorQ7Zp4vcSL9D1/UfrVTTbppI5baY/6RbN5cn+0OzfiKn3bLyB+zZjP48j9RSuVYvClpKjllxwKoncWSUDgVnapqSWFqZpDljxGn94/4UX99DYW5muGwP4Vzyx9BXE6jfTajcGaU4HRR6D/Cjcp2iblnrFvpti0lyxmvLljK6L1HpuPbjtWbf61f6lHs+WGA9VTgH6k9ay87T8qbm9W6CoZbtFb5pWkf/Y6D8apRIciwwRPvsT7DilQFgSA20DIVRgVTjuxvzInHoT1/GuhtdM07VLbzLJ5IJk+8jtvCn3z296diWzPgk3MhHQCvSo3EkSOP4lB/SvMoY5Ibh4JF2sCQfrXoekSmbSrZz1MYqWUti3SUtJSGFQzr/FU1IQCCDSGnYpkZBFZ1tF/ptyqOYZ1IkRwM5VhyCO4yK0mG01QuCINQgn/hYmJvoen6ika7ourLd7QGW3LdyCwFVHeW7lljnkVoEwDGgwrH37ke1Tz3CRxk7h0zx2FUrOQLBETy87lj7f54FJi5bFuggEEEZB4IPeiikIqecbWVbeZj5Tf6pz/6Cas2XzRvL/z0c4+g4FQ36JJZShxkBcj2ParcKeVBHH/cUD9KZSdyzEfk/GplqCL/AFa1MtUiGSCnCminUzNi0UlFMBaZN/qzTqbL/qjSBbnOTx7tJvCBzbXhk/DjP6GsyVK27NlOqajYyD5J/nH/AHzg/pzWOEZVMb/fjJRvqOKqDHIbps/2W9G44jk+Vvb0NO1W38m8LgfLL83496rypnNaIP8AaGlkdZof1x/iKb0dxLVWMpv9W30NdZpsUcui20Uqh0MSgg/T+dcmeUPuK67T3WPS4Xb7qxgn8qJBEiffaSlWdnjXGJv7uegb/GtS2uBMuDw46j1pLVCIsSAFnyzg+p7f0qpNZS2j+ZaAvGOfKz8y/wC76j2/KotbYb13NAjY5YdG+8P60+q9rdJcRggjPT8fT2NTgYpohjZI0lTZIoZev0qISyWpCzEyRdpMfMv+96/WrFIyhlwfzHamBFuDSlwQV2cEdDmgetV2ie3dnj2jd1H8Df8AxJ9+lSwyrKCoBVx1Ruo/xHvSuUOYfkaWKQxkKx+U9D6e1L1GKYQOQRkUDLdLVeCQg+Wxyf4T6ipz0qjNqwUEZqJgTypww6GnRyb+CMMOopBYbLGT8ynDDoaqENDMbmFTnpNGO49R7itCopUOQ6cOP19qBp9CRHWRA6MGVhkEd6dWfHILScA8W8zYH/TN/T6H+f1rQpiasFFFFAgooooAKKKKACiiigAoopCcDJoAWmsyopZmCqOpJwBVA38lwSLRVEfTzX6H6DvUX2RZWDXDtcN/tn5R9F6UrlKLJ5dTRlZbNGuZOg2j5AfdulZqaTdy3DXNxd7ZX6lFyQPQE9K10QKAOw7U8UrlJWM8aNbHBlaaUju71cito4cbA3HqxNSinEcUCAYoxTc4pc0wFzTgcimdaUcdaBMfS0wNjg/gafTJCiiigBKMUtFADcUlOopDuNxTStPxRigdyAim8ipyKjZaBpjM0oamkYozSGTq1SCqwOKmRs0yWiSikpaZIUUUUAIar3IzE3tVg1FKMow9qRSIuoB9qUHDCmRnMS06kWWFNPqJDxUlNGbFooopiCiiigAooooAKKKKACikooAWiiigBpFV50Kt5qj/AHh6irNIRSZSdimypLGVYB0cYIPQiqEZbTpVt5mLWznEMp/gP9xv6GtB18piR9w/oaSWOOaJopVDowwQe9Isr3NnBcrtmiVseo6VChvrAfuJPtMI/wCWUzfMPo3+NIkj2DrBdOWgY4inPb/Zb39DV3pQPcfZ6nb3Z8vJinHWGQYYf4/hV2si5tIblNsqA+nt9PSoUn1DTjgE3tv/AHWOJF+h/i/Hmnchx7FXx1b+ZpcNwOsMuPwYY/wrikr0LULi21rRLyGB/wB4IyTGww6kcjI/CvO0ORTJJhRSCloAKWkooAWiiigBRSikpRQA8UopopwpAOooopgJTWFPpDQBARg0lSMKZQA1huWkRv4T1FPqN153CgB9FIrbhS0AFFFFABRRRQAjKGGDWx4Z1w6TcfZrlj9jlPU/8sm9fp6/nWRSOoYYNAHrAIIyDkGlrjvCevFNmm3r8dIJD/6Cf6V2NAgooooAKKKKACiiigAooooAKKKKACiiigAooooAKKKKACiiigAooooAKKKKACiiigAooooAKKKKACiiigAooooAKKKKACiiigAooooAKKKKACiiigAooooAKKKKAErLEvmGW47SHC+yDp+ZyauXrHyDEpw8nyjHb1NUJMArEn3V4qWy4IVeSCe5qSm4ww9hRnccdqg0FByeKiuDl4o/Ulj+FTCq/wB+7c/3AFH86BluAVM3SmQjC080yOoylxS4pccUDuNAo6DNOqOU4XHrQBUv3f7LIsZxJL+6T6tx/jUUkSW81rHGMRhGiH0ABH8jU5Xfdwg9EDSfj0H8zUeojbHby/3Llc/Rsqf5ikM4bxMMa/ce4U/oKl0Ffknf1YD8h/8AXp3jAKusRbFG8xDzD68nH6U7RBizH+07Gq6CW5DrUhe+VF5McYUD3PP+FdPaQpZ2ccROEhT5j9OSf51zFqBd+IM9VEpf8F//AFVs67cmLT/KB+a4bb/wEcn/AA/GmI5+8uWuZpbhvvTNkD0HYflTUG1QKjPzzAdhUtMRDNkMoGcdsV2vhC4vLqzuFupDIsRVY2PXpyCe/auUhieeaOGMfPIwVc+prvLK0TTLSOKElhH98939TUsaRcBpaDhgHU5B5oBqShKeoyMU2nrQhMbiq85NtJ9pH+r6TD27N+H8quEUhAxyAR3B707CuBGRikAwapWEpink06Q/PCN8RP8AHEen4jofwq9TEPHIqtKDBN5yAkHh1Hf/AOvVhTzSyIGQg96YhY3DAEHIIyD61m6xE0UkV9Dw6fI/oVPTPtn+dTwsYpPLb7rHj/Zb0+h/nVhws0TRyDKsNrD1FG6BaO5Ba3KzxhlyOxB6qe4NT1z6yPp8ztJkrGdk2O69n/Afpmt1H3IDkH3HepTLlG2wrsFwfeq2pRedZPjO6MiRSOoI9PwzVhgGUikibK7W5xwfcUxbalOwvDLmKQjzQMn0cf3h/WqVk/8AaOvyXPWG2XbH/If1NUdSc2waBGKzIxCkdQP/AK4OK09AEcVj5YGJd371T1Vuw+mOlSmaSilqjVYfLx25oRtwpe9V/M8qcKx+VjgfWmZmfexGDUlu4x8xQhgP4gOo/Lke4qa6bNsZEOduJFP0OalvuFZwOY2Dj+v6ZqupVElhY4WMEgnpsPT+tSaLVGhcz4RViOJJRlT/AHR3b/PeqVxPBYWjTTMVhiH1J9vcmm2G97dZJM+Y3y4P8KjoP6/jXK+I9UN5d+RE37iBvlx/G/rVLUl+6infXsupXrT3GFxwkZPEa/4/1qlLKkQ3Ekk9B3P0p4RtjEAsFGW/x+lZ4VppyfQ4zWsY3djFu2o9y83MrYX+4tTLayBdwgcL645q5ZQW6XYVsytGN2Oig/zNXri6ihKmZ1j3HA4rrUIx3MJTeyMdYY5Ewpwe+OPzqfTTdaZdLcQI8kS/6zAJG3vzVy4UQSLexxo7RHcysMq49xXWsqXdoD1ikTOB0wRRUS2sKM33Of1lI/tsN1EcpcR5yO+O/wCVdP4fb/iVRL/dGB+dctPbsmh4Z/mtLtocd9pGRXTeHhjTIvdQa4ZaOx2Q1jc1KKSipHYWikpKYEUy859azNUjL2cm37wGV+o5H8q1pBlPpVG4XKEHpUs0gYoVp1VpJmdGw20AAH61KGZDkc45X2wc1FacQBT1QlfyNTHkVJoXRMGuPLGNpTcp/wA+1S1mw/JLG2ekg/AHjFW4Z/MllH8K8r9BwTQZtWC85t9v951X/wAeFXX6NVG5YMluQcq0yVeblTTHEli/1a/SplqCI/IPpUy1SJZIKfTBT6ZmwooooEFI/KEUtB6GgDl9RdrbWTOg+ZVSQD1xkEflS6tEq3onj5iuUDg+46/pg1JrabbyCT+8jL+RzUcWbnR5IMZlsz5kY9U7j+Y/KmtLMp7mfIvFJZXBtLoOfuHhx7VIcMMjkGq0i4NaPUgm1C3EFywX/VuNyH2Nb9j+8s7OLsVDt9B0/XFY1v8A6bZm1Y/vovmiJ7j0rY0TLWauwIIAjAPbHX9azKRsR081GnSn0CZVubLzJDPbuIp8ckjKv7MP69abb3pDiG6RoZewPIb6Hv8Azq7SSQxzxmOVA6HsaLCv3FBBGQcilrPZLjT2LAtNb+vVk+vqPfrVyGZJkDIQQRng0XFYa0vlSbHHyt09/ao5bRJQHibYw5Ug9Pp6VNNEs0ZR/wACOoPrVOKWSCRopMbxyfRh6ikxryJI5nRvLuQFbs46N/gamIzTgUnj5AYdwaiMUkHMOZE/uHqPoaB3FIyMZwRyD6GrEUm9OeD0I9KrrIkoyh57g9RShtjh+x4b/GmgauTHg0x13YIOGHQ+lSPyM1BHIHZ0PDocEfyNAkTxPvBDDDDqKeRmoM7XD/ganpolqxBcW6TRujrlXGGHqKw1fUbC68hZjKqjcqSc719j2NdGRVO9tfORSuBIh3If6fjQUnfcntbhLqBZY+h4IPVT3BqasmNjY3PmdIZcCQf3T2b+hrWpktWCiiigQUUUUAFFFFABVLVXItRCv3p2Ef4Hr+mau1lzSfaNU+XmO2UjP+2ev5D+dDHFXZJHGEUKBgCpAQKbmj3qTUeGOafVQ3kO7ahaVh2jXdTg12/3YBGPWRufyFAi1S5qqIbk/euAPZUH9aX7PIDkXMuffBH5YoEWaKgExiYJcYXPCyD7rH09jU1AC5oNFITQAe1AkKdfmX9RTSabuwaAsWgQwyDkUtVkJByhx7djUySB+Ojdwaohqw+iiigQUUUUAJRS0lACEU0in0lIZEy5qJlxVgimMuaCkyEGnByuD270hGDQMEYNIotKcinVVhcqxQ9R09xVkHIpozasLRRRTEJTGFSUxqBoqx8Bl9DS0n3Z2HqM0tSaEsZ4qYdKroeamU00TIfRSUtMgKKKKACiiigAooooASkzS008UAOopFNLQAtIaKWgCN1DDBFVTmNtp+6ehq6RUMsYZSCKTLiytIiSoySKGRhgqehqiGfTflkLSWfaQ8tF7N6r71eGVO1uvY+tFIsAQQCCCDyCOhoPIwapGCWyJezXzITy1vnp7p/hVmCeK5j3wvuHQjoVPoR2NAFS/wBNjucSKTHMv3ZF+8P8RXCXMTW93LE3BRiDivSq4fxTD5WsyMBgSAPTRMjNU0+o0NPFMgKKWkoAWiiigApaSloAcKeKjFPFIBwpaQUtMApDS0lADSKjYVKaawoAjpKUiigCIgq2RUgORQRkVGDsbB6UbgSUUUUAFFFFABRRRQA10DCuy8K+ITchdPvn/wBIUYjkP/LQeh9/51x9NZTkMpKsDkEcEGgD1qiuf8Ma8NSh+zXLAXkY5/6aD1Hv610FAgooooAKKKKACiiigAooooAKKKKACiiigAooooAKKKKACiiigAooooAKKKKACiiigAooooAKKKKACiiigAooooAKKKKACiiigAooooAKKKKACiiigApksgjXJ57ADuaJHWNCzHAFVLmRoYGuXH7w/LEnoTwKTY0iBpWMs0rHJH7tfr/F+XSo4h82T2pgAVVQHKoMA+vqfxPNSDgYFQbIcTuanAYFIo70pOKQATVe1+ZC/wDfYtTrh9sLH2p0C7Y0X0FAy7GMIKU0AYAFIeoqiBRSmgUGgAqvKcyY9OKnJwM1XUbn+tJjQ2P/AI+Zj/dCoPyyf50zUomk0i5CfeCF1+q8j+VOi6yN/ecn+n9KtxgGMBuQetAmeZeIrgXWuzyL90BVH/fIP9auaUwSxhb0BY/mab4it7aG3gdVC3gnaGbB5YL0JH0xUNs+zRt3pE39afQfVk3htd80859Ao+pOTS69NvvwnaGMD8Tz/hU3h1cWR/2pD+mBWVqE3nXdxIP4pDj6Dj+lMXQiiyHyf4q1NN0ybUS5jYIi8bmGcn0rN+6gPpXQ+Gtct4jHa3QWLA2o/wDC319D70O4lbqQaDbSf8JDDFIhDwMzOP7uB/iRXa9DSCGJJnmWNBLIAHcDlgOmTSmobuXFDYG8uQxfwn5k/qKlYYPHQ1BKrMmU++p3L9fT8asRus0SuOjDNC1B6CDmnqaYODRIShDjp3polk9IRSqQVBHQ0uMiqIMbX0khhh1OBczWTbmA/ijPDD+taVtPHc26TRNuR1DKfY1IyK6NG4yrAqR6g1z/AIceSxmm0yY5WORhGT2x1H5EEfjU7Mtar0OgxipAcrTSCVyvWo0fcOPxHpVE7jLmMMMn7p4b+hogkLqQ5/eJw3v6H8akOGBB6Gs29mNiVuz9yM7J/dCev4Hn86TGtSTUIQJo58ZV/wB1J/7Kf5j8araZKbWdrCQ8IN0JP8Sen1X+Vak0S3EDxE/K4wCP0NY9zFJcWySoNt1A25f94cEfQ1L7mkXdWZs1GTsmz26GmWdwtzbpIvAZcgentTphk/UUybFG4sYRq/2lwWaReN3RSPT8KZcRNbz/AGqJSXQYkQf8tE/xHUVcvDmGOb+4QT9Oh/nT504Vx170mi4vSw+GVZFUhgwYZVvUVFeR71K+oyKgtR5ZeAdFO5PZT2/A1akffGp/iBwafQnZlaOXz4vn+9ja9ZzSCS5jjYnG7y5R/srjj8WxVr/U3eP4ZOPx7VXtYBLc6qScsZAq+3AP86ktaFe/vzZ2NygbEsrYQ+mR8x/T9a5NY8ndgnPAA71o6vcfaL0qp4RQv49/1qzodqJ7sylcxwdPdu35daqOxEy/aaQsely2smPOuExI3oew+gql4G05X1e5kuEBa2HCkdGJxn8MH8636q3MN9o7y6xYQLKsqgXEJznA6SDH6itouxg1ct+JLC28601F4huilCzkD70R+9nHXHX865jUrexvnZoAxtCxMTZx9cH0rV0nVZdREkt1KHlY8KOFVPYVbTTBGWazma3WQ7mj2h42PrtPGfpW8bxVpGEmm9Dnp9kdnJnAQJtH5cV02kRsmj2iSAhhCMg9agj8PxS3i3F3O9ywORHsCID/ALorYuJIrO2kuJvuIMn39APc9Kc5q1hRic3fx7tK1JgOt2ij3IUf41v6ZF5FjHHjGFArH1GIx21jp829ZJna5uDGpYqSfQe5x+FblrbrbQKiPI4/vSMWJrik7yZ3wVoEtFFFIYtFFFAhKqTr8pFW6gnHJoZUdzn4/lmuE9JM/mAakFJINuo3K+oRv0p4FQbIY6ggqc4b0pSGH3eARtb6f5FOZcrQvK0AJLKFtVU9Y5lYf7uf/wBdaobIIrJliEsTx92UqDVjTLk3FlFIfvY2v7MODTRNjShPyip1qrGcMR68irCmmiJImU08VEpqUVRmxaKKKCQooooAw9fQi1jlxxFKN3sDxWdaXH2S7jnP3B8sg9VPX/Gulu7ZLiCSKQZSRdprkyjxl4Zfvxko3v7/AIiqj2G+5YvLf7JdPCPuDlD6qelU5Vq88nn6WGPMtlw3qYj0P4f0qm/IqoslkKO0UiyIcMpyDXS6XdLcQBwNu4kEehHWuZYVteHsSW1xEf4XBHtkUpIcToI+lSCqsEhDeXJw3Y+tWhUobFp69KZUi9KZDCqE9k8TmaywrdWizhW9x6H9DV+ihq4k7FS1u0uARyrg4ZSMEH0I7Glu7czxjYQsqcox9fQ+xovLITnzYm8u4UcN2Yejeo/lUdrdFyYp18uZeCp/zyPel5MrzRXhuCo3qCpzhlPYjqDV+GVZk3L+I9Ko6kgt2N3z5bYWb/Z9H/Dofb6VEjtE4ZTz+hqb2KtzIv3Nt5p8yNtko6HsfrUEdwdzRXCFXA+Ye3r7j3qzBOsw44buKWeBJ1AbIZeVcdVPtT9BJ20YsLbkKk5x39ar3YaMrcxgloxhgP4k7j6jqKjQy28wQ4DnoP4ZB7eh9qsrIsucZDDqp6incLCo4dQQQVYZB9RT0Yrx6dPpVOD9xM0H8B+eP6dx+B/Q1bBzQMn60EZFMV1AAJwT096dnmqMyCeEMpVhlSMH6U2wdgrW8hy8XAP95ex/p+FWmGRiqN2skY8+AAzRg4U9GHcUtit0X6KyrbXrWXCz5gY/3vu/nWmrKyhlIIPQjvTIHUUUUAFNZlRSzsFUdSTgCqt1qNvbEpkyzdoo+WP+H41mSWuoajIJLsxwxA5WH72PcjufrQNK5ZvL+a4/c6cOG4M54A/3fU+9Nj8u0jWNnXI/hUZJ/qaemnp/y1kkl/3mwPyFWo4UjGERV+gqS1ZFYGeT/VxBB/ekPP5CpBYq5zcO03sThfyFWgtOC0CbERVjUKihQOwGKcM+lKFpaZNxuzNIUNSUUWC5BJGsiMjqGVhggjg1nM82lt8+6WyPRjy0XsfUe9a9IVBGMUWHzEEciSoHRgynuKbK7R/Pgsn8QHUe/vVSWzlsZGnsV3Rnl7cd/df8KuQypPCksZyrjIpFCbldA6MGVuQR0NNNV7kPYkzwqWtycyxD+H/aX+oqcMkiK8bBkYZBHegaFGRzTsh+vUd+9M6UUATLMycScr/eFThgwyDkVVDetABU7oztPp2NO5LRboqBJxnbINp/Q1NnNMlqwtFJS0CEoIpaSgBKQinYpMUhkTLmoSMGrRFRSLmkWmQPnAZfvLVmGQOoIqDGKYjeTL/sN+lA2rl+lpqnIp1UZBTTTqQ0AVZhiRG/Cin3K5ibHUc1HnOCOhGak0Wwq8Gp1NQVKhyKAZKKWmilqjMWiiigAooooASlpKKAFprU6kNAEW7BqUHIqFx2pYXyOevekU0S0tJS0yQppGadSUAVpotw/kahBzweo61eIyKrTRHO5eo/WpZpFkVV57QPL58L+TcYxvAyHHow7j9asdRkUUFFaO6xIsNyohmbhecq/wDun+nWsXxha74YLgDlcof51vzwxXEJimQPG3UGs3U7O6ayaFW+0QjDDd/rFx/6F/OgTOIQ1KKiZfLlZfQ4qQGqMx1FFFABRRRQAtFFFAC04UynCkA8UtNFOFMBaSiloASkNLSGgCNhTakIphFADaRl3ClooAYjYO00+mOvcUqNuHvQA6iiigAooooAKKKKABXkglSeBykqHKsOxr0LQNaj1e0ycLcRjEif1HtXntOt7iexukurV9kiHPsR6H2oA9WorO0XV4NXsxNF8si8SRk8of8AD3rRoEFFFFABRRRQAUUUUAFFFFABRRRQAUUUUAFFFFABRRRQAUUUUAFFFFABRRRQAUUUUAFFFFABRRRQAUUUUAFFFFABRRRQAUUUUAFFFFABTXdY1LMcAUO6xqWY4AqBFadhLIMIPur/AFNIaQKDIfPm+VV5VT2HqazLq4a6v+MiKBcgerHv9cfzq1e3a+U0pG6FPuL/AM9W7fhn86oxIyJhzucnc59WPWpZpFdSQVKgyaiWp1G1fepLFJxTCaUnNNpMCC7b5VX+8QP1q3EMuB71RuebiBfWQfpk1oW4+cU0DLNJ1Y0o5FInOT71RmOoPSiigCOU4T61HEMMWPRRmlnOMCkb5LKVvVCf0pFdCGD/AFSe4z+dXYvuLnpVNOFUegAq5H/q1+lCEzy7xA8zeIb37RguJSOBgY7fpihWxomPbH/j1bHjbSLiPUH1SNA1tIFDkdUbpyPQ8c1iK3/EncejEf8Aj1UJGtpL+TpQk9FZ/wCdYY+YoD9TWor7NA+sWPzNZiffP0oQ2TDnitXw/YC+1DBUGOEb2HYnPGaoRWUs1o93HkiF8FQOoxyfwrpvBkX+j3Vx2dwit6gDn9TQ2B0eMAAnNMIIyexp5oAyhqCr2GimwMEuHh7MPMX+v6/zoXhiv40y6DKizoMvCd2PUdx+VJaDepbYc5oKhkKnvQjK6B1OVYZB9RSjirMyO2YgNGeq1YB5qvINkqyD6GptwPSmhMewxzWDqUDR6mJYuGmUOp/20/xBrezkVn6mmYBJjJhYOPp3/QmlLYdN2ZZs7hbiBJU4DDp6H0pLkeU3mjp/FVGzcW16Yc/u5/mT2YdR+I5rTcB4yrdDwaFqga5ZDFIbBB4NQXUSSho5BlJUKMPaorZzFK0DnoflPt2/wqzN90H3pD2Zl+HLp/Jm024ObiybZk/xJ/Cf6VckUJfOvQTDeP8AeHX+lZ9wv2PW475RxJHtkHqB1/TB/CtLUPlRZl5MZ3jHcDr+maS2Kejv3KkBNretF0jmJdPZv4h+PX86vS4JHoRVXUIjJHuiPzjEkZ9xyPz6fjTo5hNDHIv3WXI/woKeupJxLbPGevIP41JAfNtYyepXn61W3bZfZh+oqayb5JY/7jn8jzQiXoVpsxOsg/gOD9D/AJFLFOspdQCGQ4IP6Gp7mMNkHowwaySzQuk38S5SQeo/zzSehVr6lq9UsgI69P8ACqv7zbcSQyCITKZGfGSuAM4Hr1q7KQ8JIORjIrIvJ2j0+ZE5bzPLUezgH/GjqNbHOhcEHGM5PNdrounG20mHI+eQeY349P0rnJbLOsx2Q/vrGf0z/Wu+wAMAcDgCqRnMpwWoeXcw+Ve3rWhTF46U8HNWZM5zVfCyyTm70qUWtxnJQj5G/wAKpxXWrWB2XmmzkDq0S+Yv6V2FFaKbWhDimc9b6xuBKWN5K/ZVgYfqcAVOIZpWGoawFggt/nitg27aezMe7egHA9zWw7KilnYKoGST0FZ21tQmWaVStvGcxIern+8f6D8aiUi4RRFZ27PO2oXClbiXoufuJ2X/AD3NXVXcwHrTiKbWZte5NKQke0Dr2qDFL1OTzRTeokrISilNJSATvUU46fSpajm6CgpbnP3H/IWmH/TJP61KozUVx/yF7j2jQfzqePpUM2WwuKjxtkx2NT4qOVeM+lAxAMHNUtKl8jUbq2Y4V5CV/wB7/wDVV4cjNZN+DHcXLKcNhJFPoRVR10Im7anSKcjjqOlTxvuFZ+n3a3lssy8E8Ov91u4q3kqdw/EUg3LQNTIaqowIqVTiqM2ixRTVanUzMKKKKAFxkYNc5r9v5NxHdAfLJiOT2P8ACf6V0YqG7tY7y2kgl+664z6ehphc5S3n+zXCykbkGVkX+8h6imzWElp5oiJltkO4EclUPKt7jt7YqPbJE7wzDEsTbG9/f8avaXem2uYw5+VAQP8AcPVfw6j8acv5kNdjKbBGRzWp4cfF1PH/AHkBq5q+hb91zp6jJ5aEdG919/asrRJNmtRqcjejKQRggjtTbuiUdUY1lXa34H0pUmaIhJ/wfsaVDzUpUOu1gCD2NQUx45qQdKpiGSI5gfj+43Sni5kTiS3ce68immS12LNIzBFLMcAVB9qLfcgkJ9xilSKR2DzkcdEHQU79ibdydSSoJGDVa9tBcKGUhZl+639D7VZopgnYz7W58wNBcLhx8rBv5H/PNZMNjd2d1NaQMJo0+eKJzglD/db2PGD7VtX1oZf3sQ/fKOn98en+FVPNMqRzIMzQHcvqR0Zfx/mBWbXc0T6ogjlIfGHjkHVHGGH+P4Vp210JRtbhv505lhvIFYgPGwyp7j/A1SltZYDujJlQf99L/jRZoNJbmhLEk0ZjkXKn/OaqspWRYp2O48RTjjd7H3/nS2l2JFCsQfRqtSIkkbJIoZW4INVuTqjOvDIkYcr+9iO9SOjDuPxGasxyK6q6nKsMg+1NO6NhBOd4b/VyH+L2P+1/Oq0MrJJNCR8sTDp/dIyD/OkVuW5z89s3pKB+YNWd3NUZpMm1wcgzr/I1cpisTA5FMkXPNERyCPQ0+qI2Zz1xbC21TbtHk3I6EcBqmIk0xWntVDRD/WRdAfcehrQ1G1+0wYXh1O5D6MKgjYTwgkcOMMPTsRUmi1QyPU7uVfksNvu8n/1qRo7y6/4+rgJGf+WcPy/metFkSISjHLRsVP4VbUZouFkhltaw24xFGq/SrGKAKXtQIMU4ClC8Zp1OxLYgWlpaKZIUUUUAFFFFABRRRQAlRJAI2kK8B23Y9D3qaigCEjsR+FY7k6ReBT/x4Tng/wDPJ/8AA1uMuar3NulzbvBKMq4wfb3pFpjPx4pDxWXo9w8byadcf62AnafVa1DSKQUoNIDxS0AOzlcEAikUvH9w5H900gpelAiaOdXOOjehqUGqhUP1/Onqzx9fnX17imJos0U1SGGRTqZAUlLRQA0imsKfTSKQ0V2GDTHUMuDU0gqI0jRC2sp+433hVus+RSCJF6irkMgdARTRMl1JaKSlpkDGGRVVRtXYeqnH4VcPSq8y7SJB9D9KTKixlPQ4NMIo70iywDThUaNmng0yGh1LSClpkhRRRQAlFLSUALSUUtAEbioQdkvs386skVBMp25HUcikUiYHIpaiifIB9alpiYtFFFAhKRhkU6koAqSIVOR3qPqMirjrmqjjY/8Asn9DUmqdxKKUikoGZWp+H7TUJHmy0M7DG5fuk+pFcpfadc6bLsuE+U/dcfdavQaZNDHcRNFMiyRt1VqLktXPORS1tav4dltQ09iGmg6tF1dPp6j9axFYMMg0yGrC0UUUwFopKWgApRSUtIB4pRTRThTAWiiigAooooAaaaRTzSGgCI0lPIptACVGwKnIqSgjIoARWDClqIgo2alBDDIoAKKKKACiiigAooooAksry40u8S6tT8w4ZT0cehr0jS9Sg1SzW5tzweGU9UPoa8zIyKsaVqU+jXouIQWjbiWPPDj/AB9KAPUKKgsruG+tY7m2ffHIMg/0PvU9AgooooAKKKKACiiigAooooAKKKKACiiigAooooAKKKKACiiigAooooAKKKKACiiigAooooAKKKKACiiigAooooAKKKKACmu6xqWY4AokdY0LMcAVXRGuGEkowg+6n9TSGkKiNcMJJBhB91f6mo55ftDNEpxCpw7D+I/3R/X8qW4mMjmCFiAP9Y4/h9h7/wAqqTSKFEUQAReOP5UtikrkVy3nXCn+CLkDtnt+VJRSou5sVBqSRL/EfwqQ0YwMUUANNNpScmkpAV3G69j/ANkMf0xV6HjP0qkOb1/9lP5n/wCtVyLvTQpFk8KT6ChBhBSSH5PrTxxVEBRRRQBWm+aXFLe/LYSj/Zx+ooQbpiaNQ/48n9yv8xSGQk4NXY/9Wv0qgetX4/8AVr9KEORznjuC8n0eJbZ1EXmgSpnDOT90D157Vxs8Mlra3NvMMSRyDIz64r0DVG36jHnlbWEyAf7bHAP4AH864fWBlJpP745/A1RCHTtt0aIeuwVnocOSelXLo/8AErgHqV/lVOJ2jbzI/vo2VyM80IpnfeGrI2+nRiVPnYF2z2J7VroqooVFCqOgUYArjtF8SX5uooJYEnWVguR8pGe/p712R61DKWovanR9xSDpSp1oQmQn5Zl9+KmxUV0CBuHXrU4+YBh0IzTC5Rs5fs11JYueB88RPdD2/A8flWhWP4gikFrHe2/+vtX3D3U8EH2q/p92l5arKuR2KnqpHUH6ULsDWlywy7kIqLcVUOO3DD+tT9KiK7XYdjzTJRKpBGR0NMlUPGysOCMGoYn8ubym6Nyh/pVjrxQFrGJJG72OF/10B+X/AHlP9R/Ote2nW4t0mQ/K6hhVEjy7uZfXEg/kf5Uult5clxa9kbcn+63P881K3NJaq4++GxlnA4Q/N/unr/jVgndBk8kd6bcKGG09CCCKgs5CbZ42PKfL+XT9KZPQivwBCsuM+U4c/Tof0NSQP+7a3fnyjhc90PT/AApZFEkbxnoylfzFU4ZCYLe4PXaFf6dD+opFJXRbt8tZBSfmhYxn8On6Yqvb/upZoewO9Po3/wBfNWLY4uriL++ocfhwf6VXuh5VxDL23GNvoen6ikxrsLdMVjDjqpzU9m/+muOzxhh+B/wNQz8wtUenv+/t8nlS0Z/z+VHUGtDUnXKZ9KypxsuASMqzBv6GtlhlSKyNRBWKOT+6+0/j0/UU2KLI4gYJJLRjwn3Ce69v8PwqnFF517En8JnjY/8AAef61p6pFhvOHVDz/un/AOvg1Hp1sZUt5wMf6SXP0xgfypW1Kb925Ugt93jFieikyf8Ajv8A9eunqmLTbrBuwow0O0n3B/wq5Voyk7iiiikZ1RSzsFUdSTgUyB24ijf7VGkiShthztYqeMcjrTqAsQtE07BrjBUHKxjoPc+pqQ06kNIoaaTFLijFAxuKWlxRigBppppxppoGhKjm+6PrUtRzfc/GkUtznpx/xNLo+yD9KsRdKglOb66P+2B+QFTxdKhmy2JaRhkU6g0DK8fGV9Kz9UXErejQ/wAjWkw2yg+vFUtVXiM+qsP5VUdyKnwmZpl82n3Ic5ML4Ei+3r9RXXqysoZGDKwyCOhFcSihkrS0XU/sbi1uW/cMfkY/8sz/AIH9K0nHqY059GdJnYc/wn9KnRs1FTQfLP8As/yrI2auXFapVNVUbNTK1UZNE1FIpyKdTIClpKWgRg+I7PayX6D0jm+n8J/A8fjWKR7kEcgjsa7WWJJ4XilXcjgqw9q42aB7W4ktpTl4jjP94dj+VXHsBueH9T+0I1nPgTRDKf7a+30q7d6ZBc3Ed0o8u6jOVlUdfZh3Fca7NHIskbFJEOVZeqmuhsPEsLIE1AeS/TzAMo3+FJqwehe85oDi7Tyv+mg5Q/j2/GrqkFQwIIPQjkGiKWOdN0UiSKe6kEVEbGNWLQF4GP8Azz6H6r0pBcnXrUlUWlntz+9eCQeu7y2/I8VYt7gXAJEbqB3YYB+nrTQmT0lLTTTJFFLTQeadQAlZt9CYZPtMfCk/vB6f7X+NaVIwBBBGQeCDSauNOxmWUvlTmA/clyyezdx+PX86v1k3Vu0LmEMQPvQv6Y6fl/KtG2nFzbrLjax4Zf7rDqKldjR9yOe0WUl0Ply+vZvqP60lvcMj+TONr9vf6HuKtUySNJU2uMjqPUH1FFhDpI0mjKONyt1rIfzLbWIUlyfOjMYk7PjkZ9+taId7dgsx3RnpJ/j6GpLiBLiLY3GCGVh1UjoRTFsZ0xVLu3RQSxJkCjpwOv61oRSLIMqcj+VZNhFcnVrqW82+ZGoRNvTae49q0CrK/mRfe7j+9SK3LVucq3+8amqtaOHRiP7x49KsVSIluBGRiqEqeRcdMLKfyb/69aFRTxCaJkP4H0NAk7GSXFvqW1jhLlRj2ccfrWhGe3eqs8KXGwSLkcg+o/yadA7g+VK2ZFGQ399fX6+tI0LooPCmmq2RRIcRsaBE46UtNU5FOqjMKKSkLAdTQA6imeYvqKUOp7igB1FJS0AFFFFABRRRQAUxhT6a3SgaMO+jEPiCzmHHmqUb3rQNVNcj/cQ3I+9BKD+B4q2Tnkd+ak0Qgpw5plKDQMfgHqKUJkcEimg09TQSNKuOhBpQ7Dqh/CpaABTFcElU9cj6ipetRfdPFSKcihEsdRRRTEJSGnUhoAjYZqEirBqJhUloZimRN5Mu0/cbpUuKZIm9SO/agotA06q1rKWXa33l61YqjNqwtMYZFPpDQIq7djbD/wABoqaVNy+hHQ1DncOmCOopFpig4NSqc1BT1OKBsnBp1Rg0+mQxaKKKBBSGlpDQAClpopaACmsKdQelAFZPlZl9ORVhTkVBKNrK/pwaepwaRb1JqKQUtMgKKKKAEIzUEqBlINWKawyKTGnYoqSCUbqP1padPGT8y/eHSmKwdc/nSNRaSiloAKztR0Wy1Al3Typj/wAtY+D+PY1oUooA4q98P6hZ5ZVW5iH8cfUfVazeQcEYI7GvR+nIqlf6VaaghE8YEnaVOGH+NO5PL2OFoqxqNhPpt15E/wAwbmOQdHH+PtVeggKKKKYDhThTBTgaQD6KSlpgFFFFACUhp1IaAGkVGRUpphFIBlFLSUwEYbhUana3tUtNdc8igB2c0VGjY4PSpKACiiigAooooAKCMiiigDT8Oay2j3myVj9jmP7wf3D/AHv8f/rV6IrBlDKQQRkEd68nZQRXUeD9bKMulXTcf8u7k/8Ajn+H5UCOxooooAKKKKACiiigAooooAKKKKACiiigAooooAKKKKACiiigAooooAKKKKACiiigAooooAKKKKACiiigAooooAKZJIsSFnOBSSyrEm5j+HrUMcTTOJZhx/CnpSuNII42ncSzDCj7qUlzOxcwQHD/AMb/ANwf4+g/Gi5uG3+RbkebjLMeRGPU+/oKpvIsaeVDnH8TE5JPc59aWxSVwkkWNPJh4UdT/nvUFFKATUvU02EqxEu1cnqajjTc2T0FT0hjScGkJ4pD8zfpQx5oATNFJTkHOT0FIZAn/H1P7FR+lWoqqQcyXDespH5AVbipolliTqo96kqNuZFFOdtqFvSqJFBzmhjhSfakXpSSn92aAGQDqaj1H/j0/wCBr/Opohhaj1D/AI839ip/8eFLoHUrGtCP/Vr9KoHqavx/6pfpQhyMe+JN5qHskQ/Q1yGpR+ZaS46gE12d4n/EyuU/5626P+RI/qK5eVPmdD9DVkrYzLrnS7c+6/yqnF1I96vXSY0tV/55uFP4cVRHqOopDZ0fhSFWvnuHGREAq/U9f0rtXGG+vNcL4VmdtRMKsfLeNi6+hGMGu4jbfDn+JODUvcfQcvSnDrSL146GnYoExsq5T6UW/MCj04qTGRj1qODgOvoaYugksayxvE4+V1Kn6GsbTnNpcfNwHOyUf7Q4Df0P4VuN1rGvEC38yEcSAP8Anwf1FSzSGuht9aSQfKG9Kq6bcGWDa5zJGdre/oaunBBHrVLUzejKtzH5icHDDkH0NPt5fOiDHhhww9DTiM8darJmG7GR8svyn2bsaQ90NvBtuon/ALwKn+Y/lUA/dajDKOjqYm/9CH8jVrUwVthLg/u2Dfhnn9CapX8ixW/mblzE6uOfQ/4UmaR1iaVwflU+9Z8bCO9df+eg/l/k1ckbNuD6HFZ1wStxvHVU3j8D/hmhiii5VO0UNDPC3QSMPwPP9atgg4IOQelVbIf6VeJ6hHH6j+lIcR9tIftduzfe5jb69P6CpdQiMkUqDqVyPqORVS4zFc7h0OHH1HX+lalxztcd+aY9mZ6v5trv9VzVe3JS9X08xT+PFSRDyhND2UnH06j+dRJy24dUlT9akfRnQ96z9QTNnc8ZKYcfga0D1NRvEJPMVvuuuKsyTsMuIhJhSMhl2ketTRRrFGsaDCqMAClA6e1OFMTelhaKKKZItMmhiuIWimQSRuMMp6Gn0UCCkpaKAEpDS0UDG0UtJSGFJS0UANNNNONNNAxKjm6CpKiuWCrk9gTSKW5zqNvkmf8AvSt/OrUXSqNnzbIx/iy35mr8XSoOhbEopaBRQIZIMjPpzVLVh/oyN6N/MVoGqWpjOnt/ssKcdxS+FmBF92h0DDBFJF92n10nGjV0TVdm2yum46RSH/0E/wBK364l0DrgitvQ9UMhFlctmUD925P3x6H3rKUbam8J30ZtAbOnT09KnjbNQ0qnYc9v5VBbVy4hqUVXRqmU1Ri0OpaKKCQrG8R2e+BbxB88Aw+O6f8A1uv51s0EAgggEHgg96YHBTCq03+of2Ga0NStDY3clv8AwD5oz6oen5dKosNyMPUEVpuI7GO2tpokkaBNxUHcBtP6VYSztsf6rP1Y/wCNVtLk8zTbdvVBV9DWRoxYoIYzlIkU+oXmrFRL1qUdKpGchaa3Ap1MlOI2PtTJQ1TUlQ5wc1KpyKRTHUlLRTJILu3FxCVzhhyrehrMspTDebGG1ZztIP8ADIP8R/IVs1mara7gZUO3dgMf7pH3W/OpkupcX0L1FQ2s/wBptklIwx4ZfRhwR+dTUDEYBlIIBB4IPeqwlFmDvb/Rx3P/ACz+vt/KrXaoZohNG8TD5XUqfxoALqFn2yxAedH0/wBod1P+etMikWRQ6H5T69R7fWqWiXDJp0QlYlEJjYnqhBx+X8quTr9nn80cRSkB/wDZbs30PQ/hQC7ChXWV5IuWHJX+8KuRSLKgdTkGq8Z2z/UYpX/0eTzVH7tvvj096FoEtS1SUAgjI6UtUZlORNsrD1+aoZoy6ZQ4kQ7kPof8DV2ZCy7l+8vT39qhTBYEdDSNE9BsEokRZAMZ6j0PcVKwypHrUccWC5X1wR/I09T2pAOhba3lnp1Wp6ruu4cHDDkGpY3Dpnv3HpTRMl1HEZqFok3ZZc/Wp6QgEc0xJ2IPKiP8Appgi/ugVK0bDlefY1HvwcOCp96ktMBEF+6zD6GnLKUOJDkf3qM0EZ60BuTA5GRS1VG6I5jPH901LHMr+xHUHtTuS4ktFJS0yQpD0paKAKl3ALm2mgP/AC0UgfXt+tVbGUzWcbn72MH69/1rRcYOazIsW+pz2x4WUedH/wCzD8/50maRZYNJTjTaRQoNPU1HS0ATqaXOKgVyDtb8D61MDmgmw7gilU4NMHFOBoCxKDRTAacDTIsOpKKKYhDTCKfTTSKQzFJTjSGkUQyAxuJV7datIwZQR3qLqMGmQkxSGM9DytANXRapaQGiqMxCKhkXB3gfUeoqemkUDTK/uOlANDDY3+yf0NB4pFkintUoNVwalRs0CZJS0gNLTICkNLSUANzg04GonOGHuDTlbIzSGPooopiI5V3KR61FGSV56jg1YIyKr/cl9m/nSKROhp9Qg4NSjkUCYtFFFMQUlLRQBG65FU5VMUm8fdPWr9RSxhgQaTRcWVj7UCmJlGMbfhT6RYUUoFKVoAbQaXFBFAFDV7Aajp8kPSQDdE3ow/x6Vwik8hlKspwynqD3Fek1zXiHSPNvVuIBteYc47sP/rUIlq5ztFDB4nMcqlWHY0VRAtKDTaUUgJBS00UtMBaKKKACiiigBDTSKdSUARkU2pCKYRQAlFFFADHXvSo2Rg9ad1qNgUbIoAkooByMiigAooooAKKKKACkdScFSQwOQR1BpaKAO98M62NVtDHMQLuEASD+8OzCtuvKra6m0+9ivLc/vIz07MO4P1r0zT72HULKK6gOUkGfcHuD7igRZopsjrGjO7BVUZJPao7a6gu4/Mt5UlTOCVOcH0oAmooooAKKKKACiiigAooooAKKKKACiiigAooooAKKKKACiiigAooooAKKKKACiiigAooooAKjmmWFNzfgPWknmWFcnlj0HrUcMLM/nT8v2X0pXGl1YkUTSP50/X+FfSkublt5gtyPNxlnPIjHqff0FJc3TF2gtyN4+/IeRGP6n2qizqqeVFkJnJJOS57kmlsUlcV3VE8qEnbnLMTkse5JqKipY4ieW4FTua7DUQsfapWGBtWncKv0pEHc9TQIULtGBQzBVLHoBmlqC5OQkf8AfPP0HJoAdECEBPXHP1pDTjwoHrTKllIKkPAC+tNQZOfSjOX/ABoQENt9xj/edj+tWoutVbX/AI90Prk/qasx/epkssn/AFw+lJLyUX3z+VGf9I/Ckc5m+i/1pkki/dpsv3cU4dBTZOSBTAcgwoqG/H+gzewB/UVYHFRXa7rOcf7B/lQLqVD1NXoeYU+lUAcqD6jNX4DmBaSHIoav+4mtbw/cRjFL/ut0P4HFYWrWvkTlgODXV3EEd1byQSjMcilWrBCPcW0tnc/8fVr8rf7Q/hYexFUSjmL1f9HnHZlDj6g/4VDo9gdSvRCH2Ko3McZ79Kv3MJw8ZHPOKp6Hfw6TqBe5LeWQFLKM45oZXU75LCG3JmSJFmbhmCjJHuafE3lyqf4X+U+x7VJbXMN7biaCRZI26MpyKasYffE38QyPqKkd+5JjY5X8RUvUVCrGaAMf9Yhwfr/9enxNuHFMkfTF4mb3GafTT99T+FMQvc1m6qgV4Je+Sh/HkfyrS/irO1ZpHsmMaYWNlYyN7HsO9S9i4OzRXWcWcsVy7BYnOx8/ofz/AJ1da7u5l/0G0wO0lwdg+oXqf0qnbWsTI+8F5Dx5jckfT0/CtO0kMkI3cuvDfWiJVRamYbHVJ3KzamIwOqxJj8qhuNGucY/tSY5/vDv+dbErbJg3tz9KW4HyZ9DQSmYEWjTXtt5kmoyE8hlOTgjqOtRRaJB9laVpHlfY20HgAgGtW2k8m+liJ+WVdw+vQ/0otekiH+GQj8Dz/WpNFcLabzbNWz94K35io2wb2MHoUYGodNJFskR6oCv5Eipet+nsrfypDS1H2pPkhT1T5fyptif+JrIP70B/Rv8A69LGdt1KvYnd+YpunAtqrN2WE5+pYf4UxPqPvV/dhj/A3P0PB/nVoEtYwseu0U24j3iSP+8pFJaMZNKjY9cc/nTE+hUuhsmDj+NcH6j/APXRbws9pMVGWY5HvtxRqHEKv/db+YrStoTCsKHqqc/XvStqVJ2RZ6nNFJS1ZgFKKSlFAC0UUUxC0UUUCCiiigBKSlpKBhSUppKQwpKWkoAQ0lKaSgYlZ2tSmKwnYdRGQPqeK0qxdfbckUP/AD0lUH6Dk0mVHcoxrsjRP7oAq1D0quOTVmLpUHQS0tFFAhKq6kM6dcey5q1UN4u6yuF9Y2/lTW4nscvD92pKitjmMH2qWuk4wpjqTgqSGByCOoNPopDOl0jUPt9tiTAuI+JB6/7X41frjIpZLadLiE4kT8mHcGuutLmO7tkniPyuOncHuDWMlY6IyuizE2Pl/KrCNVT6danjbcM0IUkWgaWo0ORUgpmTCiiigRl+ILE3dj5sa5mgyygfxDuP8+lcgpBwRyDXoY4NcZrdj9g1EhBiCbLx+gPdf6/jVxYGv4fbdpcY/ukr+taqHmsTw23+izJ/dkJ/PBraTrUldCdetSjpUIqVTTRMh1Rzf6lvpUlNYblI9RTIIOop8LfwntUan5VPtRnadw7VJpYtUU1SGUEU6qMxKR1DqVYZUjBHrTqQ0AZdqDa30lsx+WUb1PqR/iP1Bq/VfUImaISxDMsJ3qPXHUflUysrorocqwBB9jUmm4hODmlzkZoYZFMBwcUDM2wHl3WoQdlm8wD2YZ/nmrsZUD7PKN0L/Kue3+yf6VUx5euP6TW4P4q3+Bq2QGBVhkHqKAsNiLRv5Uhy8RGCf4lPQ/0P0q8MMMEZB61Rl3sgPLTwjI/6aJ3H1/qBVqCQPGrKcqRkH1oQmJATDIYGPHVD7elWahuIzJHlfvryv1p0MgliVx37elNdiH3JKrSL5cn+y/6GrNRzJvjI79qYJjYR87H1psi7WyKLc7ufzqZhuGKQ3oyJTkUmfLk3fwtwf8aTBRsGnkBlIPekUS0tQwMcFG+8v61NVEPQKQgEYIyKWigRC1uOsbFD7dKjPmx/eTcPVatUUrD5ioHV/unn070jLk56MOhFWJIUk+8vPrUDRSR/dO4ejUi0xUmKkK/B7HsasBs1TDBwVYYPdTSrIYzgnK9j6UXBxuXaKYkgan1RmNYZFZWsAxC2vF+9byjPurcGtaqWpw+dYXEfdkOPr1oGhWHp0ptMs38yygf+9GD+lPNSaiUUUUABAIwacjkHa34H1ptBAYYNAFjrSioI3OdrfeH61MDQIcKcDTAacDQS0OpaaDS0xC0lFFAhppKU0lIobTZF3Lx94cinmkoKHQvvTPfvUtVx8j7h0PWpwaZDQtIaWkpkjGXIINQ42naenY1YIpjoGGDSKTIqUHFIMg7W6+vrRSKJ1bIp4qupxUynNMlofRSUtMkgn4Ab0NJGeMelSyLuQj1FVYm7HrSLWxbBpajQ1JTJYVDMuVyOo5FTUhFAIiU7lBHepENRKNrFex5FPB5pFMlopAeKWmQFFFFABSEZoooAq3MO5cjqOlRI29c9+9XmGRVGVfJl3D7rdalmkXfQkUVJjioxUgoGNK45pCMin00jFAEZFVdQhMtm4T/WJ86fUc1cYU2gZh3dlbanApkXBYZWRfvL/jXL3lpPp0wjuBlW+5IOjf8A1/autiXyZJoO0Tnb/unkUs8EVzC0M6CSNuqn/PWpTsaOCmrnGg5FKKsalpkumN5iky2pPD909m/xqsrAjir3OdprRjxThTBThQIdRQKKYBRS0UAJSGnUhoAYRTCKkNNIpAMpKcaSmAlBAIwaKKAI1JRsHpUlNdcj3ojbIwaAHUUUUAFFFFABRRRQAEZGK1vC2sf2XfG3nbFrOe/RG7H6HoayabIgZaAO41ObVbLXIxBNGbS9ARfPQssUg7cYxkc/UVZ0WSyS6nRdRS8vp/nldQAG28cAcYHA7n1qj4X1BdW0mbTLtyZUjMZOeWjIxn6jp+VAQaXfWqT3bX93BEUtrS2hVCFOAWbngcDk4FAjp6KzNO1VLolJXiEpYgCLcyjHbeQAx69K06ACiiigAooooAKKKKACiiigAooooAKKKKACiiigAooooAKKKKACiiigAooooAKhnnWFfVj0FE86wr6segpkEB3ebNzIf0pDS6sIIG3edNzIeg9KhubppGeG3faF4lm7J7D1b+VMuLsz7kgcpApw8w6sf7qe/v2qozAqqIoSNeFQdqV7FqN9WKzKEEUQ2xjt3J9T6mmgEnAoVSxwKsIgQep9ak02EjiC8nk1JRRQIOtFFITQAtVlPm3Tt2X5B/M/rU08nkwvJ1IHA9T2qO1j8uHB5I6n1Pf9aAQ9jzTKcaFGWqSgb5U9zTAe/pRKctj0oA4b6GmAy2GLeIf7Iqyv3qgh/wBTH/uj+VTrQSTqf9I/Ckz+9k/AfpTUP78GlH3n/wB80xE3amnmQU6kH+s+gpiH0Mu5GX+8pFFLnHPpQIy4Dm3jP+yKv2pzDj0NUYV2xFf7jsv61ctDw4/GkimT1R1KyeVku7XH2uEYAPAlXuh/p6Gr1FUQcpfRR3MX2iAEYOHRhhkbuCOxrlJreS61RraBQZGcAZ6DjrXReKr97bXy0D+U0cKhyBw+efmHftXLPeyf2mt4oKzFvMAUcZ/woH6np+j2kVjpsVtBysfU92J6n8asS/JIrjsaqaRcrc26un3ZFDAentV+RdyEVO43oyJv3NyHH3Jflb2PY/0pzDy5eOh5FAUT25RvTBpsTGeDa3+sQ4b6+v40wJs/MPcUN0B9DUfJj46jkU7O9MjvQIcetRXiebZ3Cdd0bfyqTrTgMnB6HigNjHsX3ID/AHlBq5btsuivaQZ/Ef5FZ2n/ACqF9Mr+RxVuYlFWQf8ALNg34d6hG81ctXP3k9wRTVk8yzOfvIdrUXsirEkjHCjJJqqr7Lhl6CZM4/2h/wDWqmZJaFO+k8m9t5ewOD9CKJWYXUwWR0UgN8px7VS1zUbe3lVMiWVCCYwenXgnt1rnLrUbi7P718qAAEHC4/rUpNmnMkb0AinnZFaaUiR+Y3OOo5zUs91HZXAIu3JAPysRIe3FcwbiUr80rAegOB+QqJblAcKpY+1NQD2h1gvZ72bcpFpCV+aRiNzD29Ks2mq6dp5nLzA/dVEQbiQB/ia5S3b7S+3IGB1bpVzTrmW0YzizgmTd/wAtl+9/umr9nK+xDnG250EeqtqFwpEsVlBnnc4MjfTsv1rTsgBp7qpBCyOAQcjGar6fqFhqbIsUaRzL9+B1AYfT1HuK0lhRI3RFChiTgDA5qbBdOxBFAsuC4yFYMB7irnfNMRQihRT6BN3YUtFFMkKUUlLQAtFFFMQtFJS0AGaSiigBKKKDSASiiigYUlLSGgBpooooGFc7qknmaki9ooyx+rH/AAFdBIcIcdTxXL7xNdXMw6NIVH0Xgf1qWaU0SLVmLpVZetWo+lSbEtJRS0CEpsi7onX1Uj9KfQOSKAOOtB+6X6VOajthhWHoxH61KRXScY2ig0UAFXdGvfsd55bnEE5wf9lux/pVKkZQykHoaTV0NOzO16GnI21x6Gs3RLxruz2SHM0J2sfUdjWh1GKx2OjdFxDUoNVo2yoP51Op4qjKSJKKQUtBAVS1ewGo2DwjAlX54m9GH+PSrtFMDlvDTnzLhGBU5GQex6EV0CnmqN1brZal9rUYiuSFk9Ffsfx6fWrvQ0FrYnXpT1NRocinCglk1LTVPFOqjMrEYZl9Dn86TtUso+YN68GoScGkaIfC207ex6VPVSrEb7l56jrQiZIkpKWimSNIqrboYhJD/CjfL/unkf1q3Ubp+8DDuMGkykxtVrtzAgm/gQ/P/u9z+HWrVMdQykMAQRgg9xSKMq7k2a5YD+8jr+Yz/Sr1c/J5kGtWNpISfIlxGx/ijI4/LpXQUDQpBOCpw6nKmm2ziOYxgYR8ug/un+JfwPP408dKimRjgp97IK+zdvz6GkBoqagT9zdMn8MnzL9e9LbyrLGrr0IzzRdKTEJF+9GdwqiOtixSUisHQMOhGadTJK6DZcMvZuRVioZhtdH9DU1IbI5E3DPeo0PY1YqKRcHIoGmMf5GEg7cH6VODkZqHqMUsDcFD1X+VCBomooopkhRRRQAUhGRS0lAEMsYYZ6EdDUHqD1HUVbYVBJHnkcEdDUmiZCj7X2Z56j3FWY5aqyIJU2sCCD26g+oqKOZkkEU5wx4V+gf29jQNq5peYO9ISr8etVwxoyaLi5SKyUpZRIRgqCv5E1IacD2pp60DQlJTqSgYlFFFAAy7h6EdDT433cHhh1FNFIwJO5fvD9aALANKDUcbhhkU+gQ6lzTaXNBI7NLmm5ozTEKab3pSaSkNBTadSUDDrwaepplKKAZKDRTQadTIEpMUtFMCJ0BHNR85wev86skVE65GKRSYzpT1OKjU5yDww60oNIbRYByKWolbFSA5FMhoU1TcbLj2bmrlQXSZTcOq80McQQ1Mp4qsp6Ed6mU0DZJRSA0tMgjcdx1FID3qQiosbWx2PSkUiRTT6jU08UCYtFFFMQlFLSUAFRzRiRCD3qSiga0KMRIyjfeWplNMuUKsJV7daVT3HQ1JpuSUlFLQAwjFMIqXrTGGKAMu9Xy76KTtKhQ/Ucj9M02p9UX/AETzO8Lh/wAOh/Q1CBzUSNoPQQgMpVgGUjBBGQRXMato72JNxaAtbdWTqY/8R/KuoxRyKE7DlFSOIjkDjINSitLVtDILXOnp7vAP5r/hWPFKHHvWidzmlFxepYFLTAaeKZIUtFFACUUtJQA00hp1IaAIyKbTyKaaQDaKWkpgFRuNrbhUlBGRigAByMiio1JRsHoakoAKKKKACiiigAooooAlsLx9M1GG8j5CH5h6qeor0d57WK0k1FE3q8YctEmXcY4HHJ615mwyMV1XgnVMo2lzN8yZeEnuO4/DrQIv6Bpt6kcMt7NJHDECLez4+Rexcj7zY/Kt+sjXJjpemPLbsYw8wMmDmQhjyEB43eg6VNockk2nJM6hUk+aMGQu20/3if4vUDp0oA0aKKKACiiigAooooAKKKKACiiigAooooAKKKKACiiigAooooAKKKKACoZ51hX1Y9BSzzLCm49ew9agRRGrXV0wXAz83RRSbGl1HQwkEzzn5+vP8NVLi6+1ocEpaeo4ab2Hovv3ptxMboBplK2/VITwZfdvQe35+lQO7SNuY5P8qluxoo31YO5bAwFVRhVHAUe1KiFzx09aWOMtyeBU4AAwOlIsFUKMClopOlAhaazdhTWfPA6UqDJz6UAPAwKD1oJwKaCM5JwByTQBDcnfNHH2T9439B/X8KmxtjAqvb5lcysMGQ7voOw/L+dWXPNIBhpV4Uk0neiU4TFIZD1OfWpolyD7jFRKMmrUYxgUwZWh/wBTH/uip0qtaEm1iz1x/WrKdaBD0++ppV5DH1Y/zpBww+tEf+qH4/zpiLFIv3mNKOgpF7/WmIfQfumihjhaBFAjbPOvuHH4j/61TWpxKR6iopzi7Q/30K/lz/jToTtmU+9IroXaWkpRwc+lUQeXeLbjzNbu+c/vcfgoA/nWZck+RGoPBz+NGpTG41G4lJzmRv55pkh3WkTf3Tg0DOv8Jal5Zjt3bhhujz9ORXbgggEdDXkVrKyWqSo2HhfIPpg16Xoeorf2SNja+PmX0P8AnmlsN6l7Hlzf7LVBMfs1yJv4G4f6ev4VakXemO9MI86HB6/1oBMftG7I6Hmox8khXsen1qG0k2EW7nj/AJZk/qv4VPKu5c9xQFrMfSjimRvvXJ6jqKfmgTMJSI7qdR/BKw/XP9ausVMTFz8uDk+1Yt/dmz1q7V0PluwZW6DOB39acniC3g4lhnX8BUI6OiEuNetBHbxsxk8n5iBxlhwOv51k6h4huJ2CW6iIg53KcsPxp+o61byLObe3+eU5Duo4yOaw0I6dB396pIyk7aITksSSWY9Sat2FjJfyiNDtToXPQf8A16hihM86RRkB3IUegzXWJax2UlnDCMIMrnuxHOTVMzRm3elRJZSQwKS4ZtrHqxUA/wCNczbx7pNp5x0Ue5rvXjkeRPLGPmclj2zVG50Q6VrFrq/lM1mr75kUbmjOD82PTPPtWlKXLK7FPWOhmz6VfaYkMk9tgz5VMfMQ2OFx61FEZJbcqSUnQFGDDlGHqK6bUdYh1eaG102QERSLM1yRwu3ptB6k1H/ZUM1493EoEzAiTzBuWTPcjsfcV0qbbvJHNJK1kznLS2nMCi6f98jZWRG+ZfQ59a6zw5rEmoQLDeAC5Ckq/QTKDgke47iq0uiTXJCIbe1U/eMe9yR7bulW7m1hsDpUduuGiuVRB32kHd+nNZ1VFx8yqbaZs0opKK5TqHUUUUCClFIKWgBaKKKYgooooAKSlpKQBSUUUDCiiigApDRSGgBKKKKBlPVLj7NZSyjqikj69B+tc7aKFgUCr3ii422qRKfmkfP4L/8AXqlaY+zx4ORtqWbQLCdatJ0qvGOasr0qTQdS0UUCCgdaKQ8A0Acpb9ZP99v51KRUdryZP99v51MRXSchGRTakYVGaBBRRRQBY065+x38cpOI2+ST6Hv+BrrOhriiAwIPQ102jXRubBdxzJF+7f3x0P5VnNdTam+hpxthsetWUNUvp1HNWkbIBHepQ5InBp1MU8U4UzIWiiimIZNEk8LxSruRxgiqNs7qz20xzNDgZ/vr2atGqt7CSFuIlzLF2H8a91/woGmPQ4qQGoI3V1V0OVYZBqRWoGToafUKmpQaaIaBxuUiq78gGrGciopF4NDCJF2pVba2786b0pQaRZaUginVXifacdj09qnBpmbVhaQjNLSUxERFJUjCoyOaktMyNatwGt74D5rVwzY7pnn8utXsg8g5B5BqSZQwIYZVhgj1FZ2ms0aSWchy9s20E/xIeVP5cfhQUi+DQQCCD0NNFPoGRW7mK4ZG6P8AMPr3/Pg/ia0BgjB6Gsu8BVFmXrGcn6f5/nV63lDoCDmhEyWglmcI8R6xtj8O1WaroMX0n+0gNWKaIe4yRdykU4dKKKYhaQjIpaKAID8rEU0nbKrevBqWRc81DIfkB9CKRa1LIOaWo1PANPBzTJaFooooEFFFFACUxhUlIRxQNFaRM8jqP1qvNEk0ZSRcqe1XHqBhzUmiZQiuHt7hbW6bO7/UzH+P/ZP+1/OrwPY1malueB4ru3JiPSaHLbfQkdRUGk6r5jC1uXDOOI5R0f2PvQM28UhpAcUuc0AApDRRQAlFFFABSg0lFAAfkbeOncVOpBGRUIoQ7G2/wnp7UAT0tNBpaBDqM0lGaBC5pKM0UAFFJRQMWgGikoEPBp4qIGng0xND6KQUtMgKaRTqQ0hleRCfmX7w/WkVgwyPy9KmYVBIpRt6j/eHrSLQ8U9WqMEEZHQ0opg0Tg5oYZGDTFan0EFVBtyh/hp6NzRMu1w/4Gmng0F7lhTmnVCjVKDQS0LTHXIp+aQ0CI1NSConG05/OpFPFA2OpaSlpkhRRRQAUlLRQA1lDDBqoFMbmM9uRVyobhNyhl+8vNJlRY1TTqYCCAw6GnikWFIRkUpooAqzRiWKSI9HUr+dZVsxaBC33gMH6jg1tSDmsdl8q+uI+xIkX8ev61L2Lg9SQU4LSCn1JqMIIrI1fRVuy1xa4juepHRZPr6H3ra600ihaCaTVmcKrsjtHKpR1OGVuCDU4Oa6PVNKh1FNxPl3Cj5JQP0PqK5iSOaynMFymxx+TD1B7itE7nPKDiTiimqwIpwqiAopaKAGmkNOpDQAwimEVIRTSKQEZpKcaSmAlFFFACMMihDkYPUUtNb5W3CgB1FFFABRRRQAUUUUAFLHLLa3EdzAdssTblNJQeaAPS7K7j1XTI7mAhTIuQSM7G+nsaSe8jtrOQNeW32iJPmaRgo3Y6kDpXJ+DtT+yXxsZWxFcHKZ7P8A/Xrb8Q6dDEsus26RreQxnIePesvoCMdQcYI57dKBGxZzm6s4ZyhjMqB9p6jI6VPWB4W3zxTXrTM5kbYyyNulDL139lP+yAAPet+gAooooAKKKKACiiigAooooAKKKKACiiigAooooAKKKKACmSyLEhdugpxIUEk4ArNuLhWYSSBimdsca/ekPoBSbsNK48uiqbu7bao+4vX6YHeq88jyustyuCOYrfqF/wBpvU+3akkdhKJpyrXAHyIOVhHt6n3qHlm7kmp2NUuoMzOxZjknvUkcXdvyp0cYXk8mn0ihaKTOKazn+GgQ5nCjmoSzOfanCIk5Y0srCGPIGSeAPU0DGA/NtHbrVgDAxUFuhA3E5Pr6mpmbapNAhkjc4FR3R/dLB/FKfm9lHX/D8adEpd8moVcTyNMpyp+VD/sj/E0DLMA4LevFKeTTgNqAegplIQqj5qimOWqUcKTVf7zUDJYV5zU6feFMUYGKev3hQIp23ECj0JH6mrCGq0efIkA4ILgfmaWwm+0WUE399AT9e9Ay4PvCiP8A1K/j/OhecUkf+pX8f50xFhfuihen40icoKcvemSOFMmOFAp4qG5PKj2oF1Kd44ji81jgRsG/XH9aeeD9Kpayjz2aW0bbWuJFTPoByf5VPZzG4tIpGGHxtcejDgj9Kkvoayncob1FR3T+VaTyf3I2b8gaS2bdFt7rUGsyCLRb5ycYgf8AlVozZ4+MlQepP8zV6SHbaNGP4Rn8RUdnD5k656INx/pU9xJsuY0HQcv+NA+hHp2HeSJujrmuq8MXLC04/wBfZny5FH8SdQfw5rkYs21yCf8Alm3P0/8A1Vv2tx/Zeqw3gP7ib93L/Q/59KGNHoMEyyorqcqwpWXZJkfdb+dZtu/2ScJn/R5T8p7K3p9DWoCGXBpITKt1ECc5wGPBH8LdjTrecygpIMSrww9fcVM6hlKt0NUpEbdlTtmj6H1FJlLVWJnJhk3Dp3+lTbgVyDwahimW5jII2uOCp7GoTK1q+H5j7+1AWK9/EJGm3DIOMj2xWamnW8yNsBilXhlU/KT64PHNbU20tuHIYVmyq0E29ATt6j+8v+IqdmXujFu9LdT/AMeSvuyFKSbefpWammTyy+V8sbf3ZG2/zrsLkrJbpIpBG4EEd81HdBJYlWRFcHnDDNO9gS5lqci0c9lIC6mM5yr+pB7Gtiz1uKYwi9+V42JEgHB4xyKngtPN8uOGUqAXJSQb0JHt261BdaRCvMtu9uf+ekB3p+XUU0yJQV9Dp9PiSVROrK8f8JU5BrQzzmuFtbPUbM+dpd2sq+kbYz9VNatv4lu4sR6hpsm7u8Yxn8Kq4uVroXb7w3Y3TtLDvtJ25Lw8An1K9KqLYa3ZHCNBeoOh3eW361eTxDYsu5xPH/vRGpY9aspCoRpTvO1f3R5PpVKo1pcl079CrHPrO7B00AY6+evWpbW2lS9judSljNwQUghiBKx5HJz3OBjPSr3n7/uKcep4pAiecZto8wrs3d8Zzj86TncFTsS0tNBpScDNSXYdS1nzXf2ZDM/KKRu9gTjP61oYwcUCasApaSloELRSUtMQUUUUgEooooASiiigYUUuDjpSUAJSUpptAwprttQmnVU1G5FtbSSn+BS2PU9v1pDW5lvtub64dgGjQCBQRkHHLfr/ACqq9o1qWe3UvCeWi6lfdfX6VatYjDbRo3LYyx9WPJqYVJ0W0KsDLIodCGU9CKtLTViRXZkG3dywHQn1p4GKQC0UlFABSOcIfpS02Y7YWPtQBzFnyGP+0f51YIqvYjMefUn+dWjXQchEwqNhUxFRsKYiOig0UAFaGhXHk6h5RPyzrj/gQ5H9az6QsyEOhw6EMv1FJq6HF2Z2oqWE4yvp0qtBMtxBHOn3ZFDCpgcMD+FYnQ9S4pp4qFDUoNUYtD6KQUtBIUUUUwKTJ9nuNg4ilJZP9lu6/j1H41JnFSzwieFoycZ5DDqp7GoLdzLGQ4xKh2uo7H/A0FJkqtUgbioSpHalViKAsThqG5FMBzS0CsR96ToaH4ag9KBh7dqljk/hJ5/nUINKDnrQFrlulqFHwcH8D61KDmqM2rBTHFSUhGRQCZAwyKzLseReW92OFJ8mX/dP3T+B/nWowqpcwrPDJC/3XGM+nvUmiHdDTgarWcrTWymT/WLlJP8AeHB/xqxQMUqGBU9DxVWwmCqE/uj9M4/Q/wA6tqeRWTE+yOOYfwsSfdSTn9Kluw1qbQb/AEtfeM/zqxVCNsXUYzkBTg+oq+DxVoykrC0UUUyQooooAQ8iq0i4VvqKtVDKMgikyoj1XinAUDpS0xBRRRQIKKKKACkpaKAI3WoWWrNMYc0ikysQQaz73Sba8+bHlS9fMj4P4jvWq61EVpFmWk13ZALdx+bGP+W0QyPxHUVdgnjuE3xOGHsc1IDz6EVVnsIpZPNjLQTf89IuCfqOhoGWqUVSFxPbDF6gZB/y3jHH/Ah2+vSrasrKGRgynkEHINADjSUtFACUUUUAFKQGGDSUtACxyfNsbr/OpgarOu4ZHUVJG+4YP3h1oBktFApaBCUUUUAFFFFABRRRQAUqnt3FJSHgg/gaAJgadUQNPBpkNDqQ0ZooEIaYRTzTTQUiuf3Tf7DfoakpWUMCD0NRISreW3UdD60ityUHFSKc1FSg4pktEjKGGD3qEgjg9uKmBprjIoBESnBqdTkVX71JGcikNktFJmimSI3IpqHBx+VONNI5pDJRS0wGng0yWLRRRTEFFFFABSGlpKAK5XY5X+FuRSipXXIqMjBqTRMKBRRQMbIMisnUh5d1bS9nzEf5j+tbB5FZesoTYO46xMsg/A0DTsRLUgqFCDgjoeamFZm7FApcZpVFP20ybkLLiql7ZQX0HlTrkDlWH3kPqK0StROlIe+5xN1az6bOIp+Vb7kg6OP6H2pVYMOK6y6torqBoLhN8bdu4PqPQ1yl9ZTaXOFkJeFj+7l9fY+hrRSuYThy6odRTUYMMinVRmFIadSUAMNNIqQimkUAREU2pGFMNIBtFLSUwChhkYoooAZG38Jp9RyDB3CpAcjNABRRRQAUUUUAFFFFADXB4KkhgcgjqD616P4f1QarpiTMR5yfJKPRh3/HrXnVaPh3U/7J1RWkbFvNhJfb0b8KAO01K9GkyxTtBGLOV8XEw4MbHAVj6jsT24qe71GCydDcZSFhnzz9wH0JqHWEvLi3FtaQQyxTgrK8jcKp9B3zXPaZYX0Dz2SmKe6sysamf5iiH7jrnjGM5AGcigR1FnqMF8zfZhIyAZ8wxkIfYE9at02MMsaq7b2AALYxk+tOoAKKKKACiiigAooooAKKKKACiiigAooooAKKKrT3ADGGI5lxyB/D7mgaVyC+uGY+TEpc5xtBxk/XsKqk+QxJYSXBG1nA4Qf3VHYfz706SURKY4jlj956hSMt7D1qDVIRVLnj86nRAo46+tKAFGFpScCkUFIW9KME9eKUACgQ3aT1pwAHSio57iG2UGeRUz0B6n6DqaAJaqgmebd/COF/qarTXM93KsEcMkEBG6SRxhivoB2zV+FAqZAx2A9BSHsSAYGB2qKU5YKKkZtqk02FSTuPJNMRV1SZrXTX8sEyyfu1x2J4z+FSW8QjEcSj5UAH5VFKwncSHlGcLGPZeS34kfpVqAfeb8KQ+hK3SmU5utJjJoENlOI8etMiXJzSznkCnxjatAx1OHWminCgRUHAuB6O9UvDkhbSkU9Udl/DqP51eb5Xu/8AfY/moqppkYgVVHAkhRvxHB/pS6j6GohwaSI/uh9T/OmZoiPyn2Y/zpiLkf8AqxThTITmP8akqiWKKrXR/ej6VZFVLk/vjQwW5TlG68i9I42b8ScfyzSQYjuZY+gl/er9ejf0NOPNzJ7Ko/nUdxkIsq/eiO78O4/KpH1NC2bbKB2biq3ihtvhu/PrHj8yKerZAYGq/iqUHwvdP6hQf++hVImRw2lw5ikf+820fhU/hyxGqeIl3ruiRjK4PQqOg/HipUT7LpG4/eWIsfqf/wBda3w/t9sV7OR1Kxj8OTTG9jC8R6WdO1BwB+6J+U+qn7v5cr+Ap+nbLywe1lPKDafp2Ndf4msku9OZ2HMXX12nr+XB/CuCgkfT73LjlDskA7j1/rQI63w9dm5s5NOu+Z7b5SD/ABJ2I+n+FbllcMrfZ5jl1GVb+8vrXIXPmW8sWpWZBlhGWA6SJ/8AqrpIZotRs4rm3fAb5kbup7g0g2Nv7wqvNHu+Zfvjp7+1RWV35mUkG2ReGH+e1W2GRmjcNmZsisWEkZ2yD9fY1Iky3SFSNso6qalmjz86de49apSx+Zh0O1x0YVJqtSN99tnaC0X93uv0/wAKUlbiMNGQcdDSrc722TDbL+jVFLAQTLA2x+/ofqKkqxVeQwJIh/1TH/vhs/yNOlY4GOuMCmSzrKr718uUAhgfutx2NJaMqXCo5+RQNpP8JPQGkVsrk9rD5Ty7f+Wblc/Xk1dDZGRTVQJuwPvMWP1pB8p9q1Ssc7dyGezhkbzFUxy/34ztNRrJeW/3lW6jHcfK4/DoauDmsy91Hy5Tb2i+bN0JHIU/1NNocZNF5J7K/iaE8McZU8MOc9DV+OONR8iKBuLcDuetYVtoU1w3nXzMXPPXDf8A1qt/Z9SsTmBjdxD/AJZucOPoe9TY05r7mtThVCz1SC5byyTHMOsbjDD8KvikJjhSnkYpBSimSZ2owGaxuYgDl4mA+uKs6ReJf6XbXCOGLRgPz0YcEH8asbQTmmQ2tvDK0kUEcbt95kUAn600KWpPS0lFBItFJRQA6ikzRQAUUEgAkkADua5rUPEhkJSydIIjwLiTln/3F/qfyoHGLk7I2r7UbXTwPtEuHb7kSjc7/RRzWVNqGoXZwmLGH2w8p/Hov61maWrL58/2a8mmkc5lMTMzL25NWjcyYwljds/QKY9oz7k9KltnRCnBfE7kM8DRSwtby3DXskqhHaZievzE84xjOa65uprI0mwaKRrq5IecjBI6L/sr7D9avtMd2AKaIqWctCYmkozRTMgrG1KQT3Mdt1AIlk+g+6PxP8q1Z5FjiJY4XGSfQd6wrQtKr3TjDXDb8ei9FH5fzqWaQRYpRSClqTYWkoooEFFFFAC1BetttJD6Cp6o6zIE02X1bgUwehi2A/0dfpVk0y1TbCo9qkIroOQjIpjCpTUbCgCFhSU9hTKBBRRRQBt+G7jdBLaseYm3L/un/wCvW11GK5HTLj7LqsLk4Rz5b/Q//XxXW9DWMlZnRB3RNE2R71YU1UQ4P1qyhoRMkSg06mA06mZi0UlLQIKy9Yt3C/a4GZJEGHK91rTpGGVIPNMDBCyEBheTsCMg7utLtk/5+J/++6e8P2WYwj/Vtkx+3qtFQ2zoSi0N/ej/AJeJv++qcHnHS5l/Oiildj5V2DzbnPFy/wDwJQakS8uV+95Ug+m01FRTuw5EWRqMAbbLuhJ6buh/GrSOrruRgy+oOay2VXUq4DKexqssRtJfMjaQR9yp+Zf8RTTuZyg0dCpBGDUqOQcHr/OqMMrbAzkOp5EidD9R2q0pDL1+hqiGWQc0VGj9j1FSZqjNqw1xVaQc1bPSq0o5pMqLM+P9zqcqfw3CeYP94cH9MVbqrcjF5ZN/tsv5r/8AWq1SLGTyeVbyyf3UJ/Ss9E2WwQ9kwfyqzqLZgSLvK4U/Qcn+VRdc5qJFIfYu0sMDZ+dUwfqK1YZAyg1kaPg2pyPmGOfw/wDrVfBMbbh07/41SJkrl2lqNGyKfVmItFFFABTCuTT6KAEHSloooAKKKKACiiigAooooAKay7hinUUAQZzkH7w60hFPlU/fUfMP1HpTQQygjoaktMidM9fzph4+9+dT01lx9KCiLGKqm2aFi9mVjJOWib7jf/En3FW8FeV5HpScHkUDIYLhZWKFTHKv3o26j39x7ipqimgScDfkMvKupwyn2NMWdoWWO6IGThZQMK3sfQ/pQBYxRR0pcUAJSUtBoABQynhk4YfrSU4GgB8bhxnv3FPqBgQd6fe7j1qWNw65H4igQ+kooNACbvnx2Ipajc4dT71IKACiiigBaQjIwe9LSUACNkc9RwafUJO1wex4NSg0CY4GlzTaM0yRaSjNJSGIajkTcOOGHQ1JSUFDEbevoR1FLTHGxvMH/AhT85GRQA5Wp/WoqepoE0RyDBzSxnBp7DIqEcHHpQBYFLTQcjNLmmIDSUtJSAO1ORsimUgODQNonopqnIp1UZi0UlFAC0UlFAAajYVIaYaRSGUClNIKRQVBcRrKjxt91wVP41YqKQcUDMKyLC3VG+9HlD9QcVbWoHXy7+5TsxEg/Ec/qKnj5rPqbrVE8YzUu2mxCpsVRm2RFaYy1ORTCtAJlZkqvPBHPC0MyB43GCpq6y1EyUjRM4zUNPl0uUHJktmOEkPb2b3/AJ01HDDiuvliSSNo5UDowwysODXK6lp0mly70Je1Y4Vu6H+6f8atSuYzhbVDaMU2Nwwp9UZDaaRT8UhFAEZFRkVMRUbCgCOkpxFJQAlFFFAARkYpiHacU+mOMHIoQD6KAcjNFABRRRQAUUUUAFIyhhilooA63wbrPmxf2ZcsfNjGYST95fT6j+X0rU1GNrbWrDUEHyvm1mx/dblT+DD/AMerz4F4pUmhYpLGQysOoNehaDq8Ws2O5gBPHgSxnsfUexp+YjWooopAFFFFABRRRQAUUUUAFFFFABRRRQAUUVnzXL3bNFauUiU4knH6qvv79vrQNK464u3kka3tCN68SSkZWP8Axb2/OqbMkKGKAnBOXcnLMfUmleREjEFuu2NeOO9IkWOX/KobNUrDY4s8t09KlpC1JmkUPpCQKaSTTJJEi2+Y2C33VAyzfQUCJM5psk0cRCuSXb7qKMsfoKkitLq45b/RYj2GDIf6L+tX7azgtQRDGAT95jyzfU9TTSZLkkUI7W7uOXP2WP0GGkP9B+tWUtbSwRpkjHmd3blm/E81drKv5/Nk2KfkX9TTehKbkyuoMspZurHLGrFMiXauT1NK7bV96k0Gt877R0FJKrzOlpCdryj5mH8Cdz9T0H/1qGdbeBpXBOOw6k9gPc1atYGs7SSabm4l+Zz6Hso9hQJuxSuQouY0RQqKrFQOw4UVPCMRj35qCcYvGH9yNF/E5J/nVlRhAPagfQSgDvS0jcKaAIPvy/jU9RxryTTz1pDFFKKQUooEVp+J7oeqg/8AjtQx/LHat7BT+IqxcD/S5R/eiU/zFV2H+hjHVVDD8KGNFmiL+Mf7ZoBDAMOhGRRF9+Qe+f0oAtwfdP1qYVBAeSKnFNEMUVTuP9c1XKpT/wCtb602CKmf9Im/4D/KnU0f62X6gfpTqQ2R2zbGaFv4Onup6H+lQ+IAZNBng/vvGB/30M1JOCu2ZRkx/eA7r3/xpNTw+mk5yNyMD68ikhvU5rWmCWQQfxuB+A5rp/B0Pk+H42I5ldn/AFwP5VyWvPiSFP7qs/8ASu80iH7Po9nF/dhXP4jP9asmW4ajgWzA9GZVx681xHiDT/IkMqDiMc+8fY/gePpiu31EZgX/AK6p/Os2+tvPiKgAyLkqD0Pqp9iKXUDldGvMYtJDyOYie47rV60uDol9u5/s+5bDj/nk3rWHe2xtLjapYIfmibuMdvqDxW1p91HqNs8U6guBiVPUeo/zwaYtzp5EEoWWJwHAyjjkEf1FWLW835SQbHXgg9v/AK3vXK6feSaJOLS7ZnspDmKTrs/z3H4iuhdFlVXRwGxlHHII/qKTXVAnbRmg7bDu/h7+3vUE8X/LROQeoH86it7og+VKNrDqP6j1FTbjCeOYz09qRaKU8QlTpk1WFy8JAkBdOme4/wAa0pYgfnj59QP6VRuYQ6lgMgj5hUM0iyGXaQZYgJI2G10xnI+nqOtKLJREDbSBo2GdsnIb8etNgVZD5bsUnA+WVesg9x0JH/16k81rJS1xt8jqZF6Kfce9NIUn23EjuGtyI7lWReis3IHtnuKsyOkcZkkdVjAzuJ4qpJLeXKb4GW2t2Gd7LukYey07T9DUOJ75mmI5jic5C+5HTPsOK0WhkxES61QYgLW1meszDDyD/ZHYe9adlYW1igW3jAPdjyx/GrNGaAsLRTaWgZXvLK3vVAuI9zD7rjhl+hqoDe6aPm3XlsP4gP3iD3HetOjpSC4y1u4buLzIJA6+3b2PpU9Z9zp6Sy+fA5trn/nqg+9/vDvTI9SktpFg1KMRM3CTLzG/49j7GkPc1KWmqwPQ06mSOopKKAFopKKAFopKM0CAgEEEAg8EHvVa10+ysubW1hiPqq8/nVjNFAxdxPemOivnI69cHGaUkDvTS4FA1foOACqFUAAdAKbgZziqlxqlnb/624jU+m7J/SsyfxRbKdsEUkp9T8o/WjcPU380hYAZrmZdavHKndDBE38aDeR+dSGD7QMz3M86nsWwv5Ck9Cox5tibVrtbuRbCBwzSH98VOQidx9TUnHQDA7CmRRRwrtijVF9FGKeKlu5slYUUtJS0gCiiigAooooAKxtcl3yRQDscmtW5nS2gaVzgDp71hzBmuI2lGJHHmEf3V6KP5mqirsibsiRBhRQwp46U1q3OcjprCnmmmgCJhUZFSmo2FAhtFFHFAEcwyvHB7V2FjcfarGCfu6DP16GuRcjb1rc8Mz7rWaAnmN9w+h/+vUTRpTetjcFTRtkVXFSRnDY9azRrJFtTTxUSmpBVGLFooopkhRRRQBXu7YXERXOD1VvQ+tZ6o7DBXDg4YehrYqneoYz9pQZAGJAO49fwqWjSMrFUQt6j8qDC3979KnBBAIOQeQaWlY0uyoYnHoaaQR1GKu4ppQGiw+Yp0VO0PpURUg4IxSKuMgm+xy4J/wBHc8/7B9fpWqrbTx0rLZQylWGQeCDU1jMVItpDlgMxsf4l9PqKpMylG2ppj5hkdR0qVGz161WRsGpgaoyaJu1V5etSg5FRy9abEjN1E7RbSf3LhD+eR/Wrg9Ko61xpzsP4GVvyNW5JFjjeV/uKCx+lIspXDeZft/dhTb/wI8n9MUjnajN6AmmQBhHuf77ku31P+cU5l3lI/wC+wH4dT+grPcol05PK8xPTb/WrwNMVQrMQMFjk06rJHK3ltj+E/pVlWzVUHIwacjmMhSfl7H+lMlq5apaYrZp1UZi0UUUAFFFFABRRRQAUUUhOKAFopoaloAWiiigBKgI8uT/Zf9DVimSIHQqe9IaYw0lIjFlw33l4NKaRYwr6UxkzyOG9aloIzQMr55wwwf50joroyOoZGGCp6EVM8YYYIqE5Q4bp2NAyojtYyrDKxa2c4ikY5KH+6x9PQ1epjokkbRyKGRhgqe4qvFK1vKttOxIbiGU/xf7J/wBofrQBbIpKKDQAlGaKKAFBpCCG3p97uPWilBoAkSQOMjr3FOJqBgc7lOG/nSpJu4PDDtQFhZTyv1qVelQSHOPrUy0CH0lFLQAlFFLQAxxuUikifcvPUcGlao87JfZv50AWM0ZpoNLmgQtJRSUALRSUUDAiol+RtnY/dqWmOu4e/Y0AFKDTQcjJ696WgCQHIqKQYOacpwacwyKAEjPGKkqBODipQc0CYtFFJQAU1qWg9KBixtUgNVwcGpVPFMlokzS5pmaM0E2H5opuaWgANNNLSGgaGmkoNJSKFprjinUjdKBmPqA230D/AN+NkP4HP+NSQ0mrDEcEn9yYD8DkUQVD3NY/CXIuoqbFQR9RVimiJCYppFPxRimTchK1Gy1YIppWkUmVGXNQSxrIjRyKHRhhlPQirrJUTLmkaJnG6lp76XMGQlrVzhGPVT/dP9DTEcMK62eFJYmilQPG4wynuK5PULGTS7gDJe3c/u3Pb/ZPvVxdzGcLaoWkNIjBhTqozGEUxhUpphFAERFMNSkVGRSAbRS0lMApGGRS0UAMjPJFPqJvlfNSg5GaGAUUUUAFFFFABRRRQAVPY3k+nXi3VqwDjhlPRx6GoKKAPQNI8R2WqMIgTBc/88pO/wBD3rYryV03c9COQR1FdLoPi14ittqzFk6Lcdx/vf4/nTEdrRSKwZQykFSMgjoaWkAUUUUAFFFFABRRRQAUhIAyTgCkd1jRndgqqMkk4AFZzltQ+aQFLPqEPBl929F9u/egaVxZJm1DKxsUtO7g4MvsPRffv2qGSTeBDAoWNRgADAx/hTpZTMdkfCDv60ABFwKhs1SsNVFQZ7+tIzZ+lKSTQFJ6CpKG4pHdIozJK6oi9WY4AojMlwxW0QSY4MjcIv49z7CjT7WK9uDcOxnihbCSMOHYdSB0Cj9TTSuS5JD4Ybi7AaIeRCf+Wjj5mHsvb6n8qv2tlBa5MakyN96Rjlm+pqzRVpWM3JsKKKhuZxBFuPLHhV9TTJIr248tNin5iOfYVmou9/aiR2diWOSTkn1NSxLhc9zWbdzdKyH0wDe+T0FOY9qZJv8AkhhOJZTtU/3fVvw/woAktYftV35rcw25wv8AtP3P4dPrmrtwN8kUfqcn6CpIIUghSKMYVBgUyP57mR+y/KP61VjK93cyZDvu7hvWXb+QAqzVOA7zu/vuzfqauVJqFI/Slpr9qABeFzSUrcDFIOTQA7oKB0pG9KU8CkMhn5vFP96Ij8jUUPMCZ7rUk3/Hxbt/vL+lRQH9yvtkfrSAW1J8gKesZKH8P/rVKnEr+4BqGM7Lp17SKHH1HB/pUoOJh7r/AFoAtwnDirHaqaNhgatseKpEsVTkVSlOXb61cU8VRc/MaGJFVWzNOPRh/IU/NQocXM49T/LFTLyaENhmql5+6sJ4T9zAaP25GVq4wxVe+QSWMykdFyPYjmgSZyOqgzat5Q9ET8//ANdel7QihB0UAD8K80mi+2a5JFuK75MBh2wODXd6HqJ1LTlkkwLmI+VOvo46/n1qhPcl1P8A48ZG/ulW/IiopFDE1au0821mj/vIR+lUYJPMhQ9yoP6Ugexka1pyXELORgZyxAyUP98f1HpXLDz7G77JNH+IYH+amvQmXPI61g6tpKTINmEx/q2PSMn+E/7J/Q0BuFrJbatZMrL8p4dM/NG3+ehqC2ubnQZxb3GZrRz8jD+nofVfyrHgluNPuyyr5c0Z2ujdD7H2966u1mtNYsWVk3RniSNvvI3+PoaY9y6GhvIFkRw6HlXU8g/0NME8tt8sp3Rno3b8fQ1hPHeeH7jzI2860kONx6H2b0b371u2l5DfQl4jns6N1X2IpNXEnYnSYDlDj2NOYJLlk+Vu49aqtblOYDx/cJ4/A9qYs437HzG/owqdtzZNPYbcwfxLkYOeOqn1FVpWe9uba3kBwMs+Putjv+Xb3rR80H/Wce/Y1Xngx8yEjByCOqn1FLYbV9zUhQAbsfT2qQKO3H0qtZXYuB5bgLMo5A6MPUf4Vb6VZm9BKKKKYgp1NpwoAKSlVC/Pb+dDqRQA2myIksbRyoro3BVhkGnUUAZv2O7sWzp7iWH/AJ9pW5H+639DU0esQKQl0JLWT+7OuPyPQ1coYB12uoZfRhkUrDHxzxSqCjqw9VOakyKzn0ywc5NpGCe6Db/KmjSrHGPIz9Xb/GgRotLGn3pEX6sBULahZp966hH/AG0Fc94m0y2g0rz7WBY2jkG8jqVPH88VhSRoLaB1UDK84HeqUbkt2O5bWdNBwb2HP+9UUmv6bGP+Pjd/uqTXDUhquQXMdfL4qsl/1ccz/gBVKbxW5/1NuB7sc1zlGaOVBzM1ZvEF9J0k2f7oAqjNd3M/+tnkb6sar5ozTshXYuBS03NGaYh6uyZ2ng9R2NXtP1E27iOU/uzwCe3saz80h5GCMik0mioycXdHYowdQyniniuY0/U3siElJaE8A9Sv19q6CC7hnXKOPzrnaaOqMlLYnpaQc9KKRQtFFFAgoJCjJ6UVV1ANJEkCNtaVguR2Hc/lQBDGBqF0ZZP+PWE8ejsP6CsyKVrq6mu26SMdv07Vq6o4s9HkSAbflEUY9M8f41nqiwokQ/gUCtYGNTsS01mAqtcXSxJmqT3E7bSw2KTjPpWhkaDSqO9QSXcS9WA/Gt+PwvY4BmnuJj1+8FB/KtC30uwtQPJtIlI7ldx/M1PMOzOM+0NIf3UUsn+6hNOFrqMv+rsZ/wAUIrvQSBgcD24oyT3NLmDlOFXRtYk6Wjr9cCpo/DWrOfnMUY/2pP8ACuzoo5g5Tl4/CMp/11+o9kQn+Zq5aaUukXcLrM0gmBjYkY56ityquoxs9k5T78eJF+o5pPUqKsx1Ozjn0qNHEiK69GAIp4NQbFmNsiplPFVImxx6VZQ00ZSRIKKBRVGYUUUGgYUUUUAZrJ9lufJ6RSZMR9D3X+oqSrF3brc27Rk4PVWHVSOhqlBIzqVkG2VDtce/r9DUs0i9CWiiigoKayBhyKdRQBVeMr05FROm9eCVYHKsOqn1q8RmoJYiOV6/zqSk76Mmtbjz4zuG2VOHX39R7GriNkYrGDNHIs0Yy68Ff7w9P8K0opVkRZIzlWGQatO5lKNi1mmvQrgih+lMko6knmadcr/0zNQXEnmw20IOQ6rI/wDujHH4n+VXpVDI6scAqQfyrIsA/wBljeX77KBj0UcD/H8alvQpFnqafZL5k7zfwpmNPc/xH+n51E293WGI/vZOAf7o7t+H86044FgiWOIfIgwB3pJA2Nop2M9KbirELSg5GDyKbS9aAHo5QgMfl7H/ABqwrZqr7GnI5j4JyvY+lBLVy1S0xWzTqozFooooAKKKKACmmnUlAEZbaeaN/NK65FQZIOD+BpFrUshgaWoA2etODke4/Wi4nEmpKRXDDg0tMkhlGyQSdjw39KU1I6hlKnoagjJK7W+8vBpMtC0UtJSKCkZQwwRS0UAVmBj68r/KmzQx3ELRSjcjfmPce9WmXIqswMR9V/lSHuQW80kcotbpsyY/dydpR/8AFCrVRTQpcRbHzjqGHVT2I96ZBM/mfZ7jHnAZDDpIPUe/qKYE9FLSUAFFFFAwpCob2PrS0UANJPAb16+tWFqE81IpxQJklFANFAhaKSigBrVE43Ajv2qV+lR0Ah0T7lBqWqyHbIR2PIqwDkUAwooooAKKKKACg0UtADCOc0lPIphoASnqcimGlU4NACsvOaVTS9aaeDQA+koHNLQAlLRSUAMIwacppGFIp5oAlzRmkooEOBp1MpwpiFpppaQ0CGtSChqQHmkWOpD0paTtQBnasu7TpyOqgOPwOaigOeR35q5cp5lvMn95GH6Vnae262hb1QfyqWaQ6mhGeRVkVUQ81ZB4oRMh9Limg06mSIRTSKfRigCIrmonSrJFNK5oGmU2TNVLy1jureS3mGUcY+h7EfStJ0qB1zUmidzgHElncvbT8PGcZ7H0P41YSQMPetDxbY5jjvUHKfu5Poeh/PisCCYg7WP0NaLUwkrOxo0001HzwaeaZIwio2FSmmMKAIjSU4ikoASiiigBsgyM0RHK49KcRkVEh2vQBLRRRQAUUUUAFFFFABRRRQAUyRMjI60+igDd8Ja8bOVNOuiTBI2InJ/1ZPb6H9K7uvIpFPY4PUH0Neo6Tdi+0u2uQcmRAT9eh/XNMRcooopAFFFFABTJpY4ImklYIijJJps88dvEZJWwo/Mn0HqaphJJ5BPdDbt5ji7J7n1b+VA0riEPeMJbldkK8pC3/oT/AOHamyuZzgEiP1/vU6RvMOP4fT1phPpUNmqQcKMAU05NLjueB60kSy3XFsNsfeZhx/wEd/r0+tIew13WMqpBZ2+7Goyzfh/Wp4tPef5rwgJ2gQ8f8CPf6dPrVu2tIrYHYCXb7zscs31NNvbhoI1WJQ88p2RKe59T7DqapRM3PsVrzN1J/ZtsfLjCg3DpxsTso9Cf0H4VfiiSGJYokCIgwqgcAVFZ2q2kHlhi7Elnc9XY9SasVRAUUUUANZlRCzEBVGST2rHmnaeTzTkA8Ip/hX1+pqa/nE0hhU/uoz8/+03Zfw6mqhJJyaiTNYR6iou5gKs9BUUK8FvwqQjNItgo7niptMiL7rtxzIMRg9k7fn1/Kq7J9omS1HRxuk9kH+PT861wABgDAFUkZzfQbI4jjZz2FRJ+5syx6hSx/nRc/O8cX945P0FJqLbNPuD/ANMyP0pkGRaDCQj/AGQf0q2f51BCMOo9BipicuB6CoRsx1NP3hTqTuTQAxjzSp3NNNPXhaQw6tQx6Ui9aG60AQ3HCxt/dkH+FQwfcYejsP1qe4G63kA64yPw5qCE5Dn1cmkMJzs8ub/nm3P0PBqduJEPuR+lJJGHj2no4wahikLWsbN95GCt9QcUAW1NWt2Y1NVBwanRvlxTRLJkPyGqLVcjPDCqbU2JFQ8Su3pNtP4qKlU/NUZUuLpB13ZH1wDSo4ZVcdxmgGT9RUcibkdf7ykfpTwacMEiqaIWh599oaG+NwOWWTOPX1/Sug+1tpGpJqcIL2l0Ak6jv6N9cf55rNhsTLd6nBj5lyE9m3ZFWtFkjvdNkspxkINpHfaeh+oP8qCjuI5EljSWNg8bgMrDoRWTCpi3xf8APJ2X8M5H6GsfRdVl0a6bTb9s2wPyv/cz0Yf7J7+hrfuFCX5PVZ4wwI7leP5EUmIM5GaZIgYEEAgjBB70o4OKWnuLYwtT0v7UAqcXKD9y5/5aKP4GPqOxrCtriezufNhJjlQ7WVh19VYV208IlTGSO4I6qexrF1TTmvka4hQC9i4lQdJB2x7+n5UDNPTdRt9Ut3XaN23EsD88f1HvWbe6RPpsn2zTGdol5KDlox/7Mv6isCKR45Flhdo5EPysvBU/57V1eja6l2ywXO2K6/hI4WT6eh9vyoAXTNViv1CnCT4ztB4b3X/CrVy8IQLMu8n7qAZJ+lVdV0ETsbnTwIrjO5o87Vc+o/ut+hqnpeoAytb3SmO5BwXfgk+jeh/Q0PYcVd6l2OKcZOVVT0jY5I+ppElfDFVYAEqeMjI61b6HntTtFybLf03Mx/Ws0rm8nYolgzBlyrA5BU9D6itKzvRPiOXAm7EdH+nv7VPJbQS8yQox9cYP6VA2m2x6eYv0emk0Q5JluikUEKAWLY7nqadVkCU8LuO386aM9hknpU6qFXH5n1oAMdqbJ9ynU2T7o+ooERHrSUppKBhRRRQAUUUUAR3ECXVtLbyfclQofxrhQjrZyQSjEttKVYV31cv4itfs+pLcqP3V4ux/Zx0/MfypxZMkYRpMGpowD1FPKj0rQgrYJ7UbTVnaKNopDK2w0uw1Y20YoAg8s0CM1YxShaAIBFTvJqYCnAUAVWjwMYyKIZBA4EpcRf8APRPvJ/iParRTNRPF7UmrjWhtQQXPkq8N1FOjDKtjGRT0lv0OJLXcPVXBrEsrqbTpSY8vCxy8RP6j3rpLa4iuohLA4dT19R9RWMlY6Iy5iudSSNwlxFJAT0Ljg/jVxWV13KcikZVdCjqGU9QRkGo4bZIG/dEqhH3M5A+lSWTVHJGXkhcH/Vtn8MVJRQBnawPMNpD2Mhc/QCsqaU5ZvU1qakSL2H0EMhH1rBYySskUS7pJCEQepNbQ2Oep8RGG86455VallGYyKcbb7LeXFvnd5T7M+uKlSHzZ4IR1kkVf1qjI7lRhFHoo/lS0p6nFGKg1EopcUYoASiiigAo47jI70UUAZ9mDGsluesDlR/unkVYFRzjytRjf+GdCh/3l5H6Zp9QzWOqHqcMDVlDxVTqKmibIoQpItg0tMU08VRiwooopiCiiigYVUvYG3C5hXMiDDKP419Pr3FW6KQXsUFZXQMpyrDIPrS024j+yzbxxBIef9hj/AEP86dSNU7hRRRQMKCM0UUAVpY9p3Dp3qKOb7JLlv9RIfm/2G9foe9XWGRVSRBkowyp4xS2H8SsaIODUmcrWdp8rANbSHLRjKE/xL/8AWq8GAUknAHJPpVmTKt++VWAHmX73so6/n0qvI4jXOCSThVXqx7AUjy5Zp3BzIQEUDkjsB796ksY2F3ObgAzIF2gchFYdB78cmo3ZWxZsrcwgvLgzSfeI6KOyj2H61dqJetSVRDEZQ319RTCrDtuHt1qSimBDweh/CkqZlVuozTDGR91vwPNAxtKDScj7y/lzQCp70APRjH05X09KsKwIyDkVW6U5HxQS1cs0tRq4NPBqiLC0UlLQIKKKKAEqOSMMKlpKBp2KvIO1uvY+tODVLJGGFQcqdrdex9aktO4/gnPQ+opwdl6jI9RTBxTgaAsShgwyDmoX+WUN2bg/0pSOc9D6imuCylTz7igSVh1JSI29QfzpaCgpaSloASkZQRTqSgCqVMZ/2T+lJPCs6bWyCDlWXqp9RVplyKgI2HB+7/KkPchhlfd5M+BMBkEdJB6j+oqamyxLKm189cgg4Kn1B9ajSZlkEM5AkP3H6CT/AAPtTAmooooGFFFFABSg0lFAiRWp4NQZpwagCbNFRhqXdQIVulR04mmHrQMa/ADDtzU6HIqLrREcDb6UAWKSgHIooEFFFLQAlFFFABSEUtBoAjNHSlNNNAEqnIpGHFIh4p3agBqHtTqizhql60ALRSUUABHFR9GHvUlRtx+FAEgPFKKYDzin0ALS02loELmkNFJQAjUzPNObpUeaBktFC9KKAISMtj1rI03i1jHoCP1NbH/LT8ax9O/1A/3m/wDQjUsuG5fWrK9KrCrCH5RQgkPFKDTaWmQPpaYDTgaBC4pCKWloAjK1DIlWcVG4oKTM2+tRd2c1uw/1iFfx7frXnhjOzd3HB+tenMMHNcBexeRqd3DjhZWx9Dz/AFpxFUKcMuPlNXUfcMHrVKaEj5lpYJex61e5mXjTDSq24e9BpARMKbUjCmGkA2ilpKYBUTjDVLTZBkUAOByAaKbGflx6U6gAooooAKKKKACiiigAooooAa44zXYeBLrfZ3Fox5ifeo9m/wDriuRIyK1PCN19m16NCcLOpjP16j+VCA9EooooEFRTzpbxGSTOOgA5LHsB706SRIo2kkYKqjJJqmoaaQTzLgj/AFaH+Aep9z+lA0hscUjzfaLogy/wRg/LEPb1b1P5Usj7uB0okfPA6Uypb6I0SENQ3NzDaxh5mxuOFUDLOfQDuaZLcsZDDaqHkH3mP3U+vqfamabp4n1V7uUmUW/yK7dWk7n2A6ADvmpK21ZoQWLTAPeAY6iAHKj/AHv7x/Sr4GBgUtFWlYxbuISFBJIAHJJqjYg3UrX7g4cbYAf4U9fq3X6YovybmWOwU8SDfMR2jHb8Tx9M1eAAGAMAUxC0UUUAFVb64MMYWM/vX4X29T+FWHYIhZjgAZNY08rSSM7cM3b+6OwqW7FRV2R8ABV+6PXv70D5sY70EcD3/lUkK/Nn0qDYlUbVA9KUkKpZjhQMk+gopBF9pnWA/cHzyfTsPxP6CmIsaXCRE1xIMSTndg/wr/CPy5/Gr1FMlfy4mb0FXsYvVkUX7y5kk7L8oqLVz/xLpB/eKj8yKntk2QKD1PJqrrDYt4l/vzKP6/0pdBr4ipH/AK2pF5Zj+FRRnD5qSP7mfWpNh460jHigU1jzQITqakPANMT71Oc4Q0AIlIeSaI+hpKTGKBu4Pfiqdv8AdYHqCP5Y/pVwdarKNt1On4j8/wD69ICxjMI9qoS/I8ydpAJB9R1/pWhHymKpXq4jEneNufoeDQwiWlbcob1GalQ81WtjmBfbj8qsLTBk8R+Yj1FVWqxGcOKhkGCaYkVITi4m/wB4fyFMjGwvH/cbj6HkUqnFxN9V/lSzDbMj9mGw/wAx/WjoJ7kyHIpwqJDzipKtbEM5+QiDxLdwkY+0Isqn3xzWfdE6XrC3Sg+TLksB3H8Q/rVzxQHt9QtL1Ow/9B7fkamvrZb+z2xkbjiSJvft+fSkylsTX9iupWqPAymZBuibs4P8J9j/ADqhp2rPbRJb3AYxQvlM/ei7Mp9uv0qPQNS+zuLSc7Y2bCFv4G7qfbP61rarpBvM3NqALofeToJR/RvegPM1jhgCCCpGQR0I9aSuX03U5bBjE6s0IOGiPDRnvj0+ldLDNFcRLLC4dD0I/kfQ0ySQVBPGykTxDLoOVH8S9x/UVMSFBJIAHUntUHnNMP3WUj/v45b6f40mOKbehk6xpX2kfbbFd0jDc6D/AJaD1H+1/OsAYdfUGuuEi2E6I3FrM2A3/PJz6+zfofrVTXdHL7721T94OZowPvj+8Pf19aExtWYuh66QyWuoSZzxHO36K39D+da2raNDqabsiK6UYWXHX2Ydx/KuIGGXsVI/Aiui0HXfJ2Wd+/7v7sUzH7vorH09D+dBJBDf3FlI9jqCFXVSATyR6HP8S+9dBpIA06LBBByQR35qXUdNt9Sg8q4Uhl5SRfvIfb29q522urvw/d/ZLxS9uxJUr0Yf3k/qtFiuZ9TqTSU2KaO4hWWFxJG3RhTqBiil9aQUqjc238TQA+Jf4z1PT2FPpaSgQU2Tov1p1Mk6rQBGaSlNFAxKCcCigLvcL2AzxQAuMUlOYMn3vmX1HWm8dR0oAKqarZf2hp01uP8AWEboz6OOR/h+NW+9FAHnsbZYEjGeo9D3FTGrviKz+yakZUGIrj5x6Bv4h/WqQORmtFqjMKKKKAClAoApwFACAU4ClApQKAACnAUAU7FAxMUFc06kpARNFmovJeN/Mido3/vKcVaoOKAFh1W+i4kMcw9WGD+Yq2msg/ftW/4A4NZ7lahdlHUgfWp5UUpyRuJqts3USp9U/wAKnjvbWU4S4jJ9CcH9a5lWYn90sjH/AGFJ/lUkouhHmeynKHoWiI/WlyIpVWamrttvbYH+KNh+Zqv4aij+2T6jcHEFmhIJ9T/9asZXIZTkkA9OTip4ppHszaggQmTzHx/Gew+gppWViJSu7kqym5mluCMebIz49MmtTQIPO1ZXx8sCFz9TwP61lRDYgUAsxOFUdSSeAK7HQtMews2M+PtEzbnA/h9F/Cm9iVuXsUYp+2jbUljaKdto20ARminMMU2gYlFLSUAVtQQtaM6jLxESr+HX9M0ZDAMvIIyPpVnjuMjvVG1BSJoT1hcx/h2/QipZcWTCnRnD49eaZSk8ZHapLZcQ1KKrRtkVOpzVmMkPooFFMgKKKKACig0UDEdFkRkdQyMMEHuKzlDQSm2kJJAzGx/jX/EdDWlUN1b/AGiLaDtkU7o3/un/AA7GkNOxXopkTmRTuXa6na6/3TT6RqFFFFABUE696nqOUZU0mNFKYtGFmT78R3D3HcVauZ1eONIwX80A7R1I9P8AGoW6cjOe1O0lAkcitzKjbS3+z2A9qF2FNa3LFvbeW3myEPMRjI6KPQf496apxq0o/vQKfyYj+tWqqE/8ToD/AKdjn/vqqM2XkqSo0qSmIKKKKACiiigAxTSgPUZp1FADPLx0JFJtNS0lADBmnhiKWigQ9XzTs1EDTs07ktEmaM1Hupd1FxWH0UzdRuouFh9MkRXGCKN1GaB2IDmM4c5HZv8AGlzipGwRg1AVMfTlfTuKRSJQaWogQRkHIpwagY7AHQdaKAc0tACUUUUALSUUUALTHUEU6loAr4KnB/CmSxJNGY5F3Kf09x71PImRUSk8g9RQMrea9sQtyd0XRZ/T2b0+tWaUjIwRkHqD3qr5MltzbDfF3gJ6f7h/oeKALNFMhljmQtGc4OGBGCp9CO1PoAKKKKBhRRRQAA0uaSigQuaSiigApM4kB9eKWkcZXjqOaAJ0NPqBG71KDmgQ6koooAWkopaAEooooAawphqU8iojwaAHIcGpKhXrUooAicYNSIcimydaSM80ASUUUUALUbdafTJKAG5xsPviphVeQ4jz6GpxyKAYUtJRQAtJRRQA1+lR1I/SoqARMnSnUyPpTj0oAiJw+fSsbTubdT6kn9TWndyCK1mkP8KE/pWfYrst419FFSzSG5cBqeI5WqwNTwHgikEiaiiimQLSg02lpiH5pwqMGnA0CHU1hxTgaD0oArOK4jxFH5evzf7aI36Y/pXcuK47xSuNXjbH3oB+hNC3HLYy8ZWq0sGPmTrVzHFNIzVmZWglz9e9WQcjNVZ4yjeYv4inRS/lQBOajNSUw0gG0lKaSmAUEZFFFAEaHD4qSoX4apVOVzQAtFFFABRRRQAUUUUAFFFFABRbym2voJ16xyK35Gio5fWgD1ykJwMmlqhdP9qmNqh/dJ/riO/on+Pt9aASuJv+2SiU/wCoQ5jH98/3j7en5+lI8m84X7o7+tJLLvbyo+FH3iP5CmO6Qxl3YKijkntUtmiQ4kKCSQAOpNUnlkuztiLRwn+IcM/09B701i90Q0qlYuqxnqfdv8KuRptGT1NQXsR7BbQBIFAckLGB03Hp/jWrbQLbW6Qp0QYz6nuapWqebe5P3YVz/wACP/1v51pVcUZTfQKbI6xxs7naqgkk9gKdVHUP9Ilhsh0kO+X/AHF7ficD86ogXTUZo3upRiW5O/B/hX+FfwH6k1doooAKKKgupvJiyPvHgUBuVr+fJ8sHhevufSqUaGRuenejmR8CpX/dxEL16D61nubpWRCzbnLDp0H0qeMYQe/NQouWCjpVmgY1mVFLMcKoyTVvT4Wjg8yQYllO9h6eg/AVVRPPuUhxlR88n0B4H4n+VatUjOb6BVe6+by4h/G3P0qxVYfPek9o1x+NNkIsVjazJu1SxgH8IeU/lgfzNbVYU582/mm9DsX6D/6+aUtiobiA4zU68IKrjrVjoBUmrFB4zTDTiflplIBy8KaSc/KB6ml/hX60yc/vFHoCaYD4vuE0lLH/AKo0UgAdaimULeK3d1x+VSjqKZeceTJ/dkAP40AOi4yKZOgbKt91hg09eDRIMr9KZK3KensfLeNvvI2D/n8KuiqSHy7/AG/wzKSPqOtWgw3le4GaSKZMDTZeWJoBpG5piKR4uZfcKf0p8qGSEqOpGR9e1I4/0lveMH9TT0Py/SnEUiON9yq4781OKrgbJXTsfnH9f1/nUyHIpoTKWt2RvtPZU/1sR8xPc9x+IrG0K5EkBtWPzRfMnup/wNdQcjBHauV1u0fTtQS9tRhHbcvord1PsaBLQTWdPzuvIlyCP3yD/wBC/wAfzq1omthAttev8vSOcn8gx/kauWdzHdQLPF0PBU9VPcGsrU9J8gNc2q5h6vEBnZ6keo9u1A2dFqWkQ6kPMz5N0BgSgZ3D0Ydx+tc9/p2i3mHXy3bseY5R7Hv/ADFO0jXJbFVilBnte2DlkH+ye49vyrq43tNUszjy7m3fqCMjPuOoNAjKtLuLUOWb5158k9F9/wDa+tXazb7w3NC/naZIXA5ETNh1/wB1u/0NRWmsFZDBfoY5F4LFcEf7w/rUtGsJrZmpPDHcQSQyjMcilWFQ6LdSB3067bNzbj5HP/LVOx+oqwCGAKkEHoR0NZ+rwyIkd/b8XFq24H1XuD7f40kypq6uVNf0r7JKbyBcW0h+dR/yzY9/of0NZOMjBHHoa7u2mh1CxWZVDQzp8yNz7FT/ACrktX0xtLuAqktbSf6pz1H+yfcfqKswL2h661oUtL191t91JT1i9AfVfftXTXlpBfWzW9ym6NueOqnsQexrz3tzXSeGNVJ26dcNkgf6Ox7j+59R29qBFPN54bv9jHzYJeh6LKP6OK6SyvIL6Hzbd9wH3lPDKfQipru1hvbZ7e4TfG/5g9iD2IrjZI7vQdUwrguBlHx8sye4/n6GgadjtOnJqSEYUk9TzVKwvItQt0li4B++p6oR2NaAoGFFFFABTJfvL+NPqOT74+lADDRRSUDCnwDILepqNuEOOp4qwi7VA9KAYpGahYYqamSCgRCRkY79qRHDg46jgj0NOqreh4sXMIy68Mv94UDG6rYjUbB4OPMHzRn0Yf49K4uIkZRwQynBB7Gu8gmS4hWWM5Vv0PpXNeJrH7PdLfRD93KcSAdm9fxqosmS6mZSgUDkZpQKokUCnAUAUtABinCkpRSGKKdTRS0ALSZpCcVDJJgUAPeUKMk4pLSK81NyllF8g+9K5woqxpekNqUu+fK2yHnH8R9K6yGKOCJYoUCRr0UUmxpXOQ1Dw9qFtb+cJRcY++sQOVHr71kQIjjJLBvUGvSazr/Q7S+JcKYJj/y0j9fcdDSuDic9aa3qGnW/lRyRSxr90SryPbIpJbq4v2867lLsf4QSFX2AqtPaslzPB5qyiIlBIowCe/8AhSRSkA+3UehqiB1woWDCgBQeQPSnPEGQGMAMBx70xpVlGwDdnjABNTJb3FtGguInjWTJiLjBIHWgDofDmlW0dvHfl/PncfKSMCL1AHr6mt2uY8NXhi1CSyY/u5l8xB6OOv5j+VdPUspBRRRSKCiiigBrjIqMHIqY9KhPDkevNA0JSU6koASqUn7vUyP4Z4wR/vLx/KrtU9UBSCO4A5gcMf8AdPBpMa3HmlFBweR07UlQbD4TjK+lWUNVM4YN+BqwhpoiSLINLUampBVGLFpKWimISiiigAooooApX8TIftcS7mUYkUfxL6/UUxHWRFdDlWGQfWtCsy4h+wytIg/0Zzlh/wA8z6/T1pMuL6EtFIDS0jQKa44p1I3SgCqRxTIW8m9Rs4WQbG+vapWGCarXYJt2I6r8wpLcqWqNeqEDebrt2R0iiWP8c5NSm9VdOW5OC5GAP9r/ADzUWj27RWhllJM1wfMcn9KswNFOtS1GlSUAFFFFABRRRQAUUUUAFFFFABRRRQAUtJRQAtLTaWgQtFJS0AFFFFABSEUtJQBE0ZB3Jwe47GkDZOOjehqbFNeMMORQMZTg3rTCGT73zD1HWlBBGRyKAJAaKYKcGoAWiiigAopaSgA61XkG1w34GrFRTcKaAQ2ik7UtAyGaBZGEisY5gMCRev0PqPY0z7SYiFuwsZPAkH3G/wAD7GrNIQGUqwBU8EEZBoAKKz5Ybiy+exbfF/z7ufl/4Ce38qdaataXRChzFKePLk4OfTNAF6ijpRQMKKKKACiiigAooooAROBj0NSKaj6N9acKBEoNLmowadmgQ7NLmmZpc0AOopM0ZoAWmOO9PpG5FAEYqRTUdPWgAk6UxetSPyKiHWgCaikXpS0ALUclPqOTrQBHJ/qjU0Zyo+lQv/qm+lSQn92v0oH0JKKWkoEFFFFADJKjp8h5pgoGSx9Kc33aZHSueKBGZrLH7CYh96Zwg/mf5UkQwvFR3r+bqCoPuwJk/wC83/1v51MgwtSzWC0uOqWBvmxUNPTg5pDZcopFORS1RkFFFFAC0oNNpaBDwaXPFMBp3agRFJXIeKjnVYR3EH/sxrr3rjvE7btaA/uwr/M0Lcb2M8DijFO7UhqzMYygiqUiGF8j7p/Sr9MdAwwRQBBFJng081XeNom4+72qSOUHg9aAHmkpaSgBKKKKAIpPWlibnFPddw96gHB+lMCxRQpyKKQBRRRQAUUUUAFFFFABTJfu0+myfdoA9QvbhoUWOHBnlO2MHoPUn2HWqkmLaFbeIkk8lj1JPUn3NOhbzC97ICN4xGD/AAx9vxPX8qiQ7naV+KlsuKHfJBEWdgqqMsx7VUJa4cSyKQo5jjPb3Pv/ACpDIbtxIf8AUKcov98/3j7en51LgkE+lQaCxjc4qzkAZPAHWoYRyTS3OTCUH3pCIx+Jx/LNMRd01CLQSMMNKTIfx6fpirdIoCqFAwBwKWtDF6hVHT/38s94eRI2yP8A3F4/U5NSajK0Vm/ln94+I0/3m4H881NBEsEEcSfdRQo/CgRJRRRQAjMFUsTgCse5mM0hPbsPQVZ1C458pT9apxrubnoKhu5rBW1JIk2rk9TTJ2zIq/3Rk/jU/U1UzvZn/vHI+nakWiaAcFqkJABJOABkn0FIo2qBTJkM7xWo/wCWzfN7IOW/oPxoEXNMjItzO4w85349B/CPyq7SDgYFLWhi3cSq9n8yvJ/fY1LcNsgdvakt12QIPal1DoLPKIYHkPRVJrDQEIAevf61o6rJiKOL/no3P0HP+FZ9TI0gtBVGWAqdutQx8yCpW+9UliE9KSg0UAOPVRUUpzO3sAKl/wCWlQMczS/7wH6UwJ0/1YpaF+4KWkIQfeFNulL27gdQMj8OaePvCl6igCIHOCO9L14pCAoAHQUZqhFW6UhBIv3om3j3A6j8qlVgbgEHIdMinycMDVVWEUqJ2RsD/dPT/CpK3LtBNITgZPajrzQIrvxdp/tIR+opV4Yikn4lgb/aI/MU5xgg1SExsy/KHA5Tn8O9Kh59jTxUQGwlew6fSm+4l2J+tQ3EEdzA8E67o3GD6j3HvUqnIpk0ix4zkseijqaH3EuxyRW50HUSrDzI2646Sr2I9xXSWk8c8SzQPuRuhH8j6GkubRb6Ipd8/wB0L/yzPqPU1zw+2aFekDDK/OD9yUevsaV7ltNbmnqOheYWnsFAkPLQ9A3uvofbpWPbXE9ncGS3keCZThhj9GU9fxrq9NvoL+LfA3zL9+NvvJ9R/Wn6hpVtqS5lBjmAwsyfeHsfUexpkEGm+I4LjbFegW0x43Z/dsfr2/GtO+0+11CMLdRByB8rjhl+hri7/T7nTmxcoDG3Cyryjf4H2NS6fq15pwCRMJIR/wAsZOQPoeooEab6VqOlMX09/tcHUxNww/Dofwqex1S0vC0Eo8qX7rxScGrmn61aagQisYZz/wAspOCfoehqa/0601Bdt1CGYdHHDr9DSsUpNGP4fkax1K50uU/KSXiz6jr+YwfwrbvbSK+tJLab7r9GHVT2I9xXO3OhX9jcR3VjIbrymDKG4cY7Y7j6VoWXiS0uXEVwrWsucESfdB9M9vxpiOYuLeW0uZLecYljODjoR2I9jUYJBDKxVlIKsOqkdCK63xDppvbUTwrm5gBKgfxp1K/1FciCGAIOQaYjuNF1ManabmwtxH8syj17MPY1LqunJqdmYWIWRfmik/uN/gehri7C9fTrxLpMkLxIo/jTuP6iu9R1kRXRgyMAysO4PSkBxek38mlX5Mqsq58u4j7jHf6j+VdyrKyqykMrDII7iuY8V2O101CNeGxHNj1/hb+n5VN4U1AvG1hK3MY3RZ/u9x+FAHRUUCigoKjl+/8AhUlRyff/AAoAjpRSUooGGMyKPxqeooxl2PpxUtAmLUcv3CfSn02QZQj2oAhc7QWwTgZ4pFKyJuUhlYdR0NKpyin2qpPayBzNaSeXIeWQ/df/AANAypHJ/ZupGJz/AKPcHg/3WrSubeO7tpLeYfJIMH296xNSufPia3uIHiuBypPTP1rQ0a9+2WgDn97F8rZ6n0NAHJtDJa3ElrOMSRHH1HY08Cuh8RacbiAXkI/fwD5gP4k/+tXPIwdQw6GrTuRsOFLRRTAKUUlLSAUUE4FJUcj44oASSTjrVzSNLe/k86TKQKevr9Pf+VRaRpzancktlbaI/Ow/iP8AdFdiiLGipGoVFGAo7UmxpCRxpFGscahUUYAHanUUVJQVX1G6+x2E04++q4QerHgfrVisTxLKR9khB4Ys598DA/nQgexiRr5aBc5I6n1Pc0yWzWKK3kcfNcRmXr/tEfyxTpi3ksFJyRgfU8Vs+IrbyYbF1GBGvkH8sj+RqzIh8Mz/AGfU/JHCTIRj3HI/rW1rdqbzTZVUZlj/AHsf1Hb8RkVzFhL5Oo2sh6LKufx4/rXanh6llROCW4MF5b3MfWPEg/P/AAr0BHWRFkQ5VwGB9jXBajbGz1KW3/hT7nupORXSeF74T2RtHP7y36e6Hp+XSmxI2qKKKksKKKKACopRxkdualpGFAEVIaAMZX0/lRQMSmyRrLE8bfdcFTTqKAM+wZjaKj/fjJjb6ip6iYeTqUg/hnQOP94cH9MVKahmyegdRipImyMHqOKjpQdrg9jSBltDUoNVlNTKapGUkSilpoNOpkCUUtJTEFFFFABQyhlKsMg0UUAZckZsXWM827HEbf3D/dP9PyqUGrssaTRNFKoZHGCKy0V7ab7LM27jMTn+NfT6ipZpF9CxQelIDS0FkDioXXcpX1GKsSCoT1qS0VLC3M8oRs+VHyR2/wAmtqqunKq2p29S7Z+uatitDC1h61JTBT6BBRRRQAUUUUAFFFFABRRRQAUUUtACUUtJQAUUUUAFLSUUALS02igQ6ikooAWkoooADio2jGcrwfan0UDIwGHUflSipKTbmgBMHtSg5pMEdKUc0AFFFFAC1BOc4X1NTE4FV873LdhwKQIWkpaSmMKKKUDNADJcCJixwAOvpWBZ2A1O8nu2XFtvO0Hjea0LhX1STyIyUs0P72Qf8tD/AHV9vetBVVEVEUKqjAUdAKAKCx3dkP3TG4hH/LOQ/MPo3+NWre6iuCVQlZB96Nxhh+FTVFPaw3AHmL8w+6ynDL9DQBLRVTddWv8ArAbqH++o/eL9R/F+HNWIZop4/MhcOvqO319KAH0UUUDCiiigAooooAXNKDTaKBEgNGaZmlzQA/NGabmjNAh+aCaZmkJoAO9PWo+9PBoGPPIqLvT80zPNAiRafUamn0ALUL9al7VE3WgBrf6tvpToD+6Wmt/q2+lLB/qloH0J6SiigQUUUHpQBE/WmilbrQKBj46bK6orO5wqjJPtSg8VR1OTdsth/F87/wC6Og/E/wAqQJXZUt1Zy0rj55GLt7Z7flirVMjHGakqTfyCnLTaUGgRYjPFS9aroamU0zJjqKKKYgooooAWlzSUUCGOa4rX23a9P/soi/pXZua4fU28zW7xuuJNv5AUIJbDKSnUhqzMaRSU40hoAjdAwqq8JU5WrtNZQaAKQkZeGp6yK1StH7VH5ag5AxQAtFFFABTJEzyKfRQnYCOM44qSo3Xadwp6tuFDAWiiigAooooAKKKKACmv0p1MkNAHo13JuYRr0HWqVwfPf7Op/dKMyEd/9n8f5U6WTy0Z8bm6KPUnoKIk8tNuct1Y+pPU1m3c3SsO/CpXXZDjvnmmxLl8+nNSTfd/GgAhGEz605RvvrZOoBZz+AwP1NCDCCnWY3akx/uQgfmf/rUIl7GnRRRWhiUp/wB9qdvF/DEpmb6/dX+Z/KrtU7P95dXc/q4jH0Uf4k1coAKhuZhDEWyAe2alJwMmsXUpTcSLEPuydf8AcHX8zxSbsVFXZErmX94c4bpn0/8Ar9atRrtX3NRRrub2FT1BqyOdtsLEdTwPqaiiUb1A6CluTl40+rH+lOgHJNAyan6YnmSzXXVT+7j/AN0dT+Jz+VVLyRkgKx/6yQhE+p4FbFvCtvbxwp91FCimtyJvQkoooqzIr3pzEq/3mAqcDAxVef5rmFfQlqlnlWCB5W6IpNIfQyr2Tzb1yPuxjYPr1P8ASmYxHn1NRxhsDdyx5b6nk1NKMIBUG600Gw/fp7feNNg+8fpTj1NIBKVfvCkpV7n0FAApzIagBzJKf+mhqWH79Qx8lz6yN/OgC2v3BRQPuilHSmSJ3oB4+lHekzyaAGvTO1SGoz3FMBT8y1Tu1+QSDt8p+h/wNW1PNMdQcq3QjBqWNEkbiWNW/vCmQnMIz1Hyn8Kis32l4DwUOR9KkjO2eRP73zD+tAxl3xDu/usG/WpCMim3I3W8o/2TRE2+JG9RVRJlsKvTFJICVyoyRzj1p1QmVpDiE4XvJ/h/jVbLUlJt6AZyD5cWGc8+yj1P+FKqBSW5LHqx6mhEWNcKMD+dOrNs6IxS1Epk8EVzCYp0Doe3ofUehqSikUczeafcaZMLiCR9i/dmT7yezf5xWvpniGOXbFf7YZDwJRwjfX+6f0rQH86yb7Q4pcvaERMesZ+4f8P5VSl3MZQ7HRsquhR1DIw5VhkEVgah4aBzJprBT/zwc/L/AMBPb6Gs6z1K+0eTyJEZoh/ywkPT/dbt/Kum0/U7XUV/0d/3gGWifh1/DuPcVRmcVLG0cjQzxtHIvVHGCPf/AOuK0bDXbyyASQ/aYR/C5+Zfo39DXU3lnbX8Xl3UQkA+6ejL9D2rmtR8P3NpmS2JuoR2A/eL+Hf8PyoEdDYana6iv+jyfOBlom4dfw7/AFFGoaZaaiv+kR/PjAlXhx+Pf6GuHU5IdWIZTwynBU/XtW5p3iOSLEeo5lj7TKPmX/eHf6jmgY8f2p4d5Gb3T1546x/4fyrIv2tpLoz2TfuJ/nCHgxt/EpH6j613EUqSxrLC6vGwyrKcg1har4eSUtcacqpN1aHor/7vof0oA52um8KXu+3ksXPzQ/PH/uE9PwP865jkMysCrKcMrDBB9CKsafdmxv4Ln+FGw/up4P8Aj+FMR3dxBHd20tvL9yVSp9s964SN7iwvMg7bi3kwfqOv4H+td8Dzwcj19a5fxVaiO9iu1Hyzrsf/AHl6H8R/KkB1NrOl1bx3EX3JVDD29qlrm/CN7nzrF26fvI8/+PD+tdJQNBUcn3/wqSmN98/SgZHTl60Yo7H6UDHQj5M+pzUlNQYUCloEFB6UUHpQBWi/1YpTSRfd/E040DGOiSJskRXX0YZrFurf+ybxLu2yIWO11zwM/wBK3KjuIVnheJxlWGCKAJIZFkRXTlWHf+Vchqtl/ZmomNR/o83zxH09V/CtjR5XtriSxlOQD8hP6Ve1WwXUrB4OBIPmib0Yf0PSmnYTOTpKjiduUkUrIh2sp6gipKskWlpKCcCkA12wKbaWsupXgtoTjvI/ZF/xqJjJLKsUKl5ZDtRR3NdlpWnR6bZiFcNI3zSP/eb/AApNglcntreK0t0t4F2xoMAevufepsUlLUliUUUUAFYPiUf6RZn/AGXH8q3qw/E33rLH95/5ChbilsZ2nwfadRt4iMqG8x/91ef54rodahNxpU4AyyDzF+o5/wAaxvDj51SX0aIhfwIro5f9RLn+438qb3ElocOWwu4diCPzrvScnPrzXnyHfac9SmP0ruNOmFxptrMP44l/linIUTn/ABUuNVhYDrB8x+jcVQ068NhfRXIztU4cDup6/wCP4VqeJCqalbySLujEXzj1XJz+hrGuIWtriSBzkocbv7w6g/iMGmthPc9CVldQykMrDII7iisLwtfebbNZOfnh5T3T0/A1u1DKQUUUUDCg0UUAQyDBDfgaDUjjIwe9RDpg9RxQMKSlpKAKepDZFHcDrA4Y/wC6eDUhqZ0WWNo3+64Kn6GqVkzG3COf3kRMb/Uf/WqWaRZNQRkYpTQKksfG2V9+9Tqaqg7Xz2NTqaaIkiwpp4NQqakBqjJofRSCloJEopaSmAUUtFABUF5apdw7GO11O6Nx1RuxqeikBk28zPvjmXZPEcSL/UexqemarbsjLfwDMkQxIo/jTv8AiOtKrBlDKcqwyD6ikbJ3QjjioGFWG6VA4pMtDtNP7udP7sx/UA1cFZ+nti6u0/3G/TFaA61S2MpbjxUgqMVIOlMkKKKKAFpKKKACiiigAooooAKCcUUEZFACbvWlphpuWX7v5GgCakqNZQTjofQ1JuoAKKKKACiiigApaSigBaSiigAooooAKKKKACiiigApaKjkfbwOSaAGytn5QeT+lNGAMDoKQDHuT1NFAwoopkkgTAwWc/dQdT/n1oAczKilmIVR1J7VHhrgfMCkJ/h6M/19B7ULEWYPMQzD7qj7q/4n3qWgBegAAwBwAO1FKKDQA2ilpKAFqtNZpJJ50bNDP/z0Tgn6jofxqzRQBTNzNbD/AEyPKD/ltEMj8V6j9asxyJLGJInV0PRlORT6py2C+YZrVzbTHqU+631XoaALdFUheyW52X8XljtNHyh+vcVcVldQysGU9CDkGgBaKKKBhRRRQAUtJRQIWikooAWikooAWlBptFADyabRmkoAepp4aoQacDQBITUbUuaaaAEY/IfpSw/6taa/3DT4xhQPSgCalpoNLmgQtNY4FLTHPGKAI6UUlLQMNyorO5wqjJPtWUhaaRpnGGkOceg7D8qnv5fMkW1ToMPL/Rf60IuBmpfYuC6igYFLRRSLCiiigBympkaq9PVqCWi0pzTqgVqlU5pmbQtFLRTEJQTxRTXPFIaInYA5PQcmuBjczSyTH/lo7P8Ama63Xbr7NpNw4OHYeWn1bj/GuUgQJGAO3FVEU+xLRSUtUZiUlLRQA2kp1JQA0imMtSUjCgCuRikqRhTKAEooooACMjBqE5RqmpGXcKAEVs06oeQalRtw96AFooooAKKKKACmbWmmSJBlnYKo9zTnbaK1vB9kbnV/tDDMdsN3/Aj0H9aEBtiYS6oYByII9x/3j/gP51aqD7ELLUiu7c726tI395txyanrI3J4B8hPqaWT7v40sQxGKJPu0xAPuipNO5u7s+mwfp/9emDoKfpn+vvP99f/AEEU1uTLY0aRiFUk9BzS1Bettspz6Rt/KrMhmmqVsIi33nG8/Vjn+tWqjhUJDGo6BQP0pZHEaF26CgCC6csRApwW+8fQVjo4md5wPlc4QeiDp+fJ/GrV6zLaEE4lu22D2Xufy/pUMagsFAwB29BWbNoqxPEuF9zT6KB156UDKbNvuJT2UhB+HX+dWIR8mfU1Ttm3wCT/AJ6Ev+Zq1nbCPU0hiWy/adWTukC7z9TwP6mtus3RI/8AR5JyOZnJH+6OBWlWkdjGbuwooopklb71/wD7qVX1aT5YoB/Gdzf7o/8Ar4qxFzdzH0wKy55fPu5ZR93OxfoP/r5qHsaRV2OhGWz6U6foKdGu1BTJ/wCGkaBB3pT1og6Gl70gENB4jY0UknCAUANQ4zVe2YPGSOm9h+tPkZ1TbFzK52Rj/aPT8uv4VBp8LW1oIHO5o3ZSfUhjzQM0h0FKKaOgp1UZiGo3ba4H97pUpqpqL+TAk3aORd30PB/nSBExORmm55oQ8lT+FGKBhjmhxkZ9KWjrTEUrnMbx3K/w/K/+6e/4VJMxDrIvJHP1qRlBDIwypGCPUVVQtGpic5aM4B9R2NQzRFyQhoSy8grkVXtGAtsMcBCQadbtw0J6YJT6dxUFuv751Y8EBgO2ehpp2dw5b6ExzP8Aeysfp3b61J04opKTdzRRSFooopDFxRRmkoAKKKKAGyxRzxmOZFdD2YVi3mhvGwmsXYleQu7Dr/umtyimnYlxT3Miw8RzQnytRRpVHBlVcOv+8vf8Oa6S3niuYRNbyrLGejKf84NZF9p8N8uX+SUdJF6/j6isIpe6Rdb0cwuejrykg9x3/HmrTuYyi4nTanotrqBMn+ouP+eqDr/vDv8Azrlb6xudPlEdym3d9yReUf6H19jzXSaZ4gguysN2Ft7g8A5+Rz7HsfY1qzwxzxPDPGskbcMjDg0yDh9P1C402YvAd0bH95Cx+V/8D712FjewX9sJ7diVzhlP3kPoa5rWNFk08NPAWltO+eWi+vqPf86o2V5NYXIuLc5PR0J4kX0P9D2oGdNrWjrqC+fAAt4o4PQSj0Pv6GuSx95XUhgSrKwwQe4Nd3aXUN7bJcQNmN/Xqp7g+4rK8Q6V9oQ31sv79B+9Uf8ALRR3+o/UUAXfD90brSYtzZkhzE/4dD+WKd4hg8/RZyBlosSj8Dz+maxfCc+2+nh3fLLEHA9SD1/I11JQSo0bfdcFT9CMUAcJaXTWd3FcxnmNgfqO4/KvRAQwDKcqRkfSvNNhjzE3VCUP4HFd7ocxn0a1djlgm0/UcUAXqa33/wAKdTT9/wDCgY00oFBpRQA4UUUUAFB6UUN0oAqxfdP+8aeajhO5Mj1NSUDEopRRQBha4rQSJcx8ODjP61sWV0l5apMn8Q5Hoe4rH1yV7qZbO1jaaUcsEGcfX0o06G60aVBdhRDctjhs7W7ZoF1I/E+nFT/acC9MCdR6dm/oax43DKCK7o4IIYBlIwQehFcZq+nnSb3bHk2svMRP8PqtUmS0RE4qGeUKhJPApWfIq7oen/b73zZRm3tzkj+8/Yfh1pgaXhzSzbxfbblcXEo+RT/Av+Jrco6mioLWgUUUtACUUUUAFcz4kn8zUooVPEKEH/ebn+WK6OWVIIXmk+7GpY/hXFTyPLKJZPvu5ZvqaaJky5osgh1a29GJj/Mf/WrqJzttpj6Rt/I1xkcnkyxyj/lm6v8Aka7C/YDT7ph08liPyoYR2OIt/uFfYH8xXUeFZd+kCEn5oHI/A8j+tctH8pQ+2DW74blEV+0PaaPj6rz/ACJpslbk3ihPmtX9Qy/yNZ00P2rRorxcmW0PkTe6fwt+Ga2vEkW/Tkk7xyA/geKzfD0yLfvbSgGK6QoynoSOn6ZFC2B7mXa3Mlncx3EX34znHqO4/Gu+gmS4gjniOUkUMK4XUbJ9PvXt3yVHMbH+Jex/pWz4VvsGSwkbrmSL/wBmH9fzoeoI6SiiipLCiiigAPSoZBhg34Gp6YwyOaAIjSUo9D1FJQMKpSDydSP925XP/A16/mKu1V1FGa0MiDMkJEi/h1H5ZpMadmO7UlCMsiK6nKsMg0HrUGwpGRinxtkc9R1pgpCdp3D8aBMtKalBqujZGRUqmqMmiYGnVGDTwaZDFpKWigQUUlLQAUUUUwDr1GRWUifZp5LXsvzx/wC6f8DWrVDVY9scd2o+a3OWx3Q/e/x/CkyouzE6ioXFSgjscio5BUmyILTK6q/o8I/MH/69aQ61loduqQD1Vh+ladUtiJbkgqQdKhBqVTxTIFopaSgAooooAKKKKACiiigApaSigAIzTCtPooAhZQeozTfnX7pyPQ1OVppSgdyMTAHDAqfepQ4PQ5qMr6imeWM8ZX6UAWQwozVYeYOjA/WnCVh1Q/hQFieioROvfI/CnCZP7woFYkpai81f7w/Ojzl/vD86AJaSojOn978qTz8/dVj+FAWJqKg8yU9FC/U0mGb70h+g4oHYnZ1X7zAUzzwfuKWqMIo6Lz707NAAXkPcKPbk00DGeSSepNKTSUAFFFNZQ33uR6dqAGl2fiLGP756fh605I1TOMlj95jyTTqKACiiigYtGaSmF9vVH+oGaBD6RiRyFz9OtNWWNjgOM+h4p9ADFmjZtuSG9CMGngg9DTXRJF2yKGHuKjNuy8wylf8AZf5h/jQBPSVX8+WL/XQnb/fT5h/j+lSxTRzDMbg/jQA8gEYIyDVJrAwsZLGQwMeSmMo31H+FXqSgCmt8YztvYjEf+ei/Mh/qPxq2rK6B0YMp6FTkUMobqKqPYBXMluzQuepj4z9R0NAFyiqQuriDi5h8xR/y0hHP4r/hVmC4huRmGRXx1A6j6igCSiiigYUUUUCCiiigAooooGFFFFABRRRQAZooooEFOBptGaAJQaXNRg0ZoEPzTWNJmkJoGFQ3dyLWAyEbnJ2on95uwqR3WNGd2CooyzHoBWUjteT/AGqQELjEKH+FfU+5pPQaV3Yltoiiku26RjudvVjVmmLxT6k1EpKWigBKKKKACiiigB6tipVeq9OBoE0W1bNOqsrVMrg0zNocahc1Ixqpd3EdrbyXEpwka7j/AIUAjnfE1z517DaKflhG9/8AePQfl/Os4DAxTFZ55pJ5f9ZIxdvqe34VLVoybuxKKKKYgoopKACiig0AJSGlpKAGMKiIqY0wikBFRSkYNJTAKKKKAGSLxkVGGwwNTnkVXIwSKEBYBzRUcbdqkyKACkZgtNaQDpS21vcX1wILaJpZD2HYepPYUARgPNIqRqXdztVR1J9K9F0XTl0vTo7cAeYfmlb1Y/4dKp6FoUWljzpCJbsjBcdE9l/xraWmIpamuNUjf+9AR+TD/Goas6sMXVq3qHX9Af6VWrJ7m0di0OgpH+6aUfdH0oP3TQMQdBUmmH/Srwe6H/x3/wCtUY6CnWB26lMv9+JW/IkU1uTLY06q6kCdPuMf3DVqobsbrOYesbfyqzIlHQVVm/f3Cwj7q8tUhm2WiyHqVGPrimRkWtpJPL1Cl2pMpdzNvJPO1GQj7kC+Wv1PLf0FPgXgtVWAMIQX++2Xb6nk1dQYQCoNrWVh1V7+b7Pp9zN/cjJH1xirFZ+tKZbHyF6ytz/uqCx/lQxILZPLtYU/uxqP0p125FuQv3sbV+pOP605fuL9B/KhF8y+tI/WTef+AjP88UijchiWGFIl+6ihR+FSUUVqcwUUUUAZ085ggupFPzs2xPqeBVGGMDag6KKfdOXuPL/hQlz7seB+mfzp0K4XPrWZulZEtRT/AMNS1DOQCue9AIdB90/WnU2DoafQA3HNMmPIFSjrUMp+fk8UDRJp0fm3xcjiFeP95v8A6386qoctKf8Apq//AKEa1dJjK2QkIw0xMh/Hp+mKyYv+Wn/XV/8A0I0PYlO7ZcXoKXtSL90Up6UxCioruET2k0JGd6EfpUi9KdQBnWjP9mj3nLqoBPrx1q1nIzULIIyhAwMmI/Ucr+hI/Cno2Dikitxxp1JSA4OKokRxzmqd4VUq3JYD5gP7vqfpViWfcTHDgt3fsv8AiaaiBAQOc/eJ5LfWpkaQTZRu5Xgt/PTloWDH3Xv+lSpIrPFKhBRuh9jTZIcK9ufuupCH29PqKZFEFtEKDasg5HZX749iRUFl+ikRt6K3qM0tBQUUUUALRSUUALRSUUALRSUUALTZY45ozHKgdD1Bp1FAHOalpbWoLr+8tz3I5X2P+NT6Trstlthui01r0B6vF9P7w9utbnUYIyD1BrC1TSjCDPaqTF1ZByU9x6itE+5jKFtUdWjpLEssTrJG4yrLyGFcrrujixJurVf9FJ+dB/yyPqP9n+VQaRqr6ZLg5e0c5dBzt/2l/qO9dgDHLEGUrJFIuQeqsp/pTMzjNI1I6ZdFnybaTAmX09HHuO/tXZK3RlIIPII5BHrXHaxph0y6ATJtpcmIn+H1Q/Tt7Vf8N6ltK6dM3B/492P6p/UflQBGkK6f4uiji4jd+B6BwePzrqQa5N5fP8XoQeFuFQf8BFdUDQBxeroI9ZvFHTzS35gGum8JPu0hl/uTMPzwa5zXD/xO7v8A3h/6CK3PBrE2t2vpIp/8d/8ArUCOhoI5BoooKGU4UlKKAFopaSgBaa33aWmynCGgCjYtugY+kjj9as1U03/VTj0uJB+tWqBhVLULt48W9tzcOM5xkRr3Y1NeXItYDJjLk7UX+8adp1mbdWkmO64l5c9ce1AmySxs4bGDZDli3LyE5Mh9TS3lsl5ayW78Bxw3909j+dPVfIkEX8Df6s+nqv8AhT6ZBm6XcvNbmOYYngPlyD3FSalYpqNhJbNgMRmNv7rdqhv0NnfpfKP3UmI5/b+639Kvg0i90cNDays626xlrpm2YPRT3z9K7GytI7G1jt4vup1Pdj3Jpy2sKXkl2qYmkUKzf59e/wBKlouCQtJTqSgYlLSUUAFFFFAGP4kuCltFbKeZmy3+6v8A9fFc8ys4+UZI+b8Bya0vEEm/VmXtFGqj8eT/AEpdAtxc3dwG6CAp/wB9cVS0Rm9WZhAIIPQ10sM/2nw07HlhA0bfUDFcyAyjY3DKdrfUcGtXRp/3F7Zk482JnT/eC8j8sH8KGCZiYymPUVdsbgwy29x0KMCfp3/SqSnMYP8As1pXUKolpIv3J7ZD+IGD/SmI6jUYRc6dcRrzuQlfw5FcYrupWSM7XUhlPoR0rrtFuftGnR7jlov3bfh0/SuXuoTb3c0J/gcgfTt+lJFS7nQ6jBHrmiR3UIxMq+YnsR95f0rloJ3gmjniOHjYOtbvhi98m4azc/LKd8f+93H4jn8Kx9RhFtqVzCowqSHb9DyP50LsI7u3mS5t454jlJFDCn1z/hO8zFLZMeUPmRj2PUfn/OugqWUgooooGFBopaAIXGDu9KaamYVERjigY2j680UUAZ1mPJaa0P8Ayxb5PdDyP8Ksmob8eTcQXY+7/qpP909D+Bqf2qGap3Q2loNJSKHRNtbafwqwpqsRke4qWN9w9+9NEyRODTwaiU08GqMmiUGlpgNOzQSFFFFMQtFJS0AFIyh1KsMqwwR7UtFAGPZho42t3OXgYp9R2/SpXFF0vlamG7Tpj/gS/wD1qVulQbp3RnTv5ep2p/z1rZ6GsTUxtMMv91sf1/pW3nPPrTRMtwpQcUlLiqJJA1OBzUPSnBqBElFNDU4HNABRS0lABRRRQAUUUUAFFFFABRzRS0AMIppFSUYoAixSYqXaKNooAhpCoPUD8qm2UbKB3IPLT+4v5UeWn9wflU20UmBQFxgAHQAUtLxRQAmKKQnAz2pAwbkcj1oAWikooAKKKKBhRRRQAUUUUAFFFFABRRRQIRgGGGAb6jNRfZkBzG8kZ/2W4/I1NRQBDtuV+7JHIPR12n8xR50i/wCst3HuhDCpqXB9KAIkuYWOBKA3o3yn9aJLaKU7mTDf314P506RoyMStGR6MRVZnsU6XMcR/wBiXFAD9lxF/q3Ey/3X4b8+lOW5QttkVo39GGKg+3QL93ULd/ZyP5inC/t3XbJJAyn+7IrD8qALdFVU8kc2t0i/7BcMv+IqZZCB+9Xb/tA5U/jQBIQD1GarT2EE7biu1x0dThh+NWhzyOaMUAUQt/b/AHWW6j9H4f8AP/GnJqEG7bMHt39JRgfn0q5TWVXXa6hgexFACjBUMCCD3HIoqk+niMl7OR7d/RPun6qeKZ9uuLbi9t9yj/lrCM/mvUUAaFFRwTw3Kb4JVkX/AGT0qSgAooooAKKKKBhRRRQAUUUUAFFFFABRRRQIKPcnAHUmori4ito98zhQeg6lvoO9Zly0+oDbIGgtv+eefnf/AHvQe1LYaTews8/9pShUz9jQ9f8Anqw/9lFWBxUagKAAAAOAB2p4NQ3c1UbEgNOBqMGnA0APopAaXNMBKKWkoAKKKKAClpKKAHA04NUdLmgRLuJ4rlfEOoi6uPscLZhhbMhH8b+n0H860Nd1Q2cP2eBsXMg6j/lmvr9fSuXUBQAOgqkjKb6IsIcDFPzUAanBqsyJaSmhqXNAC0UlFAC0lFFABSUppKAENNNONIaAIn60yntTKACiiigAqGUYapqjmwBk0ICIGgtxya2LPwxqF0qyP5cEbAEM7ZJB9hXRab4esbDDsv2mb+/IOB9BTA5nSNCudTYOQYLYHmVh19lHf+VdrY2Ntp8Hk2sexf4j1Zz6k96scmnAUhCgVIopqipFFAFXWV/dQSf3Jhn6HI/rVKtTU4jNp06L97buH1HI/lWUrB0Vx0YAj8aiW5rDYtIcov0paZCcpj0NPpFCL0pqN5eo2z9A4aI/iMj+VOHU1FdhvILoMvERIv1Xn+WaA3NqmsoZSp6EYpI3WWNZEOVcBgfY0k0giiZz2FaGBStSblLdD92NBu+o4/pRrT/6KkH/AD2kCn/dHJ/lU2nkFJMghw5DZ79/61R1N9+pInaKLP4sf8BUvYtayIh8zj3NWqrwjMg9qnqTVhUMyB3cn/lnbyMPxAFTU1V3C9P9232/mCaCWVl+6PpUmnrv1df+mcBP4kgf0qJDlFPsP5Va0hc310/oiL/M0Lcctma9FFFaGAU12CIzscKoyTTqz9YkxbLCDzM20/7vU/px+NJ6DSu7FFj5jhh/Hz+dWAMDFRRjdJu9BUtQbi1Xuf8AWwj6/wAqsVmy3ay6stugO2NGJbsT0IH0oYIvQdDT6jg71JQIBVW4BcGNfvSMEH4nFWuxqK0TzdRhHZA0h/kP5mgL21NlVCKFUYAGAK59BiScek7/AM66KufYbbq7X0mJ/MA1UiIFiP7gp1Mj+7T6QxqHkipKhJ2y1MKAZEYhNI8Gcecnyn0deQf8+lVkYugYja3Rl9COoq1MSiiVesTB/wAB1/TNM1JFguBOnzR3A+6vXcO4HuP5UME9RgcBSWIAHUmoGZrjplIvXoz/AOAoEbOQ02OOiDkL/iakqWzVQ6sQAKoVQAB0AopaKk0GsoZdrDimRx7Q8bDKsc5/nUwUmpFjpiK0I2ExEkkfNz3BqXFTiIdcUvliiwrlfBpMVZ2CmmOiw7leipGQio1YNnHY4I9KBhRS0lIBaKKUCgBKKdto20wGinD2oC0tAGBrWniFvtUC4jJ/eKP4T6/Sn+HdT+yzCynbFvK37sn/AJZue30P6H61tMoZSrAMpGCD3FcrqVl9kuGiIzGwyh9R/iKuL6GE421R2N9Zx31rJbT8K3Q90YdCPcVxDWtxHem0ZdtyjhePXqGHt3rqtA1I39qYJmzdQABierr2b+h9/rRIkVxqZuQinyFMKv3Y9/wHT86d7EpXdjPXS1sruG8WZpGjfdJ5g6k/xce5rcMpjGZoyq/31+ZfzHT8agIBBBGQetP0+YwyfY3PIGYj3x/d+tSncucUtjk9WkEur3jqQy+aQCDwcACt/wAGf8e95/10X+VW7/Q7K93Ps8iY8+ZGOp9x0NL4e0yfTEuknKtvcFGXowA6+30qjM16KKWgYynCkxzS0AFFLSUAFNk5AHqRT6gupVhieVukalj+FAGdo8m+G5P/AE8Of1q67rGjSSMFRRlmPQCsvSJY7TRxPcOEEjs3ufoO9SW0cutSCadTHp6NlI+8xHc+1AXsiWyRri+W7uFKq6FraNv4QOpI9SOa1lHFQ3QPliRBl4jvAHfHUflmrAKtGGU5VhkH1FNENhJEs0RRu/QjqD6ioI3Ylo5eJU6/7Q7MKtL0qK5gMoDIdsqco39D7GgRFLEk0TxSjKOpVh7Gs/TZXAks5zme2O0n+8vZvxFaEUgkDArsdTh0PVT/AIehrN1dHtpYtThGTF8kyj+JPX8KRSdi/SUiOksayRnKMMg0tBY4dKQ0opDQAlFFFABRRRQByOrHOrXZ/wBsD9BWl4YX/j8b3Rf0JqhraFNXuP8Aa2uPxH/1qteG7qGGS4imkWJpCpTccBsZ6Gq6ELci1608i/Myj93cfN9G7/0NZyO0bq6Ha6nINdfqlmbyweNR+8Hzx/Udvx6Vx59e1CE9GV1+5gjBHBHpWopE2gxc/NaT7P8AgLDj9azpBg7u3ek8xo1baxUNgMOzDOcUxG5oFx5V80JPyzrx/vDp+maTxHDsv0mA+WZOT7j/AOtis9ZGikWVPvRtuH4Vd1PW7e/sdgtpUkDB1JIIX1/Sl1H0M0FlYMjFXUhlYdiOhp+pXS3t81wF2syLvX0YDn8KjqOYgEEfe9PamIu6JIYtZtGH8T7D9CMV3NcjoOlTTTxXsuY4Y23JkcyH29veusBqWUh1JS0UihKKKKAFqNx39KfQRQBBSU4jDY7HpSUDI5olnheF/uupU1Us5GeDbJ/rYyY3+o7/AI9avVRuR9nvlm6R3GEf2YdD+PSkyovUmPSkpaQ1BqKKUHad3502lBoAnU1IDVZDg7fyqZTVGbRKDTwaiBpwNMhokzRTQaXNBItKDTc0uaAHUU3NLQIpaqMRxy943Dfh0P6GmNVjUE8yzlX1U1TgfzbeOT+8oNJmsNivexebbSIPvYyPqKvwOJbeKQdGQH9Krv1o004tmiPWJ2X8Oo/nQipFylBpKKozHYpKAaKADNOBplLmgB4anbqizS5oES5oqLNLuoAloqLfS76AH0UzfS76AHUU3fSb6AH0tR76QvQBJmkLCoi1JmgLEpemlqZTZJI4V3SyKg9WOKBj80VnvrFuTtto5bpv+ma8fmaRX1G5+8FtU9E+ZvzPSgDQd1jTdIwRfVjgVEtwZRmBCy/32+Vf8TUUNjGj73/eP/ec7j+tWic0ARiPJzK28+mMKPwp9FGKACij8RSEqOrKPxoGLRTGmiX700Y+rionv7NPvXUI/wCBZoEWKKpHVrIfdlL/AO4pNJ/aat/qrW5k+kZFAXL1FUPtl633NPcf77AUhfVX6RW8f1fP8qBXRoUYrP8As+oP/rL5EHpHH/jThpsbD9/PcTn/AGnwPyFFhcyLUlxBEP3k0afVgKg/tO0JxGzzH0ijLU6KxtYjlLaIH1K5P61YHAwOB7U7C5yt9quH/wBVYSfWVwlH/Exf+O2hHspc/wBKtUUWFzMqG0nf/W6hN9I1CU3+yrVv9YZ5f9+ZjV2imK7Ka6XYL0s4j9Rn+dSrZ2qfdtoR/wBsxU9FAiPyYv8AnjF/3wKQwQHrBEf+ACpaKAK7WVo33rWE/wDABUZ0yyzkW4Q/7DFf5GrlFAFL+zYl/wBXNcx/7sx/rS/ZLlf9XqM3/A0Vqt0UDuyps1JelxbSf78ZX+Ro+0agn37GOQesUvP5GrdFKw+ZlJtUWP8A19pdRfWPcP0pV1jTpODcqp9HBBq6CR0NRyQxSjEkUb/7yg0WHzFGSGwuH82GZUl7PG+0/wCfrSrPfW3+sQXkf95Plcfh0NPk0jT5Dk2yqf8AZJFQtokA/wBRcXMP0fIosPmRbt9Qtbg7Vk2P/ckG01ZIxWDPoFw5yL0SH/popz+dEUGtWKgRETIP4c7h+tKwcxvUVlx6xswL60ltz3YKStaEM8Nyu6CVJB/smgq5JRRRQMKKKKACio554rdd08ixg9M9T9B3qm99PLxbReUv/PSYc/gv+NIN9i9LLHDGZJXWNB3Y4qjJfTTcWqeWn/PWUcn6L/jUIhXzPNkZppf78hzj6DoKlpORah3IkiVXMhLSSnrI5yx/w/Cn0tFQaLQSlBpKKBkgNKDTAacDTEPBpQaZmlBoEPpaaDS0xBRRRQAUUUUAFUdV1NNOg4w9w/8Aq4z/ADPsKXVNTj06EEgPO4/dxZ6+59BXIyyyTzPNO5eV/vN/QegppGc520Qju8kjSSuXkc7mY9SaSkoqzAXNODUylpgSBqcGqEGnBqQEwalzUINODUAS5ozTA1KGpgLRRmigANNNOppoAiamU9qZSAKKKKYBUc4yh+lSUyblcDqeKAPRoAFt4VHaNR+gqQU2NSsaKeoUD9KkAoEAFSKKFFSKtAAop4FAFOAoAWufRPJaW3P/ACxcqP8AdPI/Q/pXQ1k6rF5V1FcAfLIPKf6/wn+Y/EVMi4PWxFC2Hx2NT1V6VZDbl3VJoxaKTqKWgB+lP5Zksz/yz+aP3Q/4HI/Kp7j97PHCOn3mrPuFlG2e2x9oiyUB6MO6n2P86s2t1F55MzCOWQDAPT6Zp36ENa3J4x5eoSr2lQOPqOD/AErKkbzL26k9ZNg+igD+ea17kbXhm/uNg/Q8f4Vh2xLQBz1cs5/Ek05BTLUA5JqWo4R8pPvUlSWFPtE3re/7WF/8d/8Ar0yrGmfcuD/02P8AIU1uTLYyYTmCM/7I/lV/Rh+8u2/21H5KP8aoQjbHsPVGZfyJrR0b7t0f+m3/ALKKUdyp7GlRSUtaGAViX0nnX74+7EuwfU8n+lbEsgiieRvuoCx/CsCLcyhm++53N9TzUyNKa6lmIYT680+gDAxTZHWKNpHPyqO3U+31qSxJBJK628LbZJP4v7i92+vYe9M1G1itrmx8pAqqjxj6YB/oa0bC3aKMySjE0vLf7I7L+H+NQ6wP3du3pKB+YIp20J5veK0HU/Spahh+9+FTUi2I3CGnaQmZrmX0IjH4DJ/nTJPuVZ0dcaejkcyEufxP+GKa3IlsXqwrobdTuh67G/TH9K3axtSG3VB/twj9G/8Ar05bEw3GxHipBUUR5IqWki2MlHINSIcqKa4ytQtMYhtQAyN90Ht7mgNyS4uBH+7VQ8rDhOwHqfQVXVNoBYlnxt3HsPQegoRNgPJZmOWY9WNOqWzWMbCUUUVJYU5VyaFGTVhEwKYmxEQAU/FLRVEBRRRQAUmKWigBpWoJ7RZW3qzRyAfeX+vrVmikBnNHeRHlUmX1UYNN82XODay/pWlSEA0DuygHlP8Ay7uPqRShpf8Anlj6mrmwUhXFIdyoXmA/1OfoaT7Vs/1tvMnvt3D9KtkD1FJx6/rQBDHPDL9yRSfTPNSU2SKGX/WIjfUc1F9l2cwTunsTuH60DJxVHWrUT6ezj78Pzj3HcVP5lxGPnhWX3jbB/I1A9+rkxC3kLMCuzHJz7U0S7NamHpUdw9/G1q5jdM5kHZTwa6QCO3hVRhI1GBmmaZo10luI0H2VDyzt80jH6dBWza6XbWzBwpll/wCekh3H/wCt+FU1cyU1FeZmwwXd1/qF8hP+e0g5/wCAj+tWG0KJbdhFI/2j7yys3IateiqsZubbMm1uDOrLIuyePiRPf1HtVlH2nB6VHqVk7Ot3a8XCdR/fHpTLedLmHevHZlPVT6Ui07l2ioEkKcN93sfSp6AEooooAKKKKACsXxFceXY+UD80zbfwHWtlzgYrGexOr6vl/wDj1tvlb/abqRQJlPSdKfVAstwGSzXgDPMvt7LXRKDCywN90DEZ9QO31FWlVUUKoCqBgAdqSWNZUKOOD+lOxFyLPNR2p8tntuy/NH/unt+B4/KlBZH8qX738Ldn/wDr+1NuEYqJIxmSPlR6juPx/nigZbXpTqr21ykyqMgMRkf7Q9RVimSV7m3MhEkbBJlHyt2I9D6ioY5VlDRum1wMSRN6f1B9avVBc26zAHJSRfuSL1X/AOt7UhmHZE6ffyabIT5TfPbsfQ9q06oarA88KpMBHcxnMMq8I5/u5/hJ9D3qbTrsXlsGPEi8OPekaItUGiigYlFFFABS0lLQBS1HTIdQCliY5kGFkHp6EdxXOXmm3Vpnzod0f/PRBuU/4fjXYUA4ppiaucZbX11bD/RrmRFH8IOV/I0x5WmmdpAu5zu+UYGe/H6110+l2N2cy26hv7yfKf0qlJ4ZtT9yedPxDf0p3RFmcxIpZtgOMck/yoES45H1Jroo/DcKMd91K4znhQCauQ6RYwnIgEjDvId1Fx8rOcgtbm8DC2iL/wC10UfjUqeHtQPBWFR7yZrqxwABwB0A7UtK4+U5JNHu0vI7Ntu5xuEg5UL3/L/Ctuz8P2VqweTdcyA53S9M/wC6OK0e4OORUg5FFw5bATmgGkNApDHhsGgMPMx69KYTTSAWVu6nIoAnopsb70BIwe4p9ACUUtJQA11yKi6ip6jZec0AR1HcQrcQPC/Rh19D2NSmkoGUbWR3iKyjE0Z2SD3Hf8etTUy7UQzLdDhThJfp2b8D+hqQioZqncbRRR1FIoXqKkRsj371EDTgcHI/GmJosA04GolNPBpmbQ8GnZpmaXNMkdS03NLQIcDS02lzQAPyhrI04/6Ls/55uyfrWux+U1j2o8u8uouxIkH40mVAmkplodl7IvaVAw+o4P6VJJVd3EUkUp4COMn0B4P86S3NHsaNFIZEB++v51Xm1GzgOJLhAfQHJqzItUZqmmp2kn3JQfqcVOk8bjhgfxoAmzSUgIPQ0tABRmiigBaKTmigAoowfSg8dePrQAUVDJdW8X+snjX6sKqya1YJwJjIfRFJoA0KKyxq0sv/AB7afcSe5XaP1pd2rTfwQWy+rNuP5CgV0aWcdTTHmjjGXcKPc4qkNOlf/j4v539Vjwg/xp66XYrybcSH1kJY/rTsLmQkmsWanakhlb+7ECx/Sozf30v/AB7ae4H96U7RV9FWNcRqqD0UYpaLC5jKa21i4/1l1FAvonJpg8Pxu26e7mkb6D+tbFFMm7M+PRrWMYD3B/7akfyp/wDZNp6Tf9/Wq9RQF2Uf7Js/7sn/AH9al/sqzH/LN/8Av43+NXaKAuyl/ZVl/wA8m/77b/Gj+y7I/wDLH/x8/wCNXaKAuykNLsh/ywH4sf8AGnDTbIf8u0Z+uTVuigVyuLK0XpbRf98ipFhiX7sUY+iCn0UAAJHTj6UZJ6miigBKWiloASlopaAEpaKWgBKWiloASilooASilooASkpaKAEopaKAEopaSgAooooAKKKKACkpaKAEopaKADJxjt6VTm0y0mbeI/Kk/vxHaauUUAZ/kalB/qLuO4Ufwzrg/mKjk1W4th/pemyr/tRnctadLkjoaViuZmTFrf2hittaFmH9+ULT2lvZf9ZKkC/3YRlv++jVuaytbg5lgQt2YDBH4ioGsJUH+j3RA/uyruH59aTT6FxlHqQpEkbFguXPV2OWP4mn00xXqfft0kHrE/8AQ00zKn+tSWL/AH0IqGmbqUejJaKYksb/AHZEP0NPwakoSilpKACkpaSgYUoNJRQA8GlpgNOzTEOzTgaZmjNAiTNLUYNRXV9b2SbrmUJnovVm+gpiehZ61laprUVluhg2zXPcfwx/73v7Vl6hrtxdAx2wNvCeCc/O349vwrKAAGAMCqUe5jKp2HSSSTStLK5kkc5Zm6mm0UVRkFFFFMAooooAKWkooAXNLmkpKAJA1KDUdGaQEoNLmos0bqYEu6mlqZmkzQAE0lLSUAFFFFABUtpF5+o2sJ6PKoP51FWj4dh87XoD2iDSH8Bx/OhAdx1Yn1NPUU1RUqCgQ5Vp4FAFOAoAAKWiigBaiuYEubd4ZPuuMfT3qraXbIy29y2WPEch6P7H/a/nV+luNqzOeQuC0cvEsZ2v9fX6HrViFv4T+FWNTtGbF1Au6VBhlH8a+n1HUVQR1dVdGyp5BqGrGyd0Wl7j0p1RB8gP3HBqTqMigBGOFqrPCY2aZQWVgPMTr0/iAq03JAp1AFFpJEtZPKmIjMZ+U/MpGO3pSQKVt4lPUIB+lLfwtHbTSRY27TuQ+/ce9OAwAPQUhliL/Vin02PiMUo6UxC1Y0z/AFMxP/PZqr0tlb20iTyzxoSJWyW6U1uTLYqSYF1cqCCBKTwfUA060kmQXCRnaGl428u52jgdgPekuTF9tJgXETxjBC4UkHnHrwRVjR1X7Rdtgbspz7YpdRv4S9Z2/wBmgCE7nJ3O2Sck1YoorQxKGsPi0EQ6ysF/Dqf0FUYhmTPpzU2pvvvUTtEmfxP/ANYVHCMKT61D3Noq0SWnWkP2m48xuYoT8v8AtP6/h/P6VFIXYrFEcSynap/u+rfgP6VqwxJBCkUYwqDAoSFJ2JKo6wP9BL/3HVv1FXqrahH5mn3C+qHFU9jNbmZFxIKnqtC27Y/rg/nVmoN2QXrbLWQjrtOK2II/Kt44/wC4oX8hWRcrvMMfZ5VX8M5/pW3VRM5hWVrKET2kw6ZaM/iMj9RWrVPVozJp0pUZZBvH1HNN7ExdmZsZwwqeqykHDDoeRVgc1KNZDZ5lghaR+QOAB1J9KrRqwXfJzI3X29hUckgub1cHMUWSPc+tT1LZcF1CkpaSpNAFOApBUsa5piY6NMc1LQBiimQFFFFMAooooAKKSikAUUmaAGbpwPU0DAkDqaQbm+6v4mpFjUHJ5PqakAoFchETN95j9BxThAg/hz9alAp2KZPMyMRL/dH5UeUv90VLilxRYVyLyV9B+VH2dP7oqcClAosLmZALdR0UU17RHHzoG+vX86tYpadhczKaRXEH+pnJX+5L8w/PrUq32zi5iaL/AGvvL+f+NT0UyXZj0dZFDIwZT3BzTqptaR7i8RMLnunGfqOlN867g+/GJ0/vJ978qdybF6su+tHhmN3ajLH/AFkf94ev1q3Be2852q4Df3W4NWCM0w2M2GVJow6HIPUensakRinTlfT0qG9t3tpDdW44/wCWidj706GZJ03ofqO4qTRO5bVgwyDS1XHByDg+tSLKOj8H17UAPoJxSFgKieQDqaAGXU4hgklPRFzTdPjaySJZD/rv9YfSQ8//AFvwFRuDcXMURGI1/euD3A6D8/5VdkVZUZHyVbrigmRaoqvazM2YpT+9Tr/tDswqxVEDJI1lQq4yP5VWJaFgsxyD92T19j6GrlIyhlKsAQeoNAzPZFjl2OP3UjZXtsf+mf51Ksk8PUGdPycf0NJLblEKhTLCRgpn5lHt602CXd8jNuYdG/vD/H1FSMtQ3EU2Qj/MOqngj8KkNVJI45ceYoYjoe4+hpoE8f8Aqp9w/uyjP6jmncViw6BlKsoZTwQRkGuevrc6NepeWwP2WQ7ZY+u0+orbF1Iv+ttn+sZDf/XqOee0mjaKZsK4wyupH9KNCldCRuksayRsGVhkEUtYccz6PKVDi4s2P8J5WtmGeK4iEkLh0PcUix9FFKKACilpDQAUUUUAKDipQcioacrYoARxg02pG5FRkUAFLQKWgBtOBpKKAFNJnHU4opDg9RmgBhmU52AyEenAH4nims8u3OVUnp6D8T1/CpSAy4JI9wcYqMCJGO0bn9vmNAEytjvUgcVW/eN0AjHvyf8ACnAbe5J9SaALAYetOqseRg4P1FN2DscfQkf1oFYt0hGe1VfLb/nq/wD30aPKz1kY/iaAsSuMcnge9QNPEv8AGCfRef5UfZYupGfrzThGi9FoGM3eaCrR5Rhgqecj39Kr25ZC9tIcyRYwT/EnY/0/CrtVL+N9q3MIzLBk4H8a91/rSZSdh5FJSxuk0SyRnKMMg0GoNBKUGkooGPU4Psf0qQGoacrdj+HvTJaJwadUQNPBpkND6M0lFMQ7NLmm0ZoFYVj8p+lZUp8u+tpeiyKY2+vUVpP90/SqM8P2i18vO1sAq391h0NJlxRJJVWdPMgkT+8pFTJIZIVZhtbow9D3pD1qS0UrTR7WWCOWR5ZN6hiu7A/Srsem2UYwlpEPquaNOP8Aomw9Y3ZP1/8Ar1arVHI9HYgNlaN961hP/ABUTaVYMc/ZlU/7BI/rVyimIo/2Ta/wtcL9Jmpf7NA+5eXa/wDbTP8ASr1FA7so/YJh01K6H/fJ/pS/Ybj/AKCVx/3ytXcUUWC7KP2G5/6Cc/8A3wtOFjPjB1Gc/wDAVq7RRYOZlE6bu+/e3bf8DApP7Hsz98TP/vSk1oUUBdlNNLsI+VtY8+pGaspGkYwkaL9FAp9FAhDk9TRS0UAJRS0UAJRS0UAJS0UUAFFLRQAlFLijFACUUuKMUAJRS4oxQAmKTFPxRigBmKMU/FGKAG4oxTsUYoAbilxTsUYoATFGKXFLigBtLS0UAJRS0UANopaKAEopaKAEpKdSUAJRS4oxQAlFLijFACUUuKMUAJRS4oxQA2inYoxQA2ilxRigBKKXFFACUUtJQAlGSO9LRigCKSCGUYkijb6qKgbTbY8oHiP/AEzcirdFAXKJ09x9y7l/4EAaT7LdL0lib/eQj+VX6SlZFKcl1M8xXa9YEf8A3JP8aieZo/8AW21wg9dm4fpWrRyOlLlRaqyMlLmCQ4WZM+hOD+RqXHGavSRpKMSRo/8AvKDVZ9MtWOUV4W9YnK/p0pchSrd0Q0ZpHsL1P9ReRyD0nj5/MVE0OrAYFvak+olP8qnlZp7WJYBJ6VXutRtLP/XzKG/uL8zH8BXOatLq0MhjvJJI0PTYNqn8RWWOOlUodyHV7G/d+IJpcraJ5C/325f8OwrKJLOXZizt1Zjkn8arhjTg9Vaxi5N7ktFMD04MKYhaKM0UAFFFFABRRRQAUUUUAFFFFABRRRQAUUUUAFFFFABRRRQAUUUUAFdB4Nh3S3lyewWMfzNc67YGACSeAB3rufD+nHTdNWOT/XSHzJPYnt+AoA1UFTKKYgqUCgQ4CloFLQAUUUUAZbIkkZRwHRh0PQ0RT3Ftwc3EXoT+8X/4r+dPmtJLclrZd8R5MWcFf93/AAqAXEJO0uEbusnykfgajY10ZoQXtvOdqSAP/cbhh+Bqjf2TQu1xbqWRjmWIdc/3l9/Ud6bK1uy/vmiI/wBoilgV5CBaiYL/AHtzKg/Pr+FF7itbVEEcgIDoQysOo7ipUbacZyO1S3GmOuZbZ8ynl0bhZD6+x/yapq+WKEMjr95GGCP8+tLYtNMtdX/CnVCjYAz3qagCtqH/ACD5/wDd/rTT1p9+M2E4/wBg0zrzSGidD+6FOHQVGh/dH2NSD7opiFqG2mtIppxcq7MJSRlGZRkDp2qaooiRc3A9drfp/wDWoC1xNTvbWb7O0chLrJtwUYcEY7j6UWNzHbXkyybvnRSNqFuhI7UtyhmtpI8nJXj69qj064A1C2c8CeNk/Hg/0NHUVvdsaR1BMZSC5f6Qn+tPtbo3Jk/dNGEODuI69xx6U2aZppTbW5+Yf6yQf8sx6f71LcPHp+nSOihViQ7R79v1qzMxxL589xNnIeVgp9l+Ufyq0oCpycADkntVS1i8qGKI9VUZ+vf9astH9pnjtR91vnl/3B2/E8fnUI2eha0yLcGu3GDIMRg/wp2/Pr+VaFJ0GBS1otDBu4UhAYEHoaWigRzlrlYgp6xsUP4HFXqpyL5WqXsXYsso/wCBDn9RVtDlAfaszoEUbtQtF9CzfkP/AK9a9ZdphtUH+zCT+bD/AArUqomU9wpCAwIIyDwRS0VRBzkSmNWhPWFjH+XT9MVZX54yPUEUuox+VqO7+GdM/wDAl/8ArY/KmRHBx61nszfdXKFgCu8EYI7fjVuq5HkX7ofuy5Zf6/rU9S9zWOwUUUUihV5NWkGBVeP71Wh0qkTIKKKKZIUUUUAFJRRSAKSgnH9BT1Hc9aBiKnc1IBQBTwKZLYgFKBS4pwFBNxAKUClAp2KZNxMUoFKBS0CEApaKWmIKKKKBBRRRQAUUUUARTW8NwMSxq3v3H41ALa4g/wCPW5JX/nnN8w/PrVyigZV+3vFxeW7xj++nzL+lVJrcbvtWmurj+KNT/L/CtWq8tjbytv2bH/vxnaf0p3EV7edLhcjhvT/P8qlqvNp1wrmSGZZD3EgwT+Ipv2qWA4vIJEX/AJ6AbgPqR1HvSLTLG1f7opQAOeAO5pkUscwzFIrj/ZNVXEmouYkOyyU4kcdZj3Vfb1NA27FuyG6IznrMdw9l/h/Tn8asUmcdBgDoB2ozTMhssfmbSrbJEOUcdv8AEe1S29z5jeVKPLnA5XPBHqD3FMzTJI1lXa4zg5BBwVPqD2oAvUVQSa4g4cG4j9Rw4+o6H8KsQ3UE5xHICw6qeGH4Hmi4WJqr3Fqk3zZKSdnXrVikNMRUSOccOVJ/vAcH+opxEq/8s93+6wqxSGlYdysZMfejlH/AKPPUf3/++DVikyfWgLlfzQQQIpWz1/dn+tZ0mmSxymfTVNu5+9HIRsb8OorYzRRYLmQNQeA7b+1ltz/fA3J+Yq5DNFOm+CRJF9VOatZ4qlcaZZztvMPlyf8APSI7G/SixXMTZoqg1rqEH/HterMo/guF5/76FMOo3VuP9MsGAH8UTbhSsUmmaNLVCHWbCUgefsb0kGKuq6sMqwYHuDQMWlpKKAHBqQ0lFACilptLmgBaTNGaSgBaSkZlUfMwX6nFQte2qnDXMQPpuzQBPgHqAaUHAwOKri8tz0lB+gNKLqA/x/8AjpoAnpKYJoz0b9KUSKTwSfwoAdRRRQAUUUUAFFFIWA6kUALRTGmRRknj16VSn1m0hyA4d/7qHJoANv2G629Ladsr6I57fQ1aIrGl/tDVDzbtHB2DHaPr9a0bWSQZt7jHnxgcj+NezVLRcZX0JqKUikqSwo60UUDHq2evUdaeDUPuOoqRW3DNMlolBp1RA08GmQ0OopKWgQjVWX7gqyar4xkehpMqJGQASQOvJpp6U9qYelI0Esf9bdL/ALYP5ireKqWQ/wBKuv8AgH8jVytY7HLP4mJRilpaZAlFLRQAlFLRQAUUUtACUtFFABRS0YoASilxRigBMUYp2KMUANxRinYoxQAmKMU7FGKAG4oxTsUYoAbilxS4oxQAmKMU7FFADcUuKWigBMUYpcUYoATFGKXFGKAExRinYoxQA3FLS4oxQAlFLijFACUlOpMUAJRS0YoASilxRigBKKXFJigBKKXFFACUUuKMUAJRS0YoASilxRQAlFLRQAlGKWigBMUYpaKAExSYp1GKAG4oxTsUYoAZijFOxRigBmKMU7FGKAG4oxTsUmKAExSYp2KMUAMxRinYoxQA2kp2KMUAMdVdCjqHQ9VYZBrNufD+mXIP7jymP8UTY/TpWpiigDmJfB4OfIviPaSP/Cs+48ManDyiRzj/AKZvz+Rrt6KYHm01rc2xxPbyx4/vIRUQbPQ16f1GDyPQ9KoXWi6ddkmW0QMf4o/lP6UDOBDGlD11Fx4RgbJtrqSM+kg3D86yrnw1qcGSkSzqO8Tc/kaAM8PShhUcsM0DbZopIz/tKRTA3oaVgLFFQhzThJQBJRTQ4NOyDQAUUUUAFFFFABRRRQAUUUUAFFFBIFABQxwKIlknlEUEbSyHoqDJrqtG8PraMtze7ZLgcqg5WP8AxNADdA0MW4W8vEzcHlEP/LMev1/lXRIKYBUqCgRKgqQUxRUgoAWloooAKKKKACmPGkgxIiuPRhmn0UARJbQIcpDGp9QoFS0UUAFQXNpDdKPNX5h9114ZfoanooAxZoJYj5aK05TqQADj1x3pkU6kkKc46r0I/CtN/kvkbs4xUk9rBcj99ErEdD0I/Gosac/cyrlle0mGeqMMfhUMR3RIfVQf0q9JpRwfJnOCPuyDd+vWs60z9ljDfeUbT+Bx/Sk0WmnsWEPBFTL90VXBqeM5SgY6oel7/vxfyP8A9epqjaNHu7bzM7SzIcHHUcfyoEK0iIwVmG49FHJP4Vl3sMkXyANE8cyyxnPIDH9OeK6eG3hgGIo1TPUgcn8azdfg3QrOo6ZRvoen6gfnTa0JjPWxfsGiazjaFNikZ29we+ffNUtbfd9ntv8Ano+9v91ef54qPTbsI6hj+7mwf91j/j/Oorx/N1Wdu0SrEPr94/zFDegKNpDohlsk4Hc1Z0P99bven/l4bKeyDhf8fxrJ1R2TT5IoziSRDz6L3P8AT8a6KziEFlBEowEjVfyFEdxz2J6KKKsxCiiigDG1VNmpwSf89YmT8Qcj+ZoiOU+hqbXVxaxTgf6mVWP0PB/nVeHhmFZvc2jrElsSP7Xlz/zyCj+da1YcL+XdSzf3JFB+m3B/nW3VRInuLRRRVEFLVYjJZmRRl4T5g98dR+WazQehB9wa3uowawniME0kB/gPy+6np/h+FRJGsH0GX8Zlt1mjH7yI7h7juKbG4kQOvQ1YibBwe9VJI/sU2f8Al3kPH+wfT6UnqaRdnYloooqDUenrVhDkVWTrUyHBxTRLJaKKKokKSlpKQBSUtJQMI/m+f16VKoqGL5RsPUVMtAmSAUtIDRTIHCnCmCnimJjqUU3NKDQSOopM0tMQUuaSigBc0ZpKKAFzRSUUALRSUUALRSUZoAWijNFAgooooAqz6daz5LRBWP8AEh2n9KrNbXtrgWzCeIcBHOCB6Vp0UDuZf2/yx/pVtPb/AO0ULL+YqRL20k+5cxH/AIFWhmoJbO3mbc0YD/3l4NAtCITwnpNEf+BilEiHpIh/4EKa1nIp+QwzD+7NGM/mKTFsg/0nT1j/ANoRhl/MUBYk3D+8v50yRIphiVUfHTPUfjUsdrp8y7o4bdx/sqDTv7Ps/wDn1i/74FMRWCPH/qbqRPZiHH6/408T3a/8+8o+pQ/1qb+zrP8A59Yv++BR/Z1l/wA+sX/fNFh3RGLuUfftJP8AgDK1L9tj/jinT/eiP9Kd/Zlkf+XaP8qT+zLPtAB9GI/rRqGggvrU/wDLdR/vZH86kWaJ/uSxt9GBph022PQSD6St/jUbaRA3/LSX8SD/ADFGoaFkg+lIap/2S6HMN0V/4Dj+RFRuuoWxGZA69jkH+Y/rRcLF+kNUvt0sf+vtyB6gEf4j9anju4JcYfaT2bj9elF0KzJCKYcipCKYRTEV5ba3m/1kEbfVRVVtJtRzCJLdvWJyP06VoEU3FAXM/wCw3af6rUXP/XRAaUJqqfdntZP95SKv0lKxXMyl5urL1t7VvpIRSi41PvZQ/hNVylosHMyn5upnpa26/WX/AOtRu1Q/wWi/ViauUUWDmZSMeqP1urdP92Mmk/s+eT/X6hOw9Ewoq/RTsLmZQbR7F1w8TOf7zSEmof7BtVOYpJoz7EGtWkxQF2Zo0uVPualcgehANOFhdjpqUn4oK0KMUWDmZn/Yr4dNR/OIU4W+pDpqEf4w1eopWDmZS8rUx/y+W5+sJoK6qOk1o3/AWFXaMUWHzMo7dWP/AC2tB/wAmkMWrH/l7th9IjWhRRYOZmYbTVH+/qEY/wB2OnDTJT/rdRuG9lworRop2FzMoLpFnnMiPMf+mjlqtRW8MIxFDHH/ALqgVLijFAhKguoGlVXiIWeM5jJ6H1U+xqxijFA07FaCZZ496gqQcMh6qe4NPIqO5t3WT7TbDMuMOnaQf406GZJ498ZOOhB6qfQ+9ZtWOiMri0UpFJUmgUcg5HX+dFFAEisCMinA1Acg7l69x61IjBhkUyWiUGnA1EDTw1Mlocarv981MT8uag/nSY4jWphpzVGzBQWPQDNIsksBl7h/Vwv5CreKr6chWyQsPmclz+JqzWq2OSTu2JijFLRTJExSYp1FACYoxS4oxQAmKXFLiigBMUuKKWgBMUYpaKADFFLRQAlLRS0AJRS0YoASilxRigBKKdijFADcUYp2KMUAJijFLilxQA3FGKdijFADcUuKXFLigBuKMU7FGKAG4pcU7FGKAG4oxTsUYoAbijFOxRigBmKMU/FGKAGYoxT8UmKAG4oxTsUuKAGYpMVJikxQAzFGKfijFADMUYp2KMUANxRinYoxQA3FGKdikxQAmKMUtFADcUU7FGKAG0U7FGKAG0UuKMUAJRS4oxQAlGKXFGKAG4oxTsUmKAG4oxTsUYoAbikxTsUYoAbijFOxSYoAbijFOxRigBmKMU7FGKAGYoxTsUYoAbRS4oxQAlJS4ooARgHXDgMPRhmqFzomm3XMloit/ej+U/pWhRQBzNz4QQ5Npdsv+zKuf1FY93oGpWmS1uZU/vRHcP8AGu9o6U7geYHKttYFT6EYNLuIr0qe3guV2zwxyj/bUGs2bw1pcpyIHiP/AEzcgflQBxAkIpwlrqZfCFq3+qupk/3gGqnL4QulH7q6hf2YFaBmIJRS+YKvv4Y1VDxDG/8AuyCoz4e1Zf8AlzY/Rgf60rAVd49aN4q7F4b1WR8G2EQ/vSOAK1rPwlEhDXtyZT/ciG0fn1osBzXmDOB19KtwadqFzzDaSsD3IwP1rtraws7QYt7aNPfGT+dWDk9aBHIweGL6TBnligHoDuNaUHhaxQgzyzT+2do/StzFLigCG2tYLSPy7aFIl9EGM1MBSgU4LQAKKlUUgFPUUAPWnCminCgBaWkpaACiiigAooooAKKKKACiiigCC6jLxZX7ynIp8MgljDjv1qSq/lvDIWiG5W6r/hSH5FiufK+Xc3MfTbKSPoef61vKSwyVI9jWRqCeXqe7HE0YP4qf8CKUiobkNTQnjFRU6I4apNSeorklYfMHWJhIPwP+GaloIDAq3QjBoEagIIBByDTJ4lnheJ/uuMVBpkheyRW+9HmNvqOKt1puY7M5i1ztkgmHzROUcfrRZbngEjEs0rFyT1OTx+mKn11Pslw10vCXEZjb2cD5T+IyPwFRj9xbgDqiAD64xWRundXGXAEiTyeuI1+gI/rXTVzcqiO12/3do/8AHhXS1UTOp0CiiirMwooooAgvYPtNnND/AH0IH17VjWsm9Y3/ALy8/Wugrn3TyLu4hHAV96/7rc/zzUyNKb6EsIy0+RkGUgj2wK0LCUtEYmOXi4+o7H/PpVCHkSH1kJ/lT9zRSLMgyycFR/Evcf1FJaFSVzXopqOsiK6EMrDII706rMQrP1WEmNblBlovvAd17/l1rQpKT1GnZ3MH3B/GphtmjKOAwPBB70y4g+xz+Vj90/MR9PVfw7e30pqsVORUbG+5XmR7HlsyW3Zv4k9j7e9SRuki7kYMD3FXFYOv9KpTacisZLdmhb1Tp+VKw1Kw8VIpz9apebPCP38YcD+OP/CporiKT7rjPoeDSLumXEbIp9V1bB5qdTkUxMWiiimISkpaSkMQjPQ4I6GnpICcHhqbSEZGDzQBODTs1WG4dD+Bp4c9xQKxODTgar+YfSjzj/d/WncnlLOaUGqvnP8A3P1pPPf+5+tFw5WXN1G6qn2hv7h/Ol+0nujUXFyMt7qXNVBcj+635U4XK+jflTuLlZZzRmq/2hfU/lR56etAuVljNGagEyf3hThKp/iFAcpNmiow4PenA0CsOopM0tMQUUUUAFFFFAC5opKKAFopKXNAgooooAhltYZW3sgD/wB9Ttb8xTPKu4v9TcCQf3Zh/wCzD/CrNFAFX7e8X/H1ayxj++nzr+nP6VYguoLgZhmR/YHn8qdUM1pb3BzLCjN/exg/mOadwsWqKofZJov+Pa7kUf3JfnH+NOFzdxcT2wcf3oWz+houKxdoqsl9buQpfy2P8Mg2n9asUxC0hAYEEZB7GlooApSxm3+ZSTF39U/+tUTwRPyUGT3HFaPWqOzypWi/hHzJ9PT8KhouLIlhki/1EmB/dbkU9ZhkLMvlsehzlW+h/oafQQGBBAIPUHvQnYbVxStNK0xQ8P3MyR/3CeV+h7/Q1MpV1DKcqe9UnchqxFijFS4ppWmIjxRipNtJigBuKMU7FGKAExRinYoxQA3FGKdijFADcUYp2KMUANxSYp2KMUANxS4pcUYoATFGKXFLigBuKMU7FFADcUuKWigBMUYpaWgBuKrz2pZzNbsI5++fuv7N/jVqigadijDcLK5jZTHMv3om6j3HqPepCKlnt4rhQsq8j7rDhlPsaqM01ocXH7yLtMo6f7w/rUOJvGpfcloo4YBlIIPQiioNApRjOe9NooGSZI7Z+lJvbPTFNyaTNMVhzNu60lJSE0hiOaglUylIF6ytg+w6k1ITk1JYR7ma5Ydfkj/3e5/E/wAqaV2TOXKi5gAYHAHAopaK1OQSilooAKKKWgBKKWigAoopcUAJS0YpcUAJRS4pcUAJijFLilxQAmKMU7FGKAG4pcU7FGKAG4oxTsUYoAbilxTsUYoAbijFPxRigBuKMU7FGKAG4pcU7FGKAG4pcUuKXFADcUYp2KMUANxRinYoxQA3FGKdijFADcUYp2KMUANxRinYoxQA3FGKdijFADcUYp2KMUANxRinYoxQA3FJin4oxQAzFJin4oxQAzFGKfikxQA3FGKdijFADMUYp+KMUAMxRinYoxQAzFGKfijFADMUYp+KTFADcUYp2KMUANxSYp+KMUAMxRTsUYoAbikxT8UYoAZijFOxRigBuKTFPxRigBmKTFPxRigBmKTFPxRigBmKTFPxSYoAbikxT8UYoAZijFPxSYoAZijFPxRtoAZikxUmKNtAEeKMVJtpNtADMUmKk20baAGYoxT9tG2gBmKMU/bS7aAGYoxUm2l20AR7aULUm2lC0AMApwFOC04CgBAKcBSgUoFAABTqKKACloooAKKKKACiiigAooooAKKKKACiiigArO1lP9HjuAOYXBP+6eD/ADz+FaNMkjWWJo3GVcFSPY0nqNOzMQilXg1HEGRTFJ/rIjsb3x0P4jBp9Zm5ZByAaKZE2RipKYhbKURXrwscCcb0/wB4cMPywa065/VIXlsy8LFJoGEsbL1BHX9M1qafe/aYwsqhJwASAeGHZl9j+lUn0ImupB4gVZNKeNh990A9juHNZ8vzTRp6ksfw/wDrmtDXf+Pe3X1uE/qf6VQQBrlm/uqF/rUy3KhsNu/+PaUjsM/kQa6MHIyKwWTzI3X+8pH6VsWT+ZZQPnO5FP6U4iqE9FFFWZBRRRQAVlaxHsmguR0P7p/oen6/zrVqG7t1urWSBuA64z6HsaTV0OLszKtzjcvvkVNVKCRioZxiRSVcejDg1cByMioN2PtpvssuxjiCQ8f7DH+h/n9a06ySAylWAKkYIPeprO5MbLbTMSDxE57/AOyff+dUmZyj1NCiiiqMyK4t47mFopBwe46g9iPesV0kgm8mf7/8LdpB6j39RW/UVxbx3MRjlXK9R6g+oPrSauVGVjGVip4qdJAevWobiCazP73MkXaUDp/vDt9en0poOQCDkHoRUG2jJ3iB5Xg1TntI5OHUq395eDU4kZehpxlJGGUGgCgPOtfvlpYv7w6j6j/CrsE6ugZWDKe4pDjtVeS3ZWMluQr91PRqRSZoBgaXNUILoOxQgpKOqN1/D1qwJKLjsWKSohJTt9AWH0lJuozQAtFGaUDPagBKKjeeGM4eVAfTPP5ULMZP9TBPJ7hMD8zigLklFIIrx+kUMX+++4/kKeLGZv8AWXhHtFGB+pzTsTzITBPSmPLHH/rJET/eYCpxptuf9YZZf9+Q/wAhUsdpbRf6u3iX32DNFifaIzxdwMcI5kP+whb+Qpwklb7lpcn6qF/ma1QT24op2F7RmaEvW6Wqr/vzD+gpfst8erWy/wDfTf4Vo0UWJ52UPsN0et4g/wB2H/E0f2dKet6/4RqK0KKdkHPIojTj/wA/tx+AX/ClGnsOl9c/mv8AhV2iiyFzMp/Yph92/uPxCn+lH2a7HS//AO+oVNXKKLBdlTZqC9JbaT/eRl/kaPNvU+/aRye8cv8AQirdFFhXKf29E/18FxD7tGSPzGamhuYJ/wDUzI/src/lU2ahmtbe4/10KOfUjn86LDuS0VV+xyR/8e11JGP7kn7xf15/WkNxcQf8fNuSv/PSH5h+I6j9aALdFQw3UM67opFcex6VLuB70BYWlzSUUALRSUuaACiiigQUUUUAIyq67XUMvoRkVD9jhH3FaP8A3HK1PRQBXNq/8F3cL+IP8xSfZpv+f6b/AL5X/CrNFAFX7LcZ/wCQhN/3yv8AhTWspWZWa9mJXOPlXv8AhVyigZT+wMet7cfgQP6Uf2eP+fu6/wC/g/wq5RQFyp9g9Lu6/wC+wf6Uw6fICWjvbgE9R8vP6VeooApiykIz9uuP/Hf8KPsUva/n/EL/AIVcooEVPscw/wCX2X8UX/Cj7LP/AM/jfjEtW6KAKn2W47Xf5xCj7NddrqM/WH/69W6KAKTW99/DcW/4xH/Gm+RqI/5bWp/7Zkf1q/RQBQ8nUf79of8AgLUoi1DubQ/99VZkmdGOIXZR1YelSgggEd6LjsUDHqOeFs8eu5qUQ3/drUfQMavUUCM82+ok8T2oH/XJv8acLe/7z234RH/Gr1FAFIWt6TzdxD6Qf/XqB2vbRy1yqT2//PSJcMnuV7itSigCojLIgdGDI3IYdDTqimtHgczWQHzcvCThW9x6GlhmSdSUyGU4ZGGGU+hFO4miSiiimIKKWigBKKWigBKKWigBKKXFGKAKb2piJe1HB5aLsfp6GmRypLkDIYdVPBFX8VDc2sdzgtlJB92Reo/xqXG5pGbW5DSVC7y2zhLnHPCyr91vr6Gn+ZWb0OhO+qH0VH5lHmUDHk0xmpC+ajZsEDBJY4AHUn0oDYcsbTuIhwG5Y+i1phQAAowAMAelMt4fJTnBduWP9PoKlxWqVjlnLmYmKMUuKMUyBMUYp2KMUANxS4pcUuKAG4oxTsUuKAG4pcUuKXFADcUuKdilxQA3FGKdilxQA3FLilxS4oAbilxS4pcUANxRinYoxQA3FLilxRigBMUYp2KKAG4pcUtFACYoxS0UAJiloooAKKWigBKKWigBKKWigBKKWigBKKWigBKKWigBKKWigBKKWigBKKWigBKKWigBKMUtFACYpMU6igBuKMU6koATFGKWigBMUmKdRQA3FGKdRQA3FGKdijFADcUYp2KMUANxSYp+KMUAMxRin4oxQAzFGKdijFADMUYp+KMUAMxSYqTFJigBmKMU/FGKAGYpNtSYpMUAM20m2pMUYoAj20bakxRigCPbRtqTFGKAI9tG2pMUYoAj20bakxRigCPbRtqTFGKAI9tG2pMUYoAi20balxRigCLbRtqXFGKAI9tLtp+KMUAN20u2nYpcUANApcU7FFACYpaWigBKWiigAooooAKKKKACiiigAooooAKKKKACiiigAooooAydWi8iVbvpGQEl9vRv6H61XIxW4yq6lWAZSMEHoaxrm1axPGWtv4W6mP2Pt6GoaNYS6DVbBqyDkZqrT4328HpSLJ6rxIFJgJKmL5omHUKfT6dKsDBGRUcyMQrxjMkZyo9fUfjQIh1C5kkFpDOvz+eCHUfK3B/I+1Mt+VZv7zE/0puoSqYrOdT8n2hefqCKfajFsmP7ufzpdRpWROgxHmrekODaGLvC7J+uR+hFV1HyilsG8q/dD92Zcj/eX/6xH5VS3JlqjVoooqzEKKKKACiiigDF1KH7PeiUD93ccH2cDj8x/Kkhb+E/hWrd26Xds8L8BhwR1U9j+BrDjZ/mWQbZoztcD19foetQ1Zm0HdWLlI6LIhVxlTSRvvHv3p9IZNa3bIywXLZzxHKf4vY+h/nV+sllV1KuAyngg96fDdPajbMWkgHR+rJ9fUe/51SZEo9jTopqsrqGRgynkEHINOqjMSqFxpaMS9q3kP1K4yjfUdvwrQopWuNNo56TzoDi5t3TH8aDeh/EdPxpVdH+46t9DmugqCW0tpuZII2PqV5/Op5S1U7mPg0hYKMk4rUOmWn8MZX/AHXI/rVaezsI+Jbl1x283J/KizK50zPmSGcAORkdGHUVB5k9uQGZZk7MeP17H61da2tc/uvtsnoeAPzIpPsjn7p8sf7Tbz/LFSVfsQrdR52vuib0cY/WpTIqjJdQPUmlj02EDEsk0o7KW2qPwFWIra3hXEVvCv8AwAE/rRYrnKouUJwhaQ+iKTUifaZBlIAo9ZHA/QVaEa56YHoOlToEHemkS5lRLS4f79wqD0jT+pqUafbn/WeZN/10ckfkKtCiqsjNybGxQxQj91Eif7qgVJkmkopki0tIKWgAooooABS0lLQIKKKKAClpKWgAooqvNe2tucTXEat/dzk/lQMsUVR/tONv9Tb3Evodm0fmcU03d4/3YIIh/tuWP5CldD5WaFNLKDgso+prOLXbfeu9vtHGB+pzUb2qS/66SaX/AH3/AMKVyuRmtkYzkY9c1E11bJ9+4hX6uKy/7NstuPssePxpyWoh/wBSI8D+GSMMPz60cw/Zl46lZA4+0x/g2aP7Rs/+e6/karrcqmBNGIPRhgofx7fjVnJ9aV2S4ohmOn3Lby+2T/nomVb8+/41AfNh5EhljH8aDkfVf6iruT6mkzQUnYgS5faGyHU9GWpkug3eopIMkvCRHIevHyt9R/WoVKyMUdCkq/eU9R7g9x70ilZmisoNPDA1nDev3Wz9aetxt4cFadxOHYv0ZqBJgR1zUobNO5DVh9FNzS5piFooooEFFFFABRRRQAUUUUAFFFFABRRRQAUUUUAFFFFABRUPlzeZuM/y9l28VKxIUlRk44HrQMWq2oQS3FviB9sinIycA+xpNOuvtlqJTwdxBHpzVqgNmUYr8yMyFdkqffjbqPf3HuKmF2P4kI+nNF3ZxXajflJF+5InDIfY/wBKzJZLy1kWGdITu4WdmKo3sfQ0tS1ys1hcxH+LH1FL58X/AD0X86zjBqJ43WifgzUhsbtxh75F944QD+tPUXu9zTEsZ6SKfxp45FYrWV1aMJoJ5Lof8tI3xuI9V9/ar1tfpIgLng9HHT8fQ0vUVr7Fyq9xaLIwkQlJVGFdeo9vcexqwCGGQcj2opiKCTMjCO5UIxOA4+4/+B9jU+KlliSVCjqGVhggjINUmElgPm3y2o/i6vF/iv6incVuxYpaFKuodGDKwyGByDS4pkiYopcUYoATFGKdiigBuKKdikxQAlGKXFGKAGOiyIUdQynqDVCaykh+a3BePvGTyv09R7VpYoxSauVGTjsYyOr/AHTnHUdxTq0bizguTmRPnHR14b86rjTADxdS49CBUchuqy6lUkKCWIAHUmrdhAT/AKTIMMw/dg9l9fqadHpsYbdNI8w7KwAX8h1q7inGNiJ1ObRDcUuKXFLirMRuKXFLilxQA3FGKdilxQA3FLilxS4oAbijFPxRigBuKXFLilxQA3FLilxRigBMUuKWigBMUtFFABRS0UAJRS0UAJRS0UAJRS0UAJS0UUAFFFFABRRRQAUUUUAFFFFABRRRQAUUUUAFFFFABRRRQAUUUUAFFFFABRRRQAUUUUAFFFFABRRRQAUUUUAFFFFABRRRQAUUUUAFFFFABRRRQAUUUUAFFFFABRRRQAUUUUAJRS0UAJRilooATFGKWigBMUYpaKAExRilooATFGKWigBMUYpaKAExRilooATFJinUUANxRinUlACYoxS0UAJijFLRQAmKXFLRQAlFLRQAUUUUAFFFFABRRRQAUUUUAFFFFABRRRQAUUUUAFFFFABRRRQAUUUUAFIQCMEZFLRQBnT6dt+a1wB/zzPT8PT+VUs4fYwKP/dYYP8A9et6o5oY502yorj3FS4lqdtzHVip4qZZA3Xg1LJphHMExH+y43D8+tV3trqP70G4esbA/ocVNmXzJmdr8bx6bNJEMruWRh/dIP3h/Wr9uv7tB6KP5VWvyW0+5hdXTdGQA6EdqtWrB4I5B0ZFP6UupXQlqtfRlohIjOrRMHBQ4OB1H5Zq1SEZFMQiyXSAGK73r1AlQNkfUYNSC9vF+9DDJ/uuV/mKpQypbg28jEFOU4JJXt09OlTq8jnEdtO3uV2j8zRcTSLA1GUfesn/AOAyKf60f2k+D/oU3HqV/wAai+y38nAEFuPUkyMPw4FTRaXGCGuZHuW/2+FH0UcVWpL5SKPVZp5fLtrJpCDhm8wBV+p/wzWku7aN2N2OcdKVQFUBQAB0Aopoh+QtZmq2rAi8hUl0GJFHV0/xHX8606KGrgnZ3OfRwQrowIIyCOhFWUcOPeo761+wyGVB/ornLAf8smPf/dP6VGCVORUbG++paopqOG4706gQ1A8DF7ZwhPJQ/cb8Ox9xVuLUIyQk48hz/ePyn6N0qtQQGBBAIPUHkU07CcUy815bJ96eMf8AAqYdQg/gLP8A7qk1mm1UcwuYvYcr+RphW4TrGsg9UbH6GjmYuRGi19If9Xbn6uwH6DNRtcXT9ZET/cXP6mqP2jZ95ZE/3lNOF2h6SJ+JpXHyonaPf/rXkk9mc4/IUqIkf3EVfoMVD9oB/iT8xR9o91/OgdixRUInz2zThKPSgCQUtRiQf3TTw2f4TQAtLmkooEODEU8SEd6jophYmEvqKcJFqCii4rFkOp70uarUZIouKxaoquHI708St6Zp3FYloFVWv4VbYGDP/dT5j+QpRLeS/wCqtgg/vTHH6DJouKxapskiRLuldUHqxxUQtLiT/X3b4/uwgIPz61JFZW0TbliUt/eb5j+ZphoU5dYtIztQvK3+whx+Z4qP+0pZfuG2hH+0+8/kMCtemmNG6op+oosCa7GVlpR+8u3k9lYKPyFLFBFEP3USL9BWg1nbN963iP8AwAUw6daH/lgo+hIqeUtVF2K3PfNJVg6Zb9jKPpI3+NJ/ZsY6TTj/ALaUcrH7REFFT/2fj7tzL+OD/SmmxmH3bkH/AHoxRZj50RUU82l0Ojwt9QRTDBeL/wAsY2/3Xx/OizHzoO2PWolV7fm3G5O8JPH/AAE9j7dKeRcr96zkP+6wNNM2378M6fWM/wBKVgumWIpEmjDxnKnj0IPoR2NOrPe6hhczxyDP/LROQXHr9R/9ar6srqGVgysMgjuKCWrC1HNCJlHOx15Rx1U/1HtUlFAipG5YsjrtlTh1HT2I9jT6W6iZwssQzNH0H98d1/z3psbrLGsiHKsMikaJ3DaAcjIPtT0ldOvzD9aSkoK3LKToepwfepgeOKoU9HKHKf8AfPanchx7F3NLUUciyDI/EelSZpmdh2aKbmlpiFopM0tAgooooAKKKKACiiigAoopH3bDsALdgelAC0VFCJxnzih/3akc7UY+gzQMWiq1hci5iZt2cE4PqKs0A1bQzXb7DqfC/urkFhjs46j8Rz+BrRVgyhlOQehqC+tftdq0YO1x80bf3WHQ1TsL0tCJduFJIkTujDqKWxVuZeZqU2REljaORQ6MMFSMg0qOrqGU5BpaZBnC2n08f6MGnth/yxJ+dP8AdPf6GrME0dxHvhcMvQ+oPoR2NWKrXNkkziWN2guB0lTr9CO4+tMNyTFVbiz3uZoHEUx+9kZWT/eH9etOtblzKbW7CpcqMgrwsq+q/wBR2q3inuLVMxzdtaPi4jktj/eA3Rn8R/WrUOqQSFVE8Tsewbk1exxiqt5p1veQsjxqjHpIigMp7Gp5S+e+6LasrjKnIpax4J7i2lEN2Qkx4Vx9yb/A+1aC3Qx86EH2pXG49iGSBrQtLbgeX954icL7keh/Q1Ja3MN5AJraQSRnuOx9D6GqGvQS6larFazMpU5ZDwsnsTXLRTXmlXWU3wS91YcMPcdDWsIprRmcrrc77FGKz9G1ePVEZdvlzoMunUY9R7VpYpNWENxRinYoxSAbijFOxRigBuKMU7FGKAG4oxTsUYoAbilxS4pcUANxS4pcUuKAG4pcUuKKAExS4paMUAJilxS4pcUANxS4paKADFGKWigBKKWigBKWiigAooooAKKKKACiiigAooooAKKKKACiiigAooooAKKKKACiiigAooooAKKKKACiiigAooooAKKKKACiiigAooooAKKKKACiiigAooooAKKKKACiiigAooooAKKKKACiiigAooooAKKKKACiiigAooooAKKKKACiiigAooooAKKKKACiiigAooooAKKKKACiiigAooooAKKKKACiiigAooooAKKKKACiiigAooooAKKKKACiiigAooooAKKKKACiiigAooooAKKKKACiiigAooooAKKKKACiiigAooooAKKKKACiiigAooooAQgEYPQ1h6cpjtfJJ5gdoj+B4/TFbtZEqeRq0yfw3CCVf95eG/TBqZFwfQfRS0VJoROXhkWeMEsnVR/Evcf1+orWjdZI1dDuVhkH1rOotZvssvluf3Mh+U/3GPb6H+dNMiSuadFFFWZhRRRQAUUUUAIQGBBAIPBBrEurNrDLxgvaeg5MX+K/yrcopNXGpWMAEEBlIIPIIPWpUl7P+dTXOllWMtkVQnlom+430/un9KpB/wB4Y3Vo5R1jfg/h6j3FRsbJpl2iqyuydDx6VMsqtx0NAD6KKKACmlFbqoP1FOooAZ5Uf/PNP++RSiNB0UD8KdRQAm0elLgelFFACiiiigAoopaACigAmo2uIVbb5gLf3V+Y/kKBEtFMX7RJ/qrZgP70p2j8uTUq2U7/AOtudg/uwrj9TmnYV0hrMEXc7BV9WOBUa3CycQJJOf8AYXj8zxVuPT7aNt3lB3/vSHcf1qzT5SeYz1gvJOvlQD3+dv6CpBpsTf695J/Z24/IcVdop2QuZjI444l2xoqL6KMU+iimSFFFFABRRRQAUUUUAFFFFABRRRQAUUUUAFFFFADWVW+8oP1FUAgt7h4AMRsN8Y9P7w/Pn8a0ap6gNscc3/PJwT9Dwf5/pSZUXqNooIwcUVBYVnyyCzu2QxyGKbMiFF3Yb+Icfn+daFV7/cluLiPO+3bzRjuB94fiM0DTsRxXVvMcRzIW/uk4P5GpSMdavSQW13GGkijlVhkEqDxVdtLjX/USyw+gDbl/I5p8oKoupBRRJbX0PIWK5X/Z+Rv8KiW4RpPLdXik/uSLtJ+nY0rGikmSgsrblOGH61ahmEg9GHUVVpOQQQcEd6QNXNClzUEU24c8Gpc1Rk1YdS03NLmgVhaWm5paYhaKKKBBRRRQAUUUUAFFFFAGTg6dqJRR+6ky8Y/9CX+taqkMoZTkHkVXv4GuLUiP/Wod8f8AvD/Hp+NRabcrJGoHCuMpnt6j8KWxfxIvVk3sE1veiW1Me25OHSTIBcDjkdCR/KtaormBbm3eFiRu6MOqnsfwNMlOxlfapbR8z28tse5xvjP4jpV2DUopkyuH942BFWLKdp4cSYE0Z2SAeo7/AEPX8abcaZZ3BzLboW/vAbT+Yot2HzJ7ofHNHLwrc+h61JWLPA2n3ioXdrWbiNmOTE/pn0Na1u++EEnLDhvrSBpWuht1bR3UWyQEEHKupwyH1B7Gq9vdSQzrZ35HnN/q5QMLN/g3t+VXqiubeK6gaGddyH8CD2IPY0ySXFGKox3Mtkyw3zboycR3PY+gf0Pv0NaGKoTViOSJJYzHKiujdVYZBqlJp8inNpcFB/zzkG9fwPUVo4oxRYE2tjL+z6iB0tW99zD+lK2my3S+XetC0WclEUkn8T0/CtPFGKVhubZTstNs7DebWARl/vHOSfbJ7VaxT8UYpkjcUYp2KMUANxRinYoxQA3FGKdijFADcUmKfijFADcUU7FGKAG0YpcUuKAG0uKWigBMUtFFABRS0UAFFFFABRRRQAUUUUAFFFFABRRRQAUUUUAFFFFABRRRQAUUUUAFFFFABRRRQAUUUUAFFFFABRRRQAUUUUAFFFFABRRRQAUUUUAFFFFABRRRQAUUUUAFFFFABRRRQAUUUUAFFFFABRRRQAUUUUAFFFFABRRRQAUUUUAFFFFABRRRQAUUUUAFFFFABRRRQAUUUUAFFFFABRRRQAUUUUAFFFFABRRRQAUUUUAFFFFABRRRQAUUUUAFFFFABRRRQAUUUUAFFFFABRRRQAUUUUAFFFFABRRRQAUUUUAFFFFABRRRQAUUUUAFFFFABRRRQAUUUUAFFFFABRRRQAVn6xExtluY1zJbN5gA7r/EPyzWhSUPUadmZisrorodyMMqR3BpaZPbPp5LwIZLQnJjUZaL1Kjuvt27elOjdJY1kjYOjdGU5BrM1vcWkZVdSrAFSMEHvTqSgY+2uTARFcMTGeElP8m/x71oVmEAgggEHgg96IpZbbhMyxf3CfmX6Hv9DVJkOPY06KhguYrgHy2+YdVPDD6ipqozCiiigAooooAKhuLaG5TZPGrjtnqPoe1TUUAZMumTxc28olX+5L1/Bv8AGqrs0PE8UkPuwyv5jiugpKnlLU2YccpxlGDL7HIqUTA/eGKvS6faSnc0ChvVflP6VAdJXPyXMy+xw38xSsyudEYZT0Ipad/Zb/8AP1+cYpRp0g6XP/jn/wBeizDmQyiphYy/8/I/79j/ABo+wOety34IBRZhzIhpcH0qf+z1/inmP/AsfyFOGnW38SF/95iaLMOZFNpI0+9Ii/VhSCdG/wBWJJP9xCa0kt4I/uQxr9FFS0+UXOZapcv9y2Kj1kcD9BmpFsrlvvzpH7Rpn9T/AIVoUU7E8zKY023PMu+Y/wDTRiR+XSrMcccS7Y0VB6KMU+inYV2wooooEFFFFABRRRQAUUUUAFFFFABRRRQAUUUUAFFFFABRRRQAUUUUAFFFFABUN2nmWkyeqEfpU1MlYJE7t0VSTQBSibfCj/3lB/SnVBY82FufWMGp6zNQpGAKMD0KkH8qWo7h/LtpX9EP8qAHaIzf2bHG5JaIbM+oHT9CK0Ko2cZt7gxHPzQofxAwf6Veq1sZvcKZLFHMhSVFdT2YZp9FMRlTWktplot00HdOrJ9PUe1NVldQ6MGU9CO9a9Z91ZsjtPajk8vF0D+49D/OpcTWM+jIOQcqcGpFuCvDAiokdZF3L64IIwQfQj1p1QbaMsrMrdCKfuqiVHpSgEdHYU7k8iLu6l31S3SD+PP1FLvk/vL+VFxchc8yl31T3uO6n8KPNk/2aLi5C4JAenNJvOaz5pUt0Mkjbfx5P0Hemf2lbkf8fG3HUEEEfpRcOQ1NxpDKqjLMB+NZP9oW7DMZkm7fIpNRtfNuAS0OT0LuAKLj5DYS4V5Nq9MdamBzWJp8khgaWQ5kEzbsdOvStZGBAI6GmmTKNias24h+z3eV4jnO4f7Mnf8AMfqK0QcioruD7RbtGDhuqH0YcimSnZjoJfNTJ+8ODUlULablZMHBHzL6VdWVGGVOaSCSsynB+71XjjzYjkepB4/Q1pVnW/73VJHTmOFNmfc81o1SJluRXMEd1A8MoyjjBrKSSayuVhnOZDwj9BMP6N7VtVFcW8V1CYp0Doex/nQ1cIysNimSVcqcHuD2p9Zb2V7anMLC6jHQMdsgH16H8adbajvkaJldJEGWjlXDY9R61PqXZPY0XRXQo6hlYYIIyCKpZfTOdzSWWec8tD/iv6irqsHGRS4yMEZFMgeCCAQcg9DS1mwH+zp1t2/49ZDiFj/yzb+4fb0/L0rSqhNBRRRQIKKKKACiiigAooooAKKKKACiiigAooooAKKKKACiiigAooooAKKKKACiiigAooooAKKKKACiiigAooooAKKKKACiiigAooooAKKKKACiiigAooooAKKKKACiiigAooooAKKKKACiiigAooooAKKKKACiiigAooooAKKKKACiiigAooooAKKKKACiiigAooooAKKKKACiiigAooooAKKKKACiiigAooooAKKKKACiiigAooooAKKKKACiiigAooooAKKKKACiiigAooooAKKKKACiiigAooooAKKKKACiiigAooooAKKKKACiiigAooooAKKKKACiiigAooooAKKKKACiiigAooooAKKKKACiiigAooooAKKKKACiiigAooooAKKKKACqcmnx+a0sBMMjctt+6x9SPX3q5RQNOxmP5kP+ujIH99eV/wARQrK4yjBh6g5rTqvLZW8rbniXd/eXg/mKnlK5yrRU39noOk04/wCB5/nS/YF7zzn/AIFj+lKzHzIrSRo4DOBx0boR+NJFczA7YJGuP9krnH/AquLY26nJj3n1clv51YAAGAMD2p2E5IbEZGjUyoEc9VBzj8afRRVEBRRRQAUUUUAFFFFABRRRQAUUUUAFFFFABRRRQAUUUUAFFFFABRRRQAUUUUAFFFFABRRRQAUUUUAFFFFABRRRQAUUUUAFFFFABRRRQAUUVGsymVoicOvOD3HrQBJRRRQAVR1STEHkA8yAlvZQMk/0/Gpri7jt/lOXkP3Y15Y/59aoTI7RSNKQZ5yI+Oign7o/WpbKiiWAbbeIeiD+VSUHGeOlFSWFV5T9ovIrNeRkSTeyjkD8TileZ5JGgtBvlX774ysX19T6D86tWFmLVGJ5kc5Yk5P500ribsTshM0bj+EEH8f/ANVSUUVZmFFFFABRRRQBSvLIyv51uwjmxg5+649D/jVBrkQtsuo2gb/aGVP0atykIDDDAEehpNXLjNoyFkjcZSRGHswoZ0X70iD6sKvtp9m7bmtYSfXYKelpbR/cgiX6IKnlL9qZfnxE4Vt59EBb+VPVZ5PuW0n1fC//AF61gABgDFLT5ROozNWyumPzSRRj/ZUsf1qX+zlKkPPMSR1DbcflV2inZEc8jn7W1FncSQyqGnHzLKeTIvrz0x3q5mrl5ai6iAB2Sod0b/3T/h61nxOXUh12SIdrr6H/AAqWrGsZXIp7KKXLIBFL2dR/Md6pgM0hjZdsqHJX/D2NalUr2N5723SJvLdVLNIOoX0/OpLGwSrbzMkpCpKcqScYb0/GtG3fY3lPx/dNV1tLdVZTEH3jDF/mLfU0y3tPs5ZRJI8f8IZs7aA3NdDT6z1klXgPn6ila4lCktIFUDkgVVzNwZXlldb10hgeXzPnAUgYI4PX8KsR2dzOP3zC3Q9VQ5Y/j2/CprG2KMZ5AVZl2qp/hX/E1dppEyn0RHDEkEYjjXao7VJRRVGYUUUUAFUtRszcqksJC3MRzGx6H1U+xq7RQNOxl2V4CGRlZShw8Z+9Gf6j3q8rowyGBFR3dlFckPkxzL92VOGHt7j2qk8NzBnzIfOA/jh6n6r/AIVNmjS6kY+va3ctJPYLCIUB2lm5Zh6j0FX/AA3rX2tBZ3Tf6Qg+Rj/y0H+Ipl9bJqUYVrG53rwkgXaV/Pt7Vkx+HdWjuY9kaoysGEm8YXnr61rHlasZyVmdzRSDOBnrS1AgooooAKKKKACiiigAooooAKKKKACiiigAooooAKKKKACiiigAooooAKKKKACiiigAooooAKKKKACiiigAooooAKKKKACiiigAooooAKKKKACiiigAooooAKKKKACiiigAooooAKKKKACiiigAooooAKKKKACiiigAooooAKKKKACiiigAooooAKKKKACiiigAooooAKKKKACiiigAooooAKKKKACiiigAooooAKKKKACiiigAooooAKKKKACiiigAooooAKKKKACiiigAooooAKKKKACiiigAooooAKKKKACiiigAooooAKKKKACiiigAooooAKKKKACiiigAooooAKKKKACiiigAooooAKKKKACiiigAooooAKKKKACiiigAooooAKKKKACiiigAooooAKKKKACiiigAooooAKKKKACiiigAooooAKKKKACiiigAooooAKKKKACiiigAooooAKKKKACiiigAooooAKKKKACiiigAooooAKKKKACiiigAooooAKjmginXbKgYe9SUUAZ0lrdQc208skf/ADzLjcv0J6/j+dQGeMttnu7iNv7kh8v+n9a2Kayq67WUMD2IzU2KUjPhSFFPk7AD1KnJP1PemSSxCYNJLGixZxuYDLH/AAH86tvptk5y1pD/AN8AUsdhZxY8u1hXHcIKXKx8yKQvY5Di2SW5b/pmvH/fR4qRbS6uf+PmQW8R/wCWcJ+Y/Vv8PzrR6UtPlFzdiOGGO3iWOFFRF6BRUlFFUSFFFFABRRRQAUUUUAFFFFABRRRQAUUUUAFFFFABWfqETRuLlFyMYlAGTjsfwrQooGnZ3MmN0kXdG6up7qc0bVDl8fMRgn2q5PYW8x3bTG/9+M7TVc2d1H9ySOYf7Y2t+Y4qOU2U0xlFIRKn+st5F9x8w/SmPcwRjLSAeg7n6DrSKuh7MqKWchVHUmprS3aVlnmUqo5jjPX6n39u1La2bO6z3I5HKRdk9z6n+VX6pIznO+iCiiiqMgooooAKKKKACiiigAooooAKKKKACiiigAooooAKKKKACiiigAooooAKKKKACiiigAooooAKKKKACiiigAooooAKKKKACiiigAooooAKKKKACiiigAooooAKKKKACiiigAooooAKKKKACiiigAooooAKKKKACiiigAooooAKKKKACiiigAooooAKKKKACiiigAooooAKKKKACiiigAooooAKKKKACiiigAooooAKKKKACiiigAooooAKKKKACiiigAooooAKKKKACiiigAooooAKKKKACiiigAooooAKKKKACiiigAooooAKKKKACiiigAooooAKKKKACiiigAooooAKKKKACiiigAooooAKKKKACiiigAooooAKKKKACiiigAooooAKKKKACiiigAooooAKKKKACiiigAooooAKKKKACiiigAooooAKKKKACiiigAooooAKKKKACiiigAooooAKKKKACiiigAooooAKKKKACiiigAooooAKKKKACiiigAooooAKKKKACiiigAooooAKKKKACiiigAooooAKKKKACiiigAooooAKKKKACiiigAooooAKKKKACiiigAooooAKKKKACiiigAooooAKKKKACiiigAppRCwYqCw6HHIp1FABRRRQAUUUUAFFFFABRRRQAUUUUAFFFFABRRRQAUUUUAFFFFABRRRQAUUUUAFFFFABRRRQAUUUUAFFFFABRRRQAUUUUAFFFFABRRRQAUUUUAFFFFABRRRQAUUUUAFFFFABRRRQAUUUUAFFFFABRRRQAUUUUAFFFFABRRRQAUUUUAFFFFABRRRQAUUUUAFFFFABRRRQAUUUUAFFFFABRRRQAUUUUAFFFFABRRRQAUUUUAFFFFABRRRQAUUUUAFFFFABRRRQAUUUUAFFFFABRRRQAUUUUAFFFFABRRRQAUUUUAFFFFABRRRQAUUUUAFFFFABRRRQAUUUUAFFFFABRRRQAUUUUAFFFFABRRRQAUUUUAFFFFABRRRQAUUUUAFFFFABRRRQAUUUUAFFFFABRRRQAUUUUAFFFFABRRRQAUUUUAFFFFABRRRQAUUUUAFFFFABRRRQAUUUUAFFFFABRRRQAUUUUAFFFFABRRRQAUUUUAFFFFABRRRQAUUUUAFFFFABRRRQAUUUUAFFFFABRRRQAUUUUAFFFFABRRRQAUUUUAFFFFABRRRQAUUUUAFFFFABRRRQAUUUUAFFFFABRRRQAUUUUAFFFFABRRRQAUUUUAFFFFABRRRQAUUUUAFFFFABRRRQAUUUUAFFFFABRRRQAUUUUAFFFFABRRRQAUUUUAFFFFABRRRQAUUUUAFFFFABRRRQAUUUUAFFFFABRRRQAUUUUAFFFFABRRRQAUUUUAFFFFABRRRQAUUUUAFFFFABRRRQAUUUUAFFFFABRRRQAUUUUAFFFFABRRRQAUUUUAFFFFABRRRQAUUUUAFFFFABRRRQAUUUUAFFFFABRRRQAUUUUAFFFFABRRRQAUUUUAFFFFABRRRQAUUUUAFFFFABRRRQAUUUUAFFFFABRRRQAUUUUAFFFFABRRRQAUUUUAFFFFABRRRQAUUUUAFFFFABRRRQAUUUUAFFFFABRRRQAUUUUAFFFFABRRRQAUUUUAFFFFABRRRQAUUUUAFFFFABRRRQAUUUUAFFFFABRRRQAUUUUAFFFFABRRRQAUUUUAFFFFABRRRQAUUUUAFFFFABRRRQAUUUUAFFFFABRRRQAUUUUAFFFFABRRRQAUUUUAFFFFABRRRQAUUUUAFFFFABRRRQAUUUUAFFFFABRRRQAUUUUAFFFFABRRRQAUUUUAFFFFABRRRQAUUUUAFFFFABRRRQAUUUUAFFFFABRRRQAUUUUAFFFFABRRRQAUUUUAFFFFABRRRQAUUUUAFFFFABRRRQAUUUUAFFFFABRRRQAUUUUAFFFFABRRRQAUUUUAFFFFABRRRQAUUUUAFFFFABRRRQAUUUUAFFFFABRRRQAUUUUAFFFFABRRRQAUUUUAFFFFABRRRQAUUUUAFFFFABRRRQAUUUUAFFFFABRRRQAUUUUAFFFFABRRRQAUUUUAFFFFABRRRQAUUUUAFFFFABRRRQAUUUUAFFFFABRRRQAUUUUAFFFFABRRRQAUUUUAFFFFABRRRQAUUUUAFFFFABRRRQAUUUUAFFFFABRRRQAUUUUAFFFFABRRRQAUUUUAFFFFABRRRQAUUUUAFFFFABRRRQAUUUUAFFFFABRRRQAUUUUAFFFFABRRRQAUUUUAFFFFABRRRQAUUUUAFFFFAH/9k=&quot;,&quot;width&quot;:&quot;1920&quot;,&quot;height&quot;:&quot;1080&quot;}" math="0" shadow="0">
      <root>
        <mxCell id="0" />
        <mxCell id="1" parent="0" />
        <mxCell id="S80M1s0qxWWgurfnK-eF-22" style="edgeStyle=orthogonalEdgeStyle;rounded=0;orthogonalLoop=1;jettySize=auto;html=1;" parent="1" source="S80M1s0qxWWgurfnK-eF-1" target="S80M1s0qxWWgurfnK-eF-2" edge="1">
          <mxGeometry relative="1" as="geometry" />
        </mxCell>
        <mxCell id="S80M1s0qxWWgurfnK-eF-1" value="实例化spring容器" style="rounded=1;whiteSpace=wrap;html=1;fillColor=#e1d5e7;strokeColor=#9673a6;" parent="1" vertex="1">
          <mxGeometry x="820" y="90" width="140" height="40" as="geometry" />
        </mxCell>
        <mxCell id="S80M1s0qxWWgurfnK-eF-23" style="edgeStyle=orthogonalEdgeStyle;rounded=0;orthogonalLoop=1;jettySize=auto;html=1;" parent="1" source="S80M1s0qxWWgurfnK-eF-2" target="S80M1s0qxWWgurfnK-eF-3" edge="1">
          <mxGeometry relative="1" as="geometry" />
        </mxCell>
        <mxCell id="S80M1s0qxWWgurfnK-eF-2" value="扫描类" style="rounded=1;whiteSpace=wrap;html=1;fillColor=#e1d5e7;strokeColor=#9673a6;" parent="1" vertex="1">
          <mxGeometry x="820" y="170" width="140" height="40" as="geometry" />
        </mxCell>
        <mxCell id="S80M1s0qxWWgurfnK-eF-24" style="edgeStyle=orthogonalEdgeStyle;rounded=0;orthogonalLoop=1;jettySize=auto;html=1;" parent="1" source="S80M1s0qxWWgurfnK-eF-3" target="S80M1s0qxWWgurfnK-eF-4" edge="1">
          <mxGeometry relative="1" as="geometry" />
        </mxCell>
        <mxCell id="S80M1s0qxWWgurfnK-eF-3" value="解析这个类" style="rounded=1;whiteSpace=wrap;html=1;fillColor=#e1d5e7;strokeColor=#9673a6;" parent="1" vertex="1">
          <mxGeometry x="820" y="249.5" width="140" height="40" as="geometry" />
        </mxCell>
        <mxCell id="S80M1s0qxWWgurfnK-eF-25" style="edgeStyle=orthogonalEdgeStyle;rounded=0;orthogonalLoop=1;jettySize=auto;html=1;" parent="1" source="S80M1s0qxWWgurfnK-eF-4" target="S80M1s0qxWWgurfnK-eF-5" edge="1">
          <mxGeometry relative="1" as="geometry" />
        </mxCell>
        <mxCell id="S80M1s0qxWWgurfnK-eF-4" value="实例化BeanDefinition" style="rounded=1;whiteSpace=wrap;html=1;fillColor=#e1d5e7;strokeColor=#9673a6;" parent="1" vertex="1">
          <mxGeometry x="820" y="329.5" width="140" height="40" as="geometry" />
        </mxCell>
        <mxCell id="S80M1s0qxWWgurfnK-eF-26" style="edgeStyle=orthogonalEdgeStyle;rounded=0;orthogonalLoop=1;jettySize=auto;html=1;" parent="1" source="S80M1s0qxWWgurfnK-eF-5" target="S80M1s0qxWWgurfnK-eF-6" edge="1">
          <mxGeometry relative="1" as="geometry" />
        </mxCell>
        <mxCell id="S80M1s0qxWWgurfnK-eF-5" value="bd&amp;nbsp; put&amp;nbsp; bdMap" style="rounded=1;whiteSpace=wrap;html=1;fillColor=#e1d5e7;strokeColor=#9673a6;" parent="1" vertex="1">
          <mxGeometry x="820" y="409.5" width="140" height="40" as="geometry" />
        </mxCell>
        <mxCell id="S80M1s0qxWWgurfnK-eF-27" style="edgeStyle=orthogonalEdgeStyle;rounded=0;orthogonalLoop=1;jettySize=auto;html=1;entryX=0.5;entryY=0;entryDx=0;entryDy=0;" parent="1" source="S80M1s0qxWWgurfnK-eF-6" target="S80M1s0qxWWgurfnK-eF-7" edge="1">
          <mxGeometry relative="1" as="geometry" />
        </mxCell>
        <mxCell id="S80M1s0qxWWgurfnK-eF-6" value="调用bean工程的后置处理器" style="rounded=1;whiteSpace=wrap;html=1;fillColor=#e1d5e7;strokeColor=#9673a6;" parent="1" vertex="1">
          <mxGeometry x="820" y="499.5" width="140" height="40" as="geometry" />
        </mxCell>
        <mxCell id="S80M1s0qxWWgurfnK-eF-28" style="edgeStyle=orthogonalEdgeStyle;rounded=0;orthogonalLoop=1;jettySize=auto;html=1;entryX=0.5;entryY=0;entryDx=0;entryDy=0;" parent="1" source="S80M1s0qxWWgurfnK-eF-7" target="S80M1s0qxWWgurfnK-eF-8" edge="1">
          <mxGeometry relative="1" as="geometry" />
        </mxCell>
        <mxCell id="S80M1s0qxWWgurfnK-eF-7" value="验证" style="rounded=1;whiteSpace=wrap;html=1;fillColor=#e1d5e7;strokeColor=#9673a6;" parent="1" vertex="1">
          <mxGeometry x="820" y="569.5" width="140" height="40" as="geometry" />
        </mxCell>
        <mxCell id="S80M1s0qxWWgurfnK-eF-29" style="edgeStyle=orthogonalEdgeStyle;rounded=0;orthogonalLoop=1;jettySize=auto;html=1;entryX=0.5;entryY=0;entryDx=0;entryDy=0;fillColor=#e1d5e7;strokeColor=#9673a6;" parent="1" source="S80M1s0qxWWgurfnK-eF-8" target="S80M1s0qxWWgurfnK-eF-9" edge="1">
          <mxGeometry relative="1" as="geometry" />
        </mxCell>
        <mxCell id="S80M1s0qxWWgurfnK-eF-8" value="推断构造函数" style="rounded=1;whiteSpace=wrap;html=1;fillColor=#e1d5e7;strokeColor=#9673a6;" parent="1" vertex="1">
          <mxGeometry x="1080" y="90" width="140" height="40" as="geometry" />
        </mxCell>
        <mxCell id="S80M1s0qxWWgurfnK-eF-30" style="edgeStyle=orthogonalEdgeStyle;rounded=0;orthogonalLoop=1;jettySize=auto;html=1;entryX=0.5;entryY=0;entryDx=0;entryDy=0;fillColor=#e1d5e7;strokeColor=#9673a6;" parent="1" source="S80M1s0qxWWgurfnK-eF-9" target="S80M1s0qxWWgurfnK-eF-10" edge="1">
          <mxGeometry relative="1" as="geometry" />
        </mxCell>
        <mxCell id="S80M1s0qxWWgurfnK-eF-9" value="new 对象&amp;nbsp; 通过反射" style="rounded=1;whiteSpace=wrap;html=1;fillColor=#e1d5e7;strokeColor=#9673a6;" parent="1" vertex="1">
          <mxGeometry x="1080" y="170" width="140" height="40" as="geometry" />
        </mxCell>
        <mxCell id="S80M1s0qxWWgurfnK-eF-31" style="edgeStyle=orthogonalEdgeStyle;rounded=0;orthogonalLoop=1;jettySize=auto;html=1;fillColor=#e1d5e7;strokeColor=#9673a6;" parent="1" source="S80M1s0qxWWgurfnK-eF-10" target="S80M1s0qxWWgurfnK-eF-11" edge="1">
          <mxGeometry relative="1" as="geometry" />
        </mxCell>
        <mxCell id="S80M1s0qxWWgurfnK-eF-10" value="缓存注解信息，解析合并后的bd对象" style="rounded=1;whiteSpace=wrap;html=1;fillColor=#e1d5e7;strokeColor=#9673a6;" parent="1" vertex="1">
          <mxGeometry x="1080" y="249.5" width="140" height="40" as="geometry" />
        </mxCell>
        <mxCell id="S80M1s0qxWWgurfnK-eF-32" style="edgeStyle=orthogonalEdgeStyle;rounded=0;orthogonalLoop=1;jettySize=auto;html=1;entryX=0.5;entryY=0;entryDx=0;entryDy=0;fillColor=#e1d5e7;strokeColor=#9673a6;" parent="1" source="S80M1s0qxWWgurfnK-eF-11" target="S80M1s0qxWWgurfnK-eF-12" edge="1">
          <mxGeometry relative="1" as="geometry" />
        </mxCell>
        <mxCell id="S80M1s0qxWWgurfnK-eF-11" value="提前暴露一个工厂" style="rounded=1;whiteSpace=wrap;html=1;fillColor=#e1d5e7;strokeColor=#9673a6;" parent="1" vertex="1">
          <mxGeometry x="1080" y="329.5" width="140" height="40" as="geometry" />
        </mxCell>
        <mxCell id="S80M1s0qxWWgurfnK-eF-33" style="edgeStyle=orthogonalEdgeStyle;rounded=0;orthogonalLoop=1;jettySize=auto;html=1;fillColor=#e1d5e7;strokeColor=#9673a6;" parent="1" source="S80M1s0qxWWgurfnK-eF-12" target="S80M1s0qxWWgurfnK-eF-13" edge="1">
          <mxGeometry relative="1" as="geometry" />
        </mxCell>
        <mxCell id="S80M1s0qxWWgurfnK-eF-12" value="判断是否需要完成属性的注入" style="rounded=1;whiteSpace=wrap;html=1;fillColor=#e1d5e7;strokeColor=#9673a6;" parent="1" vertex="1">
          <mxGeometry x="1080" y="400" width="140" height="40" as="geometry" />
        </mxCell>
        <mxCell id="hnl1TuHzBkswzrxMI489-3" style="edgeStyle=orthogonalEdgeStyle;rounded=0;orthogonalLoop=1;jettySize=auto;html=1;entryX=0.5;entryY=0;entryDx=0;entryDy=0;" parent="1" source="S80M1s0qxWWgurfnK-eF-13" edge="1">
          <mxGeometry relative="1" as="geometry">
            <mxPoint x="1150" y="550" as="targetPoint" />
          </mxGeometry>
        </mxCell>
        <mxCell id="S80M1s0qxWWgurfnK-eF-13" value="完成属性注入" style="rounded=1;whiteSpace=wrap;html=1;fillColor=#e1d5e7;strokeColor=#9673a6;" parent="1" vertex="1">
          <mxGeometry x="1080" y="480" width="140" height="40" as="geometry" />
        </mxCell>
        <mxCell id="S80M1s0qxWWgurfnK-eF-14" value="回调Aware接口" style="rounded=1;whiteSpace=wrap;html=1;fillColor=#e1d5e7;strokeColor=#9673a6;" parent="1" vertex="1">
          <mxGeometry x="1080" y="550" width="140" height="40" as="geometry" />
        </mxCell>
        <mxCell id="hnl1TuHzBkswzrxMI489-5" style="edgeStyle=orthogonalEdgeStyle;rounded=0;orthogonalLoop=1;jettySize=auto;html=1;entryX=0.5;entryY=0;entryDx=0;entryDy=0;" parent="1" source="S80M1s0qxWWgurfnK-eF-15" target="hnl1TuHzBkswzrxMI489-1" edge="1">
          <mxGeometry relative="1" as="geometry" />
        </mxCell>
        <mxCell id="S80M1s0qxWWgurfnK-eF-15" value="调用生命周期回调方法" style="rounded=1;whiteSpace=wrap;html=1;fillColor=#e1d5e7;strokeColor=#9673a6;" parent="1" vertex="1">
          <mxGeometry x="1080" y="620" width="140" height="40" as="geometry" />
        </mxCell>
        <mxCell id="S80M1s0qxWWgurfnK-eF-16" value="完成代理 AOP等" style="rounded=1;whiteSpace=wrap;html=1;fillColor=#f8cecc;strokeColor=#b85450;" parent="1" vertex="1">
          <mxGeometry x="1210" y="690" width="140" height="40" as="geometry" />
        </mxCell>
        <mxCell id="S80M1s0qxWWgurfnK-eF-38" style="edgeStyle=orthogonalEdgeStyle;rounded=0;orthogonalLoop=1;jettySize=auto;html=1;fillColor=#e1d5e7;strokeColor=#9673a6;" parent="1" source="S80M1s0qxWWgurfnK-eF-17" target="S80M1s0qxWWgurfnK-eF-18" edge="1">
          <mxGeometry relative="1" as="geometry" />
        </mxCell>
        <mxCell id="S80M1s0qxWWgurfnK-eF-17" value="put 进单例池singletonObejcts" style="rounded=1;whiteSpace=wrap;html=1;fillColor=#e1d5e7;strokeColor=#9673a6;" parent="1" vertex="1">
          <mxGeometry x="1080" y="760" width="140" height="40" as="geometry" />
        </mxCell>
        <mxCell id="S80M1s0qxWWgurfnK-eF-18" value="销毁这个对象" style="rounded=1;whiteSpace=wrap;html=1;fillColor=#e1d5e7;strokeColor=#9673a6;" parent="1" vertex="1">
          <mxGeometry x="1080" y="830" width="140" height="40" as="geometry" />
        </mxCell>
        <mxCell id="S80M1s0qxWWgurfnK-eF-39" value="" style="shape=curlyBracket;whiteSpace=wrap;html=1;rounded=1;direction=west;" parent="1" vertex="1">
          <mxGeometry x="1241" y="90" width="20" height="710" as="geometry" />
        </mxCell>
        <mxCell id="S80M1s0qxWWgurfnK-eF-42" value="Spring Bean的生命周期" style="text;html=1;align=center;verticalAlign=middle;resizable=0;points=[];autosize=1;" parent="1" vertex="1">
          <mxGeometry x="1270" y="435" width="140" height="20" as="geometry" />
        </mxCell>
        <mxCell id="hnl1TuHzBkswzrxMI489-1" value="依次执行Bean的后置处理器" style="rounded=1;whiteSpace=wrap;html=1;fillColor=#e1d5e7;strokeColor=#9673a6;" parent="1" vertex="1">
          <mxGeometry x="1080" y="690" width="140" height="40" as="geometry" />
        </mxCell>
        <mxCell id="hnl1TuHzBkswzrxMI489-4" style="edgeStyle=orthogonalEdgeStyle;rounded=0;orthogonalLoop=1;jettySize=auto;html=1;entryX=0.5;entryY=0;entryDx=0;entryDy=0;" parent="1" target="S80M1s0qxWWgurfnK-eF-15" edge="1">
          <mxGeometry relative="1" as="geometry">
            <mxPoint x="1150" y="590" as="sourcePoint" />
          </mxGeometry>
        </mxCell>
      </root>
    </mxGraphModel>
  </diagram>
</mxfile>
